{
.appVersion = "1192";
DisplayStrings = (
"/_part.leg",
"/_part.leg",
"/_part.leg",
"/_part.leg",
"/_part.leg",
"/lwa-ethiopic",
"/_part.legcross",
"/hhu-ethiopic",
"/hhi-ethiopic",
"/hhe-ethiopic",
"/_part.leg/laa-ethiopic",
"/hhee-ethiopic",
"/hhwa-ethiopic",
"/mu-ethiopic",
"/mee-ethiopic",
"/mo-ethiopic",
"/mwa-ethiopic",
"/maa-ethiopic",
"/me-ethiopic",
"/szu-ethiopic",
"/szi-ethiopic",
"/szaa-ethiopic",
"/szee-ethiopic",
"/_part.haa",
"/_part.ha",
"/szwa-ethiopic",
"/saa-ethiopic",
"/sha-ethiopic",
"/shu-ethiopic",
"/shi-ethiopic",
"/shaa-ethiopic",
"/shee-ethiopic",
"/she-ethiopic",
"/sho-ethiopic",
"/shwa-ethiopic",
"/we-ethiopic/qu-ethiopic",
"/qu-ethiopic",
"/qoa-ethiopic",
"/qaa-ethiopic",
"/hu-ethiopic",
"/hi-ethiopic",
"/haa-ethiopic",
"/hee-ethiopic",
"/_part.ho/ho-ethiopic",
"/ho-ethiopic",
"/lu-ethiopic",
"/_part.hi/li-ethiopic",
"/li-ethiopic",
"/laa-ethiopic",
"/lee-ethiopic",
"/hhaa-ethiopic",
"/hho-ethiopic",
"/mi-ethiopic",
"/su-ethiopic",
"/si-ethiopic",
"/see-ethiopic",
"/swa-ethiopic",
"/qi-ethiopic",
"/we-ethiopic",
"/wo-ethiopic",
"/woa-ethiopic",
"/bu-ethiopic",
"/bi-ethiopic",
"/baa-ethiopic",
"/bee-ethiopic",
"/bwa-ethiopic",
"/tu-ethiopic",
"/ti-ethiopic",
"/to-ethiopic",
"/ca-ethiopic",
"/twa-ethiopic",
"/cu-ethiopic",
"/ce-ethiopic",
"/cwa-ethiopic",
"/xu-ethiopic",
"/xi-ethiopic",
"/xee-ethiopic",
"/xwa-ethiopic",
"/nu-ethiopic",
"/ni-ethiopic",
"/nee-ethiopic",
"/nyu-ethiopic",
"/nyi-ethiopic",
"/uGlottal-ethiopic",
"/iGlottal-ethiopic",
"/aaGlottal-ethiopic",
"/eeGlottal-ethiopic",
"/eGlottal-ethiopic",
"/oGlottal-ethiopic",
"/waGlottal-ethiopic",
"/ku-ethiopic",
"/ki-ethiopic",
"/kaa-ethiopic",
"/kee-ethiopic",
"/ko-ethiopic",
"/kwa-ethiopic",
"/kxwaa-ethiopic",
"/uPharyngeal-ethiopic",
"/iPharyngeal-ethiopic",
"/aaPharyngeal-ethiopic",
"/eePharyngeal-ethiopic",
"/zu-ethiopic",
"/zi-ethiopic",
"/zaa-ethiopic",
"/zhu-ethiopic",
"/zhi-ethiopic",
"/zhaa-ethiopic",
"/zee-ethiopic",
"/zhee-ethiopic",
"/yo-ethiopic",
"/yoa-ethiopic",

glyphs = (
{
glyphname = A;
lastChange = "2019-03-11 07:10:32 +0000";
layers = (
{
layerId = "994FE389-9D54-4FAA-B055-C46A67020E78";
paths = (
{
closed = 1;
nodes = (
"155 0 LINE",
"229 203 LINE",
"499 203 LINE",
"568 0 LINE",
"670 0 LINE",
"421 682 LINE",
"317 682 LINE",
"60 0 LINE"
);
},
{
closed = 1;
nodes = (
"367 579 LINE",
"469 278 LINE",
"255 278 LINE"
);
}
);
width = 730;
},
{
layerId = "CBA2E3C4-6E62-469B-BD2C-D62FAD87CF88";
paths = (
{
closed = 1;
nodes = (
"109 0 LINE",
"160 203 LINE",
"349 203 LINE",
"398 0 LINE",
"469 0 LINE",
"295 682 LINE",
"222 682 LINE",
"42 0 LINE"
);
},
{
closed = 1;
nodes = (
"257 579 LINE",
"328 278 LINE",
"178 278 LINE"
);
}
);
width = 511;
}
);
note = A;
unicode = 0041;
},
{
glyphname = B;
lastChange = "2019-03-11 07:10:32 +0000";
layers = (
{
layerId = "994FE389-9D54-4FAA-B055-C46A67020E78";
paths = (
{
closed = 1;
nodes = (
"358 0 LINE SMOOTH",
"448 0 OFFCURVE",
"513 24 OFFCURVE",
"553 77 CURVE SMOOTH",
"581 115 OFFCURVE",
"596 153 OFFCURVE",
"596 198 CURVE SMOOTH",
"596 250 OFFCURVE",
"580 291 OFFCURVE",
"549 321 CURVE SMOOTH",
"535 335 OFFCURVE",
"507 352 OFFCURVE",
"472 366 CURVE",
"495 378 OFFCURVE",
"513 392 OFFCURVE",
"526 406 CURVE SMOOTH",
"551 433 OFFCURVE",
"563 468 OFFCURVE",
"563 511 CURVE SMOOTH",
"563 547 OFFCURVE",
"555 580 OFFCURVE",
"532 608 CURVE SMOOTH",
"496 653 OFFCURVE",
"442 679 OFFCURVE",
"363 679 CURVE SMOOTH",
"70 679 LINE",
"70 0 LINE"
);
},
{
closed = 1;
nodes = (
"161 318 LINE",
"343 318 LINE SMOOTH",
"382 318 OFFCURVE",
"414 313 OFFCURVE",
"437 304 CURVE SMOOTH",
"481 286 OFFCURVE",
"503 252 OFFCURVE",
"503 202 CURVE SMOOTH",
"503 173 OFFCURVE",
"496 147 OFFCURVE",
"479 127 CURVE SMOOTH",
"450 92 OFFCURVE",
"412 77 OFFCURVE",
"358 77 CURVE SMOOTH",
"161 77 LINE"
);
},
{
closed = 1;
nodes = (
"161 603 LINE",
"327 603 LINE SMOOTH",
"365 603 OFFCURVE",
"396 598 OFFCURVE",
"417 590 CURVE SMOOTH",
"453 576 OFFCURVE",
"471 545 OFFCURVE",
"471 500 CURVE SMOOTH",
"471 456 OFFCURVE",
"452 425 OFFCURVE",
"419 408 CURVE SMOOTH",
"398 397 OFFCURVE",
"367 392 OFFCURVE",
"329 392 CURVE SMOOTH",
"161 392 LINE"
);
}
);
width = 656;
},
{
layerId = "CBA2E3C4-6E62-469B-BD2C-D62FAD87CF88";
paths = (
{
closed = 1;
nodes = (
"251 0 LINE SMOOTH",
"314 0 OFFCURVE",
"359 24 OFFCURVE",
"387 77 CURVE SMOOTH",
"407 115 OFFCURVE",
"417 154 OFFCURVE",
"417 198 CURVE SMOOTH",
"417 249 OFFCURVE",
"406 291 OFFCURVE",
"385 320 CURVE SMOOTH",
"372 338 OFFCURVE",
"353 353 OFFCURVE",
"330 366 CURVE",
"346 378 OFFCURVE",
"359 392 OFFCURVE",
"369 407 CURVE SMOOTH",
"386 433 OFFCURVE",
"394 471 OFFCURVE",
"394 511 CURVE SMOOTH",
"394 551 OFFCURVE",
"387 582 OFFCURVE",
"373 607 CURVE SMOOTH",
"344 659 OFFCURVE",
"304 679 OFFCURVE",
"254 679 CURVE SMOOTH",
"49 679 LINE",
"49 0 LINE"
);
},
{
closed = 1;
nodes = (
"113 318 LINE",
"240 318 LINE SMOOTH",
"267 318 OFFCURVE",
"290 313 OFFCURVE",
"306 304 CURVE SMOOTH",
"337 286 OFFCURVE",
"352 251 OFFCURVE",
"352 202 CURVE SMOOTH",
"352 173 OFFCURVE",
"347 147 OFFCURVE",
"336 128 CURVE SMOOTH",
"315 92 OFFCURVE",
"289 77 OFFCURVE",
"251 77 CURVE SMOOTH",
"113 77 LINE"
);
},
{
closed = 1;
nodes = (
"113 603 LINE",
"229 603 LINE SMOOTH",
"256 603 OFFCURVE",
"277 598 OFFCURVE",
"292 590 CURVE SMOOTH",
"317 576 OFFCURVE",
"330 545 OFFCURVE",
"330 500 CURVE SMOOTH",
"330 454 OFFCURVE",
"316 425 OFFCURVE",
"293 408 CURVE SMOOTH",
"277 396 OFFCURVE",
"255 392 OFFCURVE",
"230 392 CURVE SMOOTH",
"113 392 LINE"
);
}
);
width = 459;
}
);
note = B;
unicode = 0042;
},
{
glyphname = C;
lastChange = "2019-03-11 07:10:32 +0000";
layers = (
{
layerId = "994FE389-9D54-4FAA-B055-C46A67020E78";
paths = (
{
closed = 1;
nodes = (
"435 -7 OFFCURVE",
"506 22 OFFCURVE",
"559 77 CURVE SMOOTH",
"603 124 OFFCURVE",
"628 183 OFFCURVE",
"635 253 CURVE",
"549 253 LINE",
"540 209 OFFCURVE",
"526 174 OFFCURVE",
"507 147 CURVE SMOOTH",
"471 97 OFFCURVE",
"423 71 OFFCURVE",
"357 71 CURVE SMOOTH",
"286 71 OFFCURVE",
"233 96 OFFCURVE",
"196 144 CURVE SMOOTH",
"160 191 OFFCURVE",
"141 254 OFFCURVE",
"141 332 CURVE SMOOTH",
"141 426 OFFCURVE",
"162 496 OFFCURVE",
"202 542 CURVE SMOOTH",
"242 587 OFFCURVE",
"294 609 OFFCURVE",
"358 609 CURVE SMOOTH",
"413 609 OFFCURVE",
"453 597 OFFCURVE",
"483 573 CURVE SMOOTH",
"512 549 OFFCURVE",
"533 514 OFFCURVE",
"543 471 CURVE",
"630 471 LINE",
"624 527 OFFCURVE",
"600 577 OFFCURVE",
"553 622 CURVE SMOOTH",
"505 667 OFFCURVE",
"438 687 OFFCURVE",
"357 687 CURVE SMOOTH",
"263 687 OFFCURVE",
"188 658 OFFCURVE",
"127 586 CURVE SMOOTH",
"71 520 OFFCURVE",
"50 439 OFFCURVE",
"50 347 CURVE SMOOTH",
"50 218 OFFCURVE",
"85 124 OFFCURVE",
"153 63 CURVE SMOOTH",
"205 16 OFFCURVE",
"270 -7 OFFCURVE",
"346 -7 CURVE SMOOTH"
);
}
);
width = 685;
},
{
layerId = "CBA2E3C4-6E62-469B-BD2C-D62FAD87CF88";
paths = (
{
closed = 1;
nodes = (
"305 -7 OFFCURVE",
"354 22 OFFCURVE",
"391 77 CURVE SMOOTH",
"421 122 OFFCURVE",
"439 180 OFFCURVE",
"445 253 CURVE",
"384 253 LINE",
"378 209 OFFCURVE",
"368 174 OFFCURVE",
"355 147 CURVE SMOOTH",
"330 97 OFFCURVE",
"295 71 OFFCURVE",
"250 71 CURVE SMOOTH",
"201 71 OFFCURVE",
"163 96 OFFCURVE",
"137 144 CURVE SMOOTH",
"112 191 OFFCURVE",
"99 255 OFFCURVE",
"99 332 CURVE SMOOTH",
"99 425 OFFCURVE",
"113 496 OFFCURVE",
"142 543 CURVE SMOOTH",
"169 587 OFFCURVE",
"207 609 OFFCURVE",
"251 609 CURVE SMOOTH",
"289 609 OFFCURVE",
"317 597 OFFCURVE",
"338 573 CURVE SMOOTH",
"359 548 OFFCURVE",
"373 514 OFFCURVE",
"380 471 CURVE",
"441 471 LINE",
"437 526 OFFCURVE",
"420 577 OFFCURVE",
"387 622 CURVE SMOOTH",
"353 668 OFFCURVE",
"305 687 OFFCURVE",
"250 687 CURVE SMOOTH",
"183 687 OFFCURVE",
"132 658 OFFCURVE",
"89 586 CURVE SMOOTH",
"50 520 OFFCURVE",
"35 441 OFFCURVE",
"35 347 CURVE SMOOTH",
"35 222 OFFCURVE",
"58 126 OFFCURVE",
"107 63 CURVE SMOOTH",
"142 18 OFFCURVE",
"187 -7 OFFCURVE",
"242 -7 CURVE SMOOTH"
);
}
);
width = 480;
}
);
note = C;
unicode = 0043;
},
{
glyphname = D;
lastChange = "2019-03-11 07:10:32 +0000";
layers = (
{
layerId = "994FE389-9D54-4FAA-B055-C46A67020E78";
paths = (
{
closed = 1;
nodes = (
"346 1 LINE SMOOTH",
"461 1 OFFCURVE",
"543 53 OFFCURVE",
"592 156 CURVE SMOOTH",
"620 213 OFFCURVE",
"633 279 OFFCURVE",
"633 351 CURVE SMOOTH",
"633 449 OFFCURVE",
"609 523 OFFCURVE",
"562 581 CURVE SMOOTH",
"501 657 OFFCURVE",
"427 681 OFFCURVE",
"347 681 CURVE SMOOTH",
"70 681 LINE",
"70 1 LINE"
);
},
{
closed = 1;
nodes = (
"163 603 LINE",
"327 603 LINE SMOOTH",
"400 603 OFFCURVE",
"457 579 OFFCURVE",
"489 533 CURVE SMOOTH",
"521 486 OFFCURVE",
"539 420 OFFCURVE",
"539 336 CURVE SMOOTH",
"539 314 OFFCURVE",
"537 290 OFFCURVE",
"532 265 CURVE SMOOTH",
"524 220 OFFCURVE",
"510 186 OFFCURVE",
"492 159 CURVE SMOOTH",
"469 124 OFFCURVE",
"440 101 OFFCURVE",
"404 89 CURVE SMOOTH",
"385 83 OFFCURVE",
"357 78 OFFCURVE",
"328 78 CURVE SMOOTH",
"163 78 LINE"
);
}
);
width = 683;
},
{
layerId = "CBA2E3C4-6E62-469B-BD2C-D62FAD87CF88";
paths = (
{
closed = 1;
nodes = (
"242 1 LINE SMOOTH",
"323 1 OFFCURVE",
"380 53 OFFCURVE",
"414 155 CURVE SMOOTH",
"434 213 OFFCURVE",
"443 278 OFFCURVE",
"443 351 CURVE SMOOTH",
"443 450 OFFCURVE",
"426 523 OFFCURVE",
"394 580 CURVE SMOOTH",
"350 659 OFFCURVE",
"298 681 OFFCURVE",
"243 681 CURVE SMOOTH",
"49 681 LINE",
"49 1 LINE"
);
},
{
closed = 1;
nodes = (
"114 603 LINE",
"229 603 LINE SMOOTH",
"279 603 OFFCURVE",
"320 579 OFFCURVE",
"342 534 CURVE SMOOTH",
"365 486 OFFCURVE",
"377 418 OFFCURVE",
"377 336 CURVE SMOOTH",
"377 308 OFFCURVE",
"376 298 OFFCURVE",
"372 264 CURVE SMOOTH",
"367 226 OFFCURVE",
"360 193 OFFCURVE",
"344 158 CURVE SMOOTH",
"328 124 OFFCURVE",
"307 100 OFFCURVE",
"283 89 CURVE SMOOTH",
"270 83 OFFCURVE",
"249 78 OFFCURVE",
"230 78 CURVE SMOOTH",
"114 78 LINE"
);
}
);
width = 478;
}
);
note = D;
unicode = 0044;
},
{
glyphname = E;
lastChange = "2019-03-11 07:10:32 +0000";
layers = (
{
layerId = "994FE389-9D54-4FAA-B055-C46A67020E78";
paths = (
{
closed = 1;
nodes = (
"575 0 LINE",
"575 80 LINE",
"160 80 LINE",
"160 313 LINE",
"536 313 LINE",
"536 391 LINE",
"160 391 LINE",
"160 598 LINE",
"568 598 LINE",
"568 682 LINE",
"70 682 LINE",
"70 0 LINE"
);
}
);
width = 625;
},
{
layerId = "CBA2E3C4-6E62-469B-BD2C-D62FAD87CF88";
paths = (
{
closed = 1;
nodes = (
"403 0 LINE",
"403 80 LINE",
"112 80 LINE",
"112 313 LINE",
"375 313 LINE",
"375 391 LINE",
"112 391 LINE",
"112 598 LINE",
"398 598 LINE",
"398 682 LINE",
"49 682 LINE",
"49 0 LINE"
);
}
);
width = 438;
}
);
note = E;
unicode = 0045;
},
{
glyphname = F;
lastChange = "2019-03-11 07:10:32 +0000";
layers = (
{
layerId = "994FE389-9D54-4FAA-B055-C46A67020E78";
paths = (
{
closed = 1;
nodes = (
"162 0 LINE",
"162 309 LINE",
"496 309 LINE",
"496 391 LINE",
"162 391 LINE",
"162 597 LINE",
"542 597 LINE",
"542 681 LINE",
"70 681 LINE",
"70 0 LINE"
);
}
);
width = 592;
},
{
layerId = "CBA2E3C4-6E62-469B-BD2C-D62FAD87CF88";
paths = (
{
closed = 1;
nodes = (
"113 0 LINE",
"113 309 LINE",
"347 309 LINE",
"347 391 LINE",
"113 391 LINE",
"113 597 LINE",
"379 597 LINE",
"379 681 LINE",
"49 681 LINE",
"49 0 LINE"
);
}
);
width = 414;
}
);
note = F;
unicode = 0046;
},
{
glyphname = G;
lastChange = "2019-03-11 07:10:32 +0000";
layers = (
{
layerId = "994FE389-9D54-4FAA-B055-C46A67020E78";
paths = (
{
closed = 1;
nodes = (
"409 -11 OFFCURVE",
"458 -2 OFFCURVE",
"500 23 CURVE SMOOTH",
"521 36 OFFCURVE",
"549 59 OFFCURVE",
"580 92 CURVE",
"602 6 LINE",
"660 6 LINE",
"660 364 LINE",
"366 364 LINE",
"366 288 LINE",
"575 288 LINE",
"574 210 OFFCURVE",
"554 155 OFFCURVE",
"515 118 CURVE SMOOTH",
"476 82 OFFCURVE",
"425 66 OFFCURVE",
"365 66 CURVE SMOOTH",
"286 66 OFFCURVE",
"229 93 OFFCURVE",
"195 142 CURVE SMOOTH",
"160 192 OFFCURVE",
"142 256 OFFCURVE",
"142 336 CURVE SMOOTH",
"142 430 OFFCURVE",
"164 499 OFFCURVE",
"206 543 CURVE SMOOTH",
"249 588 OFFCURVE",
"304 613 OFFCURVE",
"362 613 CURVE SMOOTH",
"414 613 OFFCURVE",
"457 601 OFFCURVE",
"491 579 CURVE SMOOTH",
"526 557 OFFCURVE",
"548 521 OFFCURVE",
"560 472 CURVE",
"649 472 LINE",
"634 560 OFFCURVE",
"594 621 OFFCURVE",
"528 655 CURVE SMOOTH",
"481 679 OFFCURVE",
"430 692 OFFCURVE",
"365 692 CURVE SMOOTH",
"272 692 OFFCURVE",
"198 661 OFFCURVE",
"141 597 CURVE SMOOTH",
"81 530 OFFCURVE",
"50 443 OFFCURVE",
"50 331 CURVE SMOOTH",
"50 217 OFFCURVE",
"81 130 OFFCURVE",
"143 66 CURVE",
"200 15 OFFCURVE",
"268 -11 OFFCURVE",
"348 -11 CURVE SMOOTH"
);
}
);
width = 710;
},
{
layerId = "CBA2E3C4-6E62-469B-BD2C-D62FAD87CF88";
paths = (
{
closed = 1;
nodes = (
"286 -11 OFFCURVE",
"321 -2 OFFCURVE",
"350 23 CURVE SMOOTH",
"365 36 OFFCURVE",
"386 62 OFFCURVE",
"406 92 CURVE",
"421 6 LINE",
"462 6 LINE",
"462 364 LINE",
"256 364 LINE",
"256 288 LINE",
"403 288 LINE",
"402 212 OFFCURVE",
"388 155 OFFCURVE",
"361 119 CURVE SMOOTH",
"333 82 OFFCURVE",
"299 66 OFFCURVE",
"256 66 CURVE SMOOTH",
"200 66 OFFCURVE",
"160 93 OFFCURVE",
"136 143 CURVE SMOOTH",
"112 192 OFFCURVE",
"99 257 OFFCURVE",
"99 336 CURVE SMOOTH",
"99 430 OFFCURVE",
"115 499 OFFCURVE",
"144 543 CURVE SMOOTH",
"174 588 OFFCURVE",
"214 613 OFFCURVE",
"253 613 CURVE SMOOTH",
"289 613 OFFCURVE",
"320 601 OFFCURVE",
"344 579 CURVE SMOOTH",
"368 557 OFFCURVE",
"384 520 OFFCURVE",
"392 472 CURVE",
"454 472 LINE",
"444 558 OFFCURVE",
"416 621 OFFCURVE",
"371 654 CURVE SMOOTH",
"337 679 OFFCURVE",
"301 692 OFFCURVE",
"256 692 CURVE SMOOTH",
"189 692 OFFCURVE",
"139 661 OFFCURVE",
"98 596 CURVE SMOOTH",
"57 530 OFFCURVE",
"35 443 OFFCURVE",
"35 331 CURVE SMOOTH",
"35 216 OFFCURVE",
"57 130 OFFCURVE",
"100 66 CURVE",
"140 15 OFFCURVE",
"188 -11 OFFCURVE",
"244 -11 CURVE SMOOTH"
);
}
);
width = 497;
}
);
note = G;
unicode = 0047;
},
{
glyphname = H;
lastChange = "2019-03-11 07:10:32 +0000";
layers = (
{
layerId = "994FE389-9D54-4FAA-B055-C46A67020E78";
paths = (
{
closed = 1;
nodes = (
"163 0 LINE",
"163 317 LINE",
"516 317 LINE",
"516 0 LINE",
"610 0 LINE",
"610 680 LINE",
"516 680 LINE",
"516 399 LINE",
"163 399 LINE",
"163 680 LINE",
"70 680 LINE",
"70 0 LINE"
);
}
);
width = 680;
},
{
layerId = "CBA2E3C4-6E62-469B-BD2C-D62FAD87CF88";
paths = (
{
closed = 1;
nodes = (
"114 0 LINE",
"114 317 LINE",
"361 317 LINE",
"361 0 LINE",
"427 0 LINE",
"427 680 LINE",
"361 680 LINE",
"361 399 LINE",
"114 399 LINE",
"114 680 LINE",
"49 680 LINE",
"49 0 LINE"
);
}
);
width = 476;
}
);
note = H;
unicode = 0048;
},
{
glyphname = I;
lastChange = "2019-03-11 07:10:32 +0000";
layers = (
{
layerId = "994FE389-9D54-4FAA-B055-C46A67020E78";
paths = (
{
closed = 1;
nodes = (
"133 0 LINE",
"133 683 LINE",
"40 683 LINE",
"40 0 LINE"
);
}
);
width = 173;
},
{
layerId = "CBA2E3C4-6E62-469B-BD2C-D62FAD87CF88";
paths = (
{
closed = 1;
nodes = (
"93 0 LINE",
"93 683 LINE",
"28 683 LINE",
"28 0 LINE"
);
}
);
width = 121;
}
);
note = I;
unicode = 0049;
},
{
glyphname = J;
lastChange = "2019-03-11 07:10:32 +0000";
layers = (
{
layerId = "994FE389-9D54-4FAA-B055-C46A67020E78";
paths = (
{
closed = 1;
nodes = (
"315 -8 OFFCURVE",
"375 16 OFFCURVE",
"410 77 CURVE SMOOTH",
"430 112 OFFCURVE",
"436 156 OFFCURVE",
"436 210 CURVE SMOOTH",
"436 682 LINE",
"346 682 LINE",
"346 234 LINE SMOOTH",
"346 177 OFFCURVE",
"340 137 OFFCURVE",
"332 118 CURVE SMOOTH",
"318 84 OFFCURVE",
"285 67 OFFCURVE",
"237 67 CURVE SMOOTH",
"202 67 OFFCURVE",
"177 77 OFFCURVE",
"160 96 CURVE SMOOTH",
"143 115 OFFCURVE",
"136 142 OFFCURVE",
"136 179 CURVE SMOOTH",
"136 227 LINE",
"50 227 LINE",
"50 179 LINE SMOOTH",
"50 109 OFFCURVE",
"69 61 OFFCURVE",
"104 33 CURVE SMOOTH",
"140 5 OFFCURVE",
"182 -8 OFFCURVE",
"232 -8 CURVE SMOOTH"
);
}
);
width = 506;
},
{
layerId = "CBA2E3C4-6E62-469B-BD2C-D62FAD87CF88";
paths = (
{
closed = 1;
nodes = (
"223 -8 OFFCURVE",
"263 18 OFFCURVE",
"287 77 CURVE SMOOTH",
"301 112 OFFCURVE",
"305 157 OFFCURVE",
"305 210 CURVE SMOOTH",
"305 682 LINE",
"242 682 LINE",
"242 234 LINE SMOOTH",
"242 175 OFFCURVE",
"238 137 OFFCURVE",
"232 117 CURVE SMOOTH",
"223 84 OFFCURVE",
"199 67 OFFCURVE",
"166 67 CURVE SMOOTH",
"141 67 OFFCURVE",
"124 77 OFFCURVE",
"112 96 CURVE SMOOTH",
"100 115 OFFCURVE",
"95 143 OFFCURVE",
"95 179 CURVE SMOOTH",
"95 227 LINE",
"35 227 LINE",
"35 179 LINE SMOOTH",
"35 110 OFFCURVE",
"48 61 OFFCURVE",
"73 33 CURVE SMOOTH",
"98 5 OFFCURVE",
"127 -8 OFFCURVE",
"162 -8 CURVE SMOOTH"
);
}
);
width = 354;
}
);
note = J;
unicode = 004A;
},
{
glyphname = K;
lastChange = "2019-03-11 07:10:32 +0000";
layers = (
{
layerId = "994FE389-9D54-4FAA-B055-C46A67020E78";
paths = (
{
closed = 1;
nodes = (
"160 0 LINE",
"160 237 LINE",
"268 342 LINE",
"508 0 LINE",
"628 0 LINE",
"337 406 LINE",
"620 681 LINE",
"493 681 LINE",
"160 349 LINE",
"160 681 LINE",
"70 681 LINE",
"70 0 LINE"
);
}
);
width = 693;
},
{
layerId = "CBA2E3C4-6E62-469B-BD2C-D62FAD87CF88";
paths = (
{
closed = 1;
nodes = (
"112 0 LINE",
"112 237 LINE",
"188 342 LINE",
"356 0 LINE",
"440 0 LINE",
"236 406 LINE",
"434 681 LINE",
"345 681 LINE",
"112 349 LINE",
"112 681 LINE",
"49 681 LINE",
"49 0 LINE"
);
}
);
width = 485;
}
);
note = K;
unicode = 004B;
},
{
glyphname = L;
lastChange = "2019-03-11 07:10:32 +0000";
layers = (
{
layerId = "994FE389-9D54-4FAA-B055-C46A67020E78";
paths = (
{
closed = 1;
nodes = (
"506 0 LINE",
"506 82 LINE",
"162 82 LINE",
"162 679 LINE",
"70 679 LINE",
"70 0 LINE"
);
}
);
width = 556;
},
{
layerId = "CBA2E3C4-6E62-469B-BD2C-D62FAD87CF88";
paths = (
{
closed = 1;
nodes = (
"354 0 LINE",
"354 82 LINE",
"113 82 LINE",
"113 679 LINE",
"49 679 LINE",
"49 0 LINE"
);
}
);
width = 389;
}
);
note = L;
unicode = 004C;
},
{
glyphname = M;
lastChange = "2019-03-11 07:10:32 +0000";
layers = (
{
layerId = "994FE389-9D54-4FAA-B055-C46A67020E78";
paths = (
{
closed = 1;
nodes = (
"158 1 LINE",
"158 402 LINE SMOOTH",
"158 418 OFFCURVE",
"158 444 OFFCURVE",
"157 478 CURVE SMOOTH",
"156 512 OFFCURVE",
"155 537 OFFCURVE",
"155 554 CURVE SMOOTH",
"155 576 LINE",
"352 1 LINE",
"443 1 LINE",
"638 576 LINE",
"638 472 LINE SMOOTH",
"638 439 OFFCURVE",
"637 416 OFFCURVE",
"637 402 CURVE SMOOTH",
"637 1 LINE",
"723 1 LINE",
"723 681 LINE",
"593 681 LINE",
"398 106 LINE",
"202 681 LINE",
"70 681 LINE",
"70 1 LINE"
);
}
);
width = 793;
},
{
layerId = "CBA2E3C4-6E62-469B-BD2C-D62FAD87CF88";
paths = (
{
closed = 1;
nodes = (
"111 1 LINE",
"111 402 LINE SMOOTH",
"111 416 OFFCURVE",
"111 443 OFFCURVE",
"110 477 CURVE SMOOTH",
"109 511 OFFCURVE",
"109 535 OFFCURVE",
"109 554 CURVE SMOOTH",
"109 576 LINE",
"246 1 LINE",
"310 1 LINE",
"447 576 LINE",
"447 472 LINE SMOOTH",
"447 439 OFFCURVE",
"446 416 OFFCURVE",
"446 402 CURVE SMOOTH",
"446 1 LINE",
"506 1 LINE",
"506 681 LINE",
"415 681 LINE",
"279 106 LINE",
"141 681 LINE",
"49 681 LINE",
"49 1 LINE"
);
}
);
width = 555;
}
);
note = M;
unicode = 004D;
},
{
glyphname = N;
lastChange = "2019-03-11 07:10:32 +0000";
layers = (
{
layerId = "994FE389-9D54-4FAA-B055-C46A67020E78";
paths = (
{
closed = 1;
nodes = (
"159 -2 LINE",
"159 551 LINE",
"509 -2 LINE",
"612 -2 LINE",
"612 682 LINE",
"525 682 LINE",
"525 128 LINE",
"180 682 LINE",
"70 682 LINE",
"70 -2 LINE"
);
}
);
width = 682;
},
{
layerId = "CBA2E3C4-6E62-469B-BD2C-D62FAD87CF88";
paths = (
{
closed = 1;
nodes = (
"111 -2 LINE",
"111 551 LINE",
"356 -2 LINE",
"428 -2 LINE",
"428 682 LINE",
"368 682 LINE",
"368 128 LINE",
"126 682 LINE",
"49 682 LINE",
"49 -2 LINE"
);
}
);
width = 477;
}
);
note = N;
unicode = 004E;
},
{
glyphname = O;
lastChange = "2019-03-11 07:10:32 +0000";
layers = (
{
layerId = "994FE389-9D54-4FAA-B055-C46A67020E78";
paths = (
{
closed = 1;
nodes = (
"472 -10 OFFCURVE",
"556 29 OFFCURVE",
"614 104 CURVE SMOOTH",
"666 171 OFFCURVE",
"689 252 OFFCURVE",
"690 349 CURVE SMOOTH",
"691 423 OFFCURVE",
"668 515 OFFCURVE",
"625 572 CURVE SMOOTH",
"568 646 OFFCURVE",
"483 685 OFFCURVE",
"367 685 CURVE SMOOTH",
"259 685 OFFCURVE",
"173 644 OFFCURVE",
"115 562 CURVE SMOOTH",
"71 499 OFFCURVE",
"50 423 OFFCURVE",
"50 335 CURVE SMOOTH",
"50 236 OFFCURVE",
"75 156 OFFCURVE",
"127 90 CURVE",
"185 24 OFFCURVE",
"265 -10 OFFCURVE",
"365 -10 CURVE SMOOTH"
);
},
{
closed = 1;
nodes = (
"294 70 OFFCURVE",
"235 95 OFFCURVE",
"197 144 CURVE SMOOTH",
"159 194 OFFCURVE",
"142 254 OFFCURVE",
"142 328 CURVE SMOOTH",
"142 415 OFFCURVE",
"162 488 OFFCURVE",
"206 536 CURVE SMOOTH",
"249 583 OFFCURVE",
"308 606 OFFCURVE",
"373 606 CURVE SMOOTH",
"443 606 OFFCURVE",
"497 581 OFFCURVE",
"538 535 CURVE SMOOTH",
"579 488 OFFCURVE",
"598 426 OFFCURVE",
"598 348 CURVE SMOOTH",
"598 275 OFFCURVE",
"581 211 OFFCURVE",
"546 155 CURVE SMOOTH",
"511 97 OFFCURVE",
"454 70 OFFCURVE",
"376 70 CURVE SMOOTH"
);
}
);
width = 740;
},
{
layerId = "CBA2E3C4-6E62-469B-BD2C-D62FAD87CF88";
paths = (
{
closed = 1;
nodes = (
"331 -10 OFFCURVE",
"389 29 OFFCURVE",
"429 103 CURVE SMOOTH",
"466 171 OFFCURVE",
"483 249 OFFCURVE",
"483 349 CURVE SMOOTH",
"483 432 OFFCURVE",
"464 523 OFFCURVE",
"438 571 CURVE SMOOTH",
"398 646 OFFCURVE",
"338 685 OFFCURVE",
"257 685 CURVE SMOOTH",
"182 685 OFFCURVE",
"121 644 OFFCURVE",
"81 563 CURVE SMOOTH",
"50 499 OFFCURVE",
"35 426 OFFCURVE",
"35 335 CURVE SMOOTH",
"35 235 OFFCURVE",
"53 155 OFFCURVE",
"89 90 CURVE",
"130 23 OFFCURVE",
"187 -10 OFFCURVE",
"256 -10 CURVE SMOOTH"
);
},
{
closed = 1;
nodes = (
"207 70 OFFCURVE",
"165 94 OFFCURVE",
"138 144 CURVE SMOOTH",
"111 194 OFFCURVE",
"99 255 OFFCURVE",
"99 328 CURVE SMOOTH",
"99 415 OFFCURVE",
"113 488 OFFCURVE",
"145 537 CURVE SMOOTH",
"174 583 OFFCURVE",
"216 606 OFFCURVE",
"261 606 CURVE SMOOTH",
"309 606 OFFCURVE",
"348 581 OFFCURVE",
"376 536 CURVE SMOOTH",
"405 488 OFFCURVE",
"419 428 OFFCURVE",
"419 348 CURVE SMOOTH",
"419 278 OFFCURVE",
"407 211 OFFCURVE",
"382 154 CURVE SMOOTH",
"358 97 OFFCURVE",
"316 70 OFFCURVE",
"263 70 CURVE SMOOTH"
);
}
);
width = 518;
}
);
note = O;
unicode = 004F;
},
{
glyphname = P;
lastChange = "2019-03-11 07:10:32 +0000";
layers = (
{
layerId = "994FE389-9D54-4FAA-B055-C46A67020E78";
paths = (
{
closed = 1;
nodes = (
"162 0 LINE",
"162 288 LINE",
"377 288 LINE SMOOTH",
"446 288 OFFCURVE",
"497 307 OFFCURVE",
"530 347 CURVE SMOOTH",
"562 386 OFFCURVE",
"580 433 OFFCURVE",
"580 486 CURVE SMOOTH",
"580 548 OFFCURVE",
"561 596 OFFCURVE",
"524 631 CURVE SMOOTH",
"487 666 OFFCURVE",
"438 682 OFFCURVE",
"377 682 CURVE SMOOTH",
"70 682 LINE",
"70 0 LINE"
);
},
{
closed = 1;
nodes = (
"162 603 LINE",
"346 603 LINE SMOOTH",
"382 603 OFFCURVE",
"410 597 OFFCURVE",
"431 588 CURVE SMOOTH",
"468 572 OFFCURVE",
"486 536 OFFCURVE",
"486 486 CURVE SMOOTH",
"486 441 OFFCURVE",
"472 410 OFFCURVE",
"448 392 CURVE SMOOTH",
"423 374 OFFCURVE",
"388 366 OFFCURVE",
"346 366 CURVE SMOOTH",
"162 366 LINE"
);
}
);
width = 630;
},
{
layerId = "CBA2E3C4-6E62-469B-BD2C-D62FAD87CF88";
paths = (
{
closed = 1;
nodes = (
"113 0 LINE",
"113 288 LINE",
"264 288 LINE SMOOTH",
"312 288 OFFCURVE",
"348 307 OFFCURVE",
"371 347 CURVE SMOOTH",
"393 386 OFFCURVE",
"406 432 OFFCURVE",
"406 486 CURVE SMOOTH",
"406 546 OFFCURVE",
"393 596 OFFCURVE",
"367 631 CURVE SMOOTH",
"341 666 OFFCURVE",
"306 682 OFFCURVE",
"264 682 CURVE SMOOTH",
"49 682 LINE",
"49 0 LINE"
);
},
{
closed = 1;
nodes = (
"113 603 LINE",
"242 603 LINE SMOOTH",
"267 603 OFFCURVE",
"287 597 OFFCURVE",
"302 588 CURVE SMOOTH",
"328 572 OFFCURVE",
"340 534 OFFCURVE",
"340 486 CURVE SMOOTH",
"340 442 OFFCURVE",
"330 409 OFFCURVE",
"314 392 CURVE SMOOTH",
"299 376 OFFCURVE",
"273 366 OFFCURVE",
"242 366 CURVE SMOOTH",
"113 366 LINE"
);
}
);
width = 441;
}
);
note = P;
unicode = 0050;
},
{
glyphname = Q;
lastChange = "2019-03-11 07:10:32 +0000";
layers = (
{
layerId = "994FE389-9D54-4FAA-B055-C46A67020E78";
paths = (
{
closed = 1;
nodes = (
"685 15 LINE",
"595 84 LINE",
"632 122 OFFCURVE",
"659 170 OFFCURVE",
"675 230 CURVE SMOOTH",
"685 268 OFFCURVE",
"689 307 OFFCURVE",
"689 352 CURVE SMOOTH",
"689 447 OFFCURVE",
"664 521 OFFCURVE",
"626 573 CURVE SMOOTH",
"569 651 OFFCURVE",
"484 686 OFFCURVE",
"367 686 CURVE SMOOTH",
"256 686 OFFCURVE",
"173 646 OFFCURVE",
"116 565 CURVE SMOOTH",
"72 501 OFFCURVE",
"50 426 OFFCURVE",
"50 337 CURVE SMOOTH",
"50 239 OFFCURVE",
"76 157 OFFCURVE",
"126 93 CURVE",
"184 26 OFFCURVE",
"265 -7 OFFCURVE",
"366 -7 CURVE SMOOTH",
"399 -7 OFFCURVE",
"431 -4 OFFCURVE",
"459 6 CURVE SMOOTH",
"486 15 OFFCURVE",
"514 24 OFFCURVE",
"538 37 CURVE",
"640 -40 LINE"
);
},
{
closed = 1;
nodes = (
"299 72 OFFCURVE",
"241 96 OFFCURVE",
"202 143 CURVE SMOOTH",
"163 190 OFFCURVE",
"142 252 OFFCURVE",
"143 331 CURVE SMOOTH",
"144 425 OFFCURVE",
"163 494 OFFCURVE",
"204 539 CURVE SMOOTH",
"246 585 OFFCURVE",
"302 607 OFFCURVE",
"373 607 CURVE SMOOTH",
"446 607 OFFCURVE",
"499 582 OFFCURVE",
"538 536 CURVE SMOOTH",
"578 490 OFFCURVE",
"599 427 OFFCURVE",
"599 350 CURVE SMOOTH",
"599 315 OFFCURVE",
"594 278 OFFCURVE",
"585 240 CURVE SMOOTH",
"575 201 OFFCURVE",
"556 166 OFFCURVE",
"529 136 CURVE",
"443 203 LINE",
"399 147 LINE",
"471 91 LINE",
"458 84 OFFCURVE",
"444 79 OFFCURVE",
"428 76 CURVE",
"413 74 OFFCURVE",
"394 72 OFFCURVE",
"376 72 CURVE SMOOTH"
);
}
);
width = 739;
},
{
layerId = "CBA2E3C4-6E62-469B-BD2C-D62FAD87CF88";
paths = (
{
closed = 1;
nodes = (
"480 15 LINE",
"416 84 LINE",
"442 120 OFFCURVE",
"463 177 OFFCURVE",
"473 231 CURVE SMOOTH",
"478 257 OFFCURVE",
"482 302 OFFCURVE",
"482 352 CURVE SMOOTH",
"482 445 OFFCURVE",
"465 521 OFFCURVE",
"438 574 CURVE SMOOTH",
"398 651 OFFCURVE",
"338 686 OFFCURVE",
"257 686 CURVE SMOOTH",
"180 686 OFFCURVE",
"121 646 OFFCURVE",
"81 565 CURVE SMOOTH",
"50 501 OFFCURVE",
"35 422 OFFCURVE",
"35 337 CURVE SMOOTH",
"35 241 OFFCURVE",
"53 157 OFFCURVE",
"88 93 CURVE",
"129 26 OFFCURVE",
"186 -7 OFFCURVE",
"256 -7 CURVE SMOOTH",
"280 -7 OFFCURVE",
"302 -4 OFFCURVE",
"321 6 CURVE SMOOTH",
"340 15 OFFCURVE",
"358 23 OFFCURVE",
"377 37 CURVE",
"448 -40 LINE"
);
},
{
closed = 1;
nodes = (
"209 72 OFFCURVE",
"169 96 OFFCURVE",
"142 142 CURVE SMOOTH",
"114 190 OFFCURVE",
"100 252 OFFCURVE",
"100 331 CURVE SMOOTH",
"100 423 OFFCURVE",
"114 494 OFFCURVE",
"142 538 CURVE SMOOTH",
"172 585 OFFCURVE",
"211 607 OFFCURVE",
"261 607 CURVE SMOOTH",
"312 607 OFFCURVE",
"349 582 OFFCURVE",
"376 537 CURVE SMOOTH",
"405 490 OFFCURVE",
"419 426 OFFCURVE",
"419 350 CURVE SMOOTH",
"419 315 OFFCURVE",
"416 278 OFFCURVE",
"409 238 CURVE SMOOTH",
"403 203 OFFCURVE",
"390 167 OFFCURVE",
"370 136 CURVE",
"310 203 LINE",
"279 147 LINE",
"330 91 LINE",
"321 84 OFFCURVE",
"310 78 OFFCURVE",
"300 76 CURVE",
"289 74 OFFCURVE",
"275 72 OFFCURVE",
"263 72 CURVE SMOOTH"
);
}
);
width = 517;
}
);
note = Q;
unicode = 0051;
},
{
glyphname = R;
lastChange = "2019-03-11 07:10:32 +0000";
layers = (
{
layerId = "994FE389-9D54-4FAA-B055-C46A67020E78";
paths = (
{
closed = 1;
nodes = (
"163 0 LINE",
"163 293 LINE",
"373 293 LINE SMOOTH",
"410 293 OFFCURVE",
"437 288 OFFCURVE",
"457 280 CURVE SMOOTH",
"489 267 OFFCURVE",
"504 234 OFFCURVE",
"506 190 CURVE SMOOTH",
"511 76 LINE SMOOTH",
"513 31 OFFCURVE",
"515 30 OFFCURVE",
"516 23 CURVE",
"517 14 OFFCURVE",
"520 6 OFFCURVE",
"523 0 CURVE",
"636 0 LINE",
"636 16 LINE",
"621 22 OFFCURVE",
"611 34 OFFCURVE",
"606 56 CURVE",
"602 69 OFFCURVE",
"600 89 OFFCURVE",
"599 116 CURVE SMOOTH",
"596 206 LINE",
"596 245 OFFCURVE",
"589 275 OFFCURVE",
"575 293 CURVE",
"561 309 OFFCURVE",
"541 324 OFFCURVE",
"514 334 CURVE",
"545 350 OFFCURVE",
"568 371 OFFCURVE",
"584 396 CURVE SMOOTH",
"601 423 OFFCURVE",
"610 457 OFFCURVE",
"610 496 CURVE SMOOTH",
"610 575 OFFCURVE",
"577 628 OFFCURVE",
"514 659 CURVE SMOOTH",
"480 676 OFFCURVE",
"433 680 OFFCURVE",
"386 680 CURVE SMOOTH",
"70 680 LINE",
"70 0 LINE"
);
},
{
closed = 1;
nodes = (
"163 601 LINE",
"388 601 LINE SMOOTH",
"419 601 OFFCURVE",
"445 596 OFFCURVE",
"465 587 CURVE",
"501 573 OFFCURVE",
"516 537 OFFCURVE",
"516 487 CURVE SMOOTH",
"516 444 OFFCURVE",
"504 412 OFFCURVE",
"479 394 CURVE SMOOTH",
"455 376 OFFCURVE",
"419 369 OFFCURVE",
"376 369 CURVE SMOOTH",
"163 369 LINE"
);
}
);
width = 696;
},
{
layerId = "CBA2E3C4-6E62-469B-BD2C-D62FAD87CF88";
paths = (
{
closed = 1;
nodes = (
"114 0 LINE",
"114 293 LINE",
"261 293 LINE SMOOTH",
"287 293 OFFCURVE",
"306 288 OFFCURVE",
"320 280 CURVE SMOOTH",
"342 267 OFFCURVE",
"352 235 OFFCURVE",
"354 190 CURVE SMOOTH",
"358 76 LINE SMOOTH",
"360 31 OFFCURVE",
"361 30 OFFCURVE",
"361 23 CURVE",
"362 10 OFFCURVE",
"364 8 OFFCURVE",
"366 0 CURVE",
"445 0 LINE",
"445 16 LINE",
"435 22 OFFCURVE",
"428 34 OFFCURVE",
"424 56 CURVE",
"421 71 OFFCURVE",
"420 86 OFFCURVE",
"419 116 CURVE SMOOTH",
"417 206 LINE",
"417 247 OFFCURVE",
"412 275 OFFCURVE",
"403 293 CURVE",
"393 309 OFFCURVE",
"377 324 OFFCURVE",
"360 334 CURVE",
"379 348 OFFCURVE",
"398 371 OFFCURVE",
"409 396 CURVE SMOOTH",
"421 423 OFFCURVE",
"427 460 OFFCURVE",
"427 496 CURVE SMOOTH",
"427 574 OFFCURVE",
"404 628 OFFCURVE",
"360 659 CURVE SMOOTH",
"336 676 OFFCURVE",
"303 680 OFFCURVE",
"270 680 CURVE SMOOTH",
"49 680 LINE",
"49 0 LINE"
);
},
{
closed = 1;
nodes = (
"114 601 LINE",
"272 601 LINE SMOOTH",
"294 601 OFFCURVE",
"311 596 OFFCURVE",
"326 587 CURVE",
"351 573 OFFCURVE",
"361 535 OFFCURVE",
"361 487 CURVE SMOOTH",
"361 445 OFFCURVE",
"354 414 OFFCURVE",
"335 394 CURVE SMOOTH",
"316 374 OFFCURVE",
"291 369 OFFCURVE",
"263 369 CURVE SMOOTH",
"114 369 LINE"
);
}
);
width = 487;
}
);
note = R;
unicode = 0052;
},
{
glyphname = S;
lastChange = "2019-03-11 07:10:32 +0000";
layers = (
{
layerId = "994FE389-9D54-4FAA-B055-C46A67020E78";
paths = (
{
closed = 1;
nodes = (
"386 -9 OFFCURVE",
"448 7 OFFCURVE",
"502 37 CURVE SMOOTH",
"556 68 OFFCURVE",
"583 123 OFFCURVE",
"583 197 CURVE SMOOTH",
"583 257 OFFCURVE",
"562 302 OFFCURVE",
"519 333 CURVE SMOOTH",
"493 352 OFFCURVE",
"460 366 OFFCURVE",
"414 376 CURVE SMOOTH",
"321 397 LINE SMOOTH",
"258 411 OFFCURVE",
"217 424 OFFCURVE",
"200 433 CURVE SMOOTH",
"172 447 OFFCURVE",
"158 473 OFFCURVE",
"158 505 CURVE SMOOTH",
"158 536 OFFCURVE",
"169 561 OFFCURVE",
"193 583 CURVE SMOOTH",
"219 606 OFFCURVE",
"255 617 OFFCURVE",
"309 617 CURVE SMOOTH",
"374 617 OFFCURVE",
"421 598 OFFCURVE",
"449 566 CURVE",
"464 547 OFFCURVE",
"473 519 OFFCURVE",
"478 483 CURVE",
"563 483 LINE",
"563 557 OFFCURVE",
"539 612 OFFCURVE",
"490 645 CURVE",
"440 676 OFFCURVE",
"382 696 OFFCURVE",
"312 696 CURVE SMOOTH",
"235 696 OFFCURVE",
"176 676 OFFCURVE",
"135 638 CURVE SMOOTH",
"92 598 OFFCURVE",
"72 549 OFFCURVE",
"72 489 CURVE SMOOTH",
"72 435 OFFCURVE",
"94 392 OFFCURVE",
"137 366 CURVE",
"161 350 OFFCURVE",
"202 333 OFFCURVE",
"261 320 CURVE SMOOTH",
"352 300 LINE SMOOTH",
"395 291 OFFCURVE",
"427 283 OFFCURVE",
"462 259 CURVE SMOOTH",
"481 247 OFFCURVE",
"495 220 OFFCURVE",
"495 183 CURVE SMOOTH",
"495 134 OFFCURVE",
"467 102 OFFCURVE",
"414 83 CURVE SMOOTH",
"386 73 OFFCURVE",
"354 67 OFFCURVE",
"321 67 CURVE SMOOTH",
"244 67 OFFCURVE",
"191 88 OFFCURVE",
"162 133 CURVE SMOOTH",
"146 158 OFFCURVE",
"138 188 OFFCURVE",
"136 226 CURVE",
"50 226 LINE",
"50 155 OFFCURVE",
"72 96 OFFCURVE",
"120 55 CURVE SMOOTH",
"167 14 OFFCURVE",
"232 -9 OFFCURVE",
"314 -9 CURVE SMOOTH"
);
}
);
width = 633;
},
{
layerId = "CBA2E3C4-6E62-469B-BD2C-D62FAD87CF88";
paths = (
{
closed = 1;
nodes = (
"269 -9 OFFCURVE",
"314 7 OFFCURVE",
"350 36 CURVE SMOOTH",
"389 68 OFFCURVE",
"408 121 OFFCURVE",
"408 197 CURVE SMOOTH",
"408 259 OFFCURVE",
"393 302 OFFCURVE",
"363 333 CURVE SMOOTH",
"344 352 OFFCURVE",
"322 366 OFFCURVE",
"290 376 CURVE SMOOTH",
"225 397 LINE SMOOTH",
"181 411 OFFCURVE",
"152 424 OFFCURVE",
"140 433 CURVE SMOOTH",
"120 447 OFFCURVE",
"111 474 OFFCURVE",
"111 505 CURVE SMOOTH",
"111 534 OFFCURVE",
"118 561 OFFCURVE",
"135 583 CURVE SMOOTH",
"153 606 OFFCURVE",
"179 617 OFFCURVE",
"216 617 CURVE SMOOTH",
"261 617 OFFCURVE",
"295 598 OFFCURVE",
"314 566 CURVE",
"325 546 OFFCURVE",
"331 519 OFFCURVE",
"335 483 CURVE",
"394 483 LINE",
"394 558 OFFCURVE",
"377 612 OFFCURVE",
"343 645 CURVE",
"308 676 OFFCURVE",
"267 696 OFFCURVE",
"218 696 CURVE SMOOTH",
"166 696 OFFCURVE",
"123 676 OFFCURVE",
"95 639 CURVE SMOOTH",
"64 598 OFFCURVE",
"50 547 OFFCURVE",
"50 489 CURVE SMOOTH",
"50 434 OFFCURVE",
"66 392 OFFCURVE",
"96 366 CURVE",
"113 350 OFFCURVE",
"141 333 OFFCURVE",
"183 320 CURVE SMOOTH",
"247 300 LINE SMOOTH",
"285 288 OFFCURVE",
"299 284 OFFCURVE",
"323 259 CURVE SMOOTH",
"341 241 OFFCURVE",
"347 214 OFFCURVE",
"347 183 CURVE SMOOTH",
"347 135 OFFCURVE",
"327 102 OFFCURVE",
"290 83 CURVE SMOOTH",
"270 73 OFFCURVE",
"248 67 OFFCURVE",
"225 67 CURVE SMOOTH",
"170 67 OFFCURVE",
"134 88 OFFCURVE",
"113 134 CURVE SMOOTH",
"102 159 OFFCURVE",
"97 188 OFFCURVE",
"95 226 CURVE",
"35 226 LINE",
"35 158 OFFCURVE",
"49 98 OFFCURVE",
"84 55 CURVE SMOOTH",
"117 14 OFFCURVE",
"162 -9 OFFCURVE",
"220 -9 CURVE SMOOTH"
);
}
);
width = 443;
}
);
note = S;
unicode = 0053;
},
{
glyphname = T;
lastChange = "2019-03-11 07:10:32 +0000";
layers = (
{
layerId = "994FE389-9D54-4FAA-B055-C46A67020E78";
paths = (
{
closed = 1;
nodes = (
"371 1 LINE",
"371 600 LINE",
"601 600 LINE",
"601 681 LINE",
"50 681 LINE",
"50 600 LINE",
"280 600 LINE",
"280 1 LINE"
);
}
);
width = 651;
},
{
layerId = "CBA2E3C4-6E62-469B-BD2C-D62FAD87CF88";
paths = (
{
closed = 1;
nodes = (
"260 1 LINE",
"260 600 LINE",
"421 600 LINE",
"421 681 LINE",
"35 681 LINE",
"35 600 LINE",
"196 600 LINE",
"196 1 LINE"
);
}
);
width = 456;
}
);
note = T;
unicode = 0054;
},
{
glyphname = U;
lastChange = "2019-03-11 07:10:32 +0000";
layers = (
{
layerId = "994FE389-9D54-4FAA-B055-C46A67020E78";
paths = (
{
closed = 1;
nodes = (
"418 -5 OFFCURVE",
"492 34 OFFCURVE",
"530 110 CURVE SMOOTH",
"551 152 OFFCURVE",
"561 212 OFFCURVE",
"561 291 CURVE SMOOTH",
"561 648 LINE",
"474 648 LINE",
"474 255 LINE SMOOTH",
"474 208 OFFCURVE",
"466 172 OFFCURVE",
"452 146 CURVE SMOOTH",
"425 96 OFFCURVE",
"376 70 OFFCURVE",
"304 70 CURVE SMOOTH",
"243 70 OFFCURVE",
"198 93 OFFCURVE",
"173 140 CURVE SMOOTH",
"156 170 OFFCURVE",
"147 208 OFFCURVE",
"147 255 CURVE SMOOTH",
"147 648 LINE",
"60 648 LINE",
"60 291 LINE SMOOTH",
"60 232 OFFCURVE",
"60 174 OFFCURVE",
"91 110 CURVE SMOOTH",
"128 33 OFFCURVE",
"204 -5 OFFCURVE",
"310 -5 CURVE SMOOTH"
);
}
);
width = 621;
},
{
layerId = "CBA2E3C4-6E62-469B-BD2C-D62FAD87CF88";
paths = (
{
closed = 1;
nodes = (
"294 -5 OFFCURVE",
"344 34 OFFCURVE",
"371 110 CURVE SMOOTH",
"386 152 OFFCURVE",
"393 214 OFFCURVE",
"393 291 CURVE SMOOTH",
"393 648 LINE",
"332 648 LINE",
"332 255 LINE SMOOTH",
"332 206 OFFCURVE",
"326 172 OFFCURVE",
"316 145 CURVE SMOOTH",
"297 95 OFFCURVE",
"262 70 OFFCURVE",
"213 70 CURVE SMOOTH",
"170 70 OFFCURVE",
"139 93 OFFCURVE",
"121 140 CURVE SMOOTH",
"108 174 OFFCURVE",
"103 212 OFFCURVE",
"103 255 CURVE SMOOTH",
"103 648 LINE",
"42 648 LINE",
"42 291 LINE SMOOTH",
"42 238 OFFCURVE",
"42 174 OFFCURVE",
"64 109 CURVE SMOOTH",
"90 33 OFFCURVE",
"143 -5 OFFCURVE",
"217 -5 CURVE SMOOTH"
);
}
);
width = 435;
}
);
note = U;
unicode = 0055;
},
{
glyphname = V;
lastChange = "2019-03-11 07:10:32 +0000";
layers = (
{
layerId = "994FE389-9D54-4FAA-B055-C46A67020E78";
paths = (
{
closed = 1;
nodes = (
"403 0 LINE",
"652 680 LINE",
"549 680 LINE",
"355 102 LINE",
"161 680 LINE",
"60 680 LINE",
"307 0 LINE"
);
}
);
width = 712;
},
{
layerId = "CBA2E3C4-6E62-469B-BD2C-D62FAD87CF88";
paths = (
{
closed = 1;
nodes = (
"282 0 LINE",
"456 680 LINE",
"384 680 LINE",
"249 102 LINE",
"113 680 LINE",
"42 680 LINE",
"215 0 LINE"
);
}
);
width = 498;
}
);
note = V;
unicode = 0056;
},
{
glyphname = W;
lastChange = "2019-03-11 07:10:32 +0000";
layers = (
{
layerId = "994FE389-9D54-4FAA-B055-C46A67020E78";
paths = (
{
closed = 1;
nodes = (
"326 0 LINE",
"484 566 LINE",
"642 0 LINE",
"740 0 LINE",
"920 684 LINE",
"818 684 LINE",
"689 128 LINE",
"535 684 LINE",
"433 684 LINE",
"280 128 LINE",
"150 684 LINE",
"50 684 LINE",
"230 0 LINE"
);
}
);
width = 970;
},
{
layerId = "CBA2E3C4-6E62-469B-BD2C-D62FAD87CF88";
paths = (
{
closed = 1;
nodes = (
"228 0 LINE",
"339 566 LINE",
"449 0 LINE",
"518 0 LINE",
"644 684 LINE",
"573 684 LINE",
"482 128 LINE",
"375 684 LINE",
"303 684 LINE",
"196 128 LINE",
"105 684 LINE",
"35 684 LINE",
"161 0 LINE"
);
}
);
width = 679;
}
);
note = W;
unicode = 0057;
},
{
glyphname = X;
lastChange = "2019-03-11 07:10:32 +0000";
layers = (
{
layerId = "994FE389-9D54-4FAA-B055-C46A67020E78";
paths = (
{
closed = 1;
nodes = (
"162 0 LINE",
"353 283 LINE",
"537 0 LINE",
"653 0 LINE",
"411 351 LINE",
"641 686 LINE",
"531 686 LINE",
"357 424 LINE",
"181 686 LINE",
"65 686 LINE",
"297 351 LINE",
"50 0 LINE"
);
}
);
width = 703;
},
{
layerId = "CBA2E3C4-6E62-469B-BD2C-D62FAD87CF88";
paths = (
{
closed = 1;
nodes = (
"113 0 LINE",
"247 283 LINE",
"376 0 LINE",
"457 0 LINE",
"288 351 LINE",
"449 686 LINE",
"372 686 LINE",
"250 424 LINE",
"127 686 LINE",
"46 686 LINE",
"208 351 LINE",
"35 0 LINE"
);
}
);
width = 492;
}
);
note = X;
unicode = 0058;
},
{
glyphname = Y;
lastChange = "2019-03-11 07:10:32 +0000";
layers = (
{
layerId = "994FE389-9D54-4FAA-B055-C46A67020E78";
paths = (
{
closed = 1;
nodes = (
"382 0 LINE",
"382 262 LINE",
"628 649 LINE",
"524 649 LINE",
"339 337 LINE",
"153 649 LINE",
"50 649 LINE",
"294 262 LINE",
"294 0 LINE"
);
}
);
width = 678;
},
{
layerId = "CBA2E3C4-6E62-469B-BD2C-D62FAD87CF88";
paths = (
{
closed = 1;
nodes = (
"267 0 LINE",
"267 262 LINE",
"440 649 LINE",
"367 649 LINE",
"237 337 LINE",
"107 649 LINE",
"35 649 LINE",
"206 262 LINE",
"206 0 LINE"
);
}
);
width = 475;
}
);
note = Y;
unicode = 0059;
},
{
glyphname = Z;
lastChange = "2019-03-11 07:10:32 +0000";
layers = (
{
layerId = "994FE389-9D54-4FAA-B055-C46A67020E78";
paths = (
{
closed = 1;
nodes = (
"586 1 LINE",
"586 83 LINE",
"166 83 LINE",
"586 602 LINE",
"586 681 LINE",
"80 681 LINE",
"80 600 LINE",
"467 600 LINE",
"50 78 LINE",
"50 1 LINE"
);
}
);
width = 636;
},
{
layerId = "CBA2E3C4-6E62-469B-BD2C-D62FAD87CF88";
paths = (
{
closed = 1;
nodes = (
"410 1 LINE",
"410 83 LINE",
"116 83 LINE",
"410 602 LINE",
"410 681 LINE",
"56 681 LINE",
"56 600 LINE",
"327 600 LINE",
"35 78 LINE",
"35 1 LINE"
);
}
);
width = 445;
}
);
note = Z;
unicode = 005A;
},
{
glyphname = a;
lastChange = "2019-03-11 07:10:32 +0000";
layers = (
{
layerId = "994FE389-9D54-4FAA-B055-C46A67020E78";
paths = (
{
closed = 1;
nodes = (
"263 -11 OFFCURVE",
"298 -1 OFFCURVE",
"334 17 CURVE SMOOTH",
"349 25 OFFCURVE",
"394 53 OFFCURVE",
"409 76 CURVE",
"412 56 OFFCURVE",
"418 40 OFFCURVE",
"425 29 CURVE SMOOTH",
"439 8 OFFCURVE",
"460 -3 OFFCURVE",
"490 -3 CURVE SMOOTH",
"503 -3 OFFCURVE",
"512 -3 OFFCURVE",
"519 -2 CURVE SMOOTH",
"526 -1 OFFCURVE",
"539 1 OFFCURVE",
"551 6 CURVE",
"551 70 LINE",
"535 67 LINE SMOOTH",
"530 66 OFFCURVE",
"527 66 OFFCURVE",
"523 66 CURVE SMOOTH",
"510 66 OFFCURVE",
"502 70 OFFCURVE",
"497 75 CURVE SMOOTH",
"491 81 OFFCURVE",
"492 87 OFFCURVE",
"492 96 CURVE SMOOTH",
"492 395 LINE SMOOTH",
"492 446 OFFCURVE",
"475 483 OFFCURVE",
"436 505 CURVE SMOOTH",
"398 526 OFFCURVE",
"349 541 OFFCURVE",
"288 541 CURVE SMOOTH",
"233 541 OFFCURVE",
"188 526 OFFCURVE",
"148 502 CURVE SMOOTH",
"108 478 OFFCURVE",
"87 433 OFFCURVE",
"85 369 CURVE",
"167 369 LINE",
"170 394 OFFCURVE",
"177 415 OFFCURVE",
"188 429 CURVE SMOOTH",
"207 454 OFFCURVE",
"238 466 OFFCURVE",
"286 466 CURVE SMOOTH",
"325 466 OFFCURVE",
"355 459 OFFCURVE",
"377 446 CURVE",
"398 435 OFFCURVE",
"408 410 OFFCURVE",
"408 382 CURVE SMOOTH",
"408 368 OFFCURVE",
"405 356 OFFCURVE",
"401 348 CURVE",
"397 331 OFFCURVE",
"383 324 OFFCURVE",
"363 321 CURVE SMOOTH",
"223 303 LINE SMOOTH",
"183 298 OFFCURVE",
"142 292 OFFCURVE",
"104 256 CURVE SMOOTH",
"76 230 OFFCURVE",
"60 196 OFFCURVE",
"60 142 CURVE SMOOTH",
"60 100 OFFCURVE",
"74 62 OFFCURVE",
"105 36 CURVE",
"138 6 OFFCURVE",
"175 -11 OFFCURVE",
"224 -11 CURVE SMOOTH"
);
},
{
closed = 1;
nodes = (
"219 64 OFFCURVE",
"197 70 OFFCURVE",
"178 86 CURVE SMOOTH",
"159 101 OFFCURVE",
"149 120 OFFCURVE",
"149 145 CURVE SMOOTH",
"149 179 OFFCURVE",
"165 203 OFFCURVE",
"191 216 CURVE",
"207 225 OFFCURVE",
"231 232 OFFCURVE",
"261 237 CURVE SMOOTH",
"317 246 LINE",
"331 247 OFFCURVE",
"348 251 OFFCURVE",
"365 255 CURVE",
"382 258 OFFCURVE",
"397 265 OFFCURVE",
"405 273 CURVE",
"405 203 LINE SMOOTH",
"405 147 OFFCURVE",
"381 111 OFFCURVE",
"333 85 CURVE SMOOTH",
"306 70 OFFCURVE",
"275 64 OFFCURVE",
"243 64 CURVE SMOOTH"
);
}
);
width = 611;
},
{
layerId = "CBA2E3C4-6E62-469B-BD2C-D62FAD87CF88";
paths = (
{
closed = 1;
nodes = (
"183 -11 OFFCURVE",
"209 -1 OFFCURVE",
"234 17 CURVE SMOOTH",
"241 22 OFFCURVE",
"267 43 OFFCURVE",
"286 76 CURVE",
"289 54 OFFCURVE",
"292 41 OFFCURVE",
"298 28 CURVE SMOOTH",
"307 8 OFFCURVE",
"323 -3 OFFCURVE",
"343 -3 CURVE SMOOTH",
"353 -3 OFFCURVE",
"358 -3 OFFCURVE",
"363 -2 CURVE SMOOTH",
"368 -1 OFFCURVE",
"376 1 OFFCURVE",
"386 6 CURVE",
"386 70 LINE",
"374 67 LINE SMOOTH",
"371 66 OFFCURVE",
"368 66 OFFCURVE",
"366 66 CURVE SMOOTH",
"357 66 OFFCURVE",
"351 70 OFFCURVE",
"348 75 CURVE SMOOTH",
"344 81 OFFCURVE",
"344 81 OFFCURVE",
"344 96 CURVE SMOOTH",
"344 395 LINE SMOOTH",
"344 445 OFFCURVE",
"334 481 OFFCURVE",
"305 505 CURVE SMOOTH",
"279 526 OFFCURVE",
"244 541 OFFCURVE",
"202 541 CURVE SMOOTH",
"165 541 OFFCURVE",
"131 526 OFFCURVE",
"103 502 CURVE SMOOTH",
"78 481 OFFCURVE",
"61 433 OFFCURVE",
"60 369 CURVE",
"117 369 LINE",
"119 394 OFFCURVE",
"124 415 OFFCURVE",
"131 428 CURVE SMOOTH",
"145 454 OFFCURVE",
"166 466 OFFCURVE",
"200 466 CURVE SMOOTH",
"228 466 OFFCURVE",
"248 459 OFFCURVE",
"264 446 CURVE",
"279 435 OFFCURVE",
"286 408 OFFCURVE",
"286 382 CURVE SMOOTH",
"286 370 OFFCURVE",
"284 358 OFFCURVE",
"281 348 CURVE",
"278 331 OFFCURVE",
"267 323 OFFCURVE",
"254 321 CURVE SMOOTH",
"156 303 LINE SMOOTH",
"127 298 OFFCURVE",
"99 292 OFFCURVE",
"72 255 CURVE SMOOTH",
"53 230 OFFCURVE",
"42 194 OFFCURVE",
"42 142 CURVE SMOOTH",
"42 100 OFFCURVE",
"52 62 OFFCURVE",
"74 36 CURVE",
"97 6 OFFCURVE",
"122 -11 OFFCURVE",
"157 -11 CURVE SMOOTH"
);
},
{
closed = 1;
nodes = (
"152 64 OFFCURVE",
"138 70 OFFCURVE",
"125 86 CURVE SMOOTH",
"109 104 OFFCURVE",
"104 122 OFFCURVE",
"104 145 CURVE SMOOTH",
"104 175 OFFCURVE",
"113 201 OFFCURVE",
"134 216 CURVE",
"145 225 OFFCURVE",
"162 232 OFFCURVE",
"183 237 CURVE SMOOTH",
"222 246 LINE",
"228 247 OFFCURVE",
"242 250 OFFCURVE",
"256 255 CURVE",
"267 258 OFFCURVE",
"277 265 OFFCURVE",
"284 273 CURVE",
"284 203 LINE SMOOTH",
"284 155 OFFCURVE",
"272 115 OFFCURVE",
"233 85 CURVE SMOOTH",
"214 70 OFFCURVE",
"193 64 OFFCURVE",
"170 64 CURVE SMOOTH"
);
}
);
width = 428;
}
);
note = a;
unicode = 0061;
},
{
glyphname = b;
lastChange = "2019-03-11 07:10:32 +0000";
layers = (
{
layerId = "994FE389-9D54-4FAA-B055-C46A67020E78";
paths = (
{
closed = 1;
nodes = (
"381 -16 OFFCURVE",
"436 10 OFFCURVE",
"476 67 CURVE SMOOTH",
"514 123 OFFCURVE",
"536 190 OFFCURVE",
"536 274 CURVE SMOOTH",
"536 366 OFFCURVE",
"516 433 OFFCURVE",
"476 475 CURVE SMOOTH",
"433 520 OFFCURVE",
"380 542 OFFCURVE",
"316 542 CURVE SMOOTH",
"285 542 OFFCURVE",
"255 535 OFFCURVE",
"227 522 CURVE SMOOTH",
"200 509 OFFCURVE",
"176 491 OFFCURVE",
"158 465 CURVE",
"158 727 LINE",
"70 727 LINE",
"70 0 LINE",
"152 0 LINE",
"152 69 LINE",
"172 43 OFFCURVE",
"190 24 OFFCURVE",
"206 12 CURVE",
"235 -8 OFFCURVE",
"268 -16 OFFCURVE",
"309 -16 CURVE SMOOTH"
);
},
{
closed = 1;
nodes = (
"239 63 OFFCURVE",
"195 91 OFFCURVE",
"171 148 CURVE SMOOTH",
"158 179 OFFCURVE",
"152 219 OFFCURVE",
"152 270 CURVE SMOOTH",
"152 338 OFFCURVE",
"169 387 OFFCURVE",
"198 418 CURVE SMOOTH",
"228 450 OFFCURVE",
"265 464 OFFCURVE",
"306 464 CURVE SMOOTH",
"353 464 OFFCURVE",
"387 446 OFFCURVE",
"412 408 CURVE SMOOTH",
"436 372 OFFCURVE",
"446 326 OFFCURVE",
"446 270 CURVE SMOOTH",
"446 207 OFFCURVE",
"435 156 OFFCURVE",
"412 117 CURVE SMOOTH",
"389 79 OFFCURVE",
"352 63 OFFCURVE",
"304 63 CURVE SMOOTH"
);
}
);
width = 586;
},
{
layerId = "CBA2E3C4-6E62-469B-BD2C-D62FAD87CF88";
paths = (
{
closed = 1;
nodes = (
"267 -16 OFFCURVE",
"305 10 OFFCURVE",
"333 67 CURVE SMOOTH",
"360 123 OFFCURVE",
"375 190 OFFCURVE",
"375 274 CURVE SMOOTH",
"375 365 OFFCURVE",
"361 433 OFFCURVE",
"334 474 CURVE SMOOTH",
"303 520 OFFCURVE",
"266 542 OFFCURVE",
"221 542 CURVE SMOOTH",
"200 542 OFFCURVE",
"178 535 OFFCURVE",
"159 522 CURVE SMOOTH",
"140 509 OFFCURVE",
"123 491 OFFCURVE",
"111 465 CURVE",
"111 727 LINE",
"49 727 LINE",
"49 0 LINE",
"106 0 LINE",
"106 69 LINE",
"123 39 OFFCURVE",
"132 26 OFFCURVE",
"144 12 CURVE",
"165 -8 OFFCURVE",
"187 -16 OFFCURVE",
"216 -16 CURVE SMOOTH"
);
},
{
closed = 1;
nodes = (
"166 63 OFFCURVE",
"136 93 OFFCURVE",
"120 147 CURVE SMOOTH",
"111 179 OFFCURVE",
"106 214 OFFCURVE",
"106 270 CURVE SMOOTH",
"106 336 OFFCURVE",
"118 387 OFFCURVE",
"138 417 CURVE SMOOTH",
"160 450 OFFCURVE",
"184 464 OFFCURVE",
"214 464 CURVE SMOOTH",
"246 464 OFFCURVE",
"271 446 OFFCURVE",
"288 409 CURVE SMOOTH",
"305 372 OFFCURVE",
"312 328 OFFCURVE",
"312 270 CURVE SMOOTH",
"312 214 OFFCURVE",
"306 159 OFFCURVE",
"288 116 CURVE SMOOTH",
"272 79 OFFCURVE",
"246 63 OFFCURVE",
"213 63 CURVE SMOOTH"
);
}
);
width = 410;
}
);
leftKerningGroup = b;
note = b;
rightKerningGroup = o;
unicode = 0062;
},
{
glyphname = c;
lastChange = "2019-03-11 07:10:32 +0000";
layers = (
{
layerId = "994FE389-9D54-4FAA-B055-C46A67020E78";
paths = (
{
closed = 1;
nodes = (
"335 -9 OFFCURVE",
"384 6 OFFCURVE",
"422 38 CURVE SMOOTH",
"461 71 OFFCURVE",
"486 120 OFFCURVE",
"495 190 CURVE",
"410 190 LINE",
"402 152 OFFCURVE",
"386 121 OFFCURVE",
"366 99 CURVE SMOOTH",
"345 76 OFFCURVE",
"315 66 OFFCURVE",
"280 66 CURVE SMOOTH",
"238 66 OFFCURVE",
"197 81 OFFCURVE",
"175 118 CURVE SMOOTH",
"155 151 OFFCURVE",
"142 197 OFFCURVE",
"142 250 CURVE SMOOTH",
"142 302 OFFCURVE",
"151 346 OFFCURVE",
"166 381 CURVE SMOOTH",
"191 436 OFFCURVE",
"230 463 OFFCURVE",
"285 463 CURVE SMOOTH",
"325 463 OFFCURVE",
"355 451 OFFCURVE",
"375 430 CURVE SMOOTH",
"394 410 OFFCURVE",
"405 383 OFFCURVE",
"410 351 CURVE",
"495 351 LINE",
"488 421 OFFCURVE",
"464 469 OFFCURVE",
"428 499 CURVE SMOOTH",
"395 528 OFFCURVE",
"345 540 OFFCURVE",
"285 540 CURVE SMOOTH",
"219 540 OFFCURVE",
"161 517 OFFCURVE",
"115 466 CURVE SMOOTH",
"72 418 OFFCURVE",
"50 346 OFFCURVE",
"50 251 CURVE SMOOTH",
"50 176 OFFCURVE",
"69 114 OFFCURVE",
"110 66 CURVE SMOOTH",
"151 17 OFFCURVE",
"206 -9 OFFCURVE",
"274 -9 CURVE SMOOTH"
);
}
);
width = 555;
},
{
layerId = "CBA2E3C4-6E62-469B-BD2C-D62FAD87CF88";
paths = (
{
closed = 1;
nodes = (
"236 -9 OFFCURVE",
"269 6 OFFCURVE",
"297 40 CURVE SMOOTH",
"323 71 OFFCURVE",
"341 124 OFFCURVE",
"347 190 CURVE",
"287 190 LINE",
"281 149 OFFCURVE",
"268 117 OFFCURVE",
"257 100 CURVE SMOOTH",
"243 78 OFFCURVE",
"223 66 OFFCURVE",
"196 66 CURVE SMOOTH",
"166 66 OFFCURVE",
"138 81 OFFCURVE",
"122 119 CURVE SMOOTH",
"109 150 OFFCURVE",
"99 196 OFFCURVE",
"99 250 CURVE SMOOTH",
"99 302 OFFCURVE",
"106 348 OFFCURVE",
"116 380 CURVE SMOOTH",
"134 436 OFFCURVE",
"160 463 OFFCURVE",
"200 463 CURVE SMOOTH",
"225 463 OFFCURVE",
"248 452 OFFCURVE",
"262 431 CURVE SMOOTH",
"276 410 OFFCURVE",
"284 381 OFFCURVE",
"287 351 CURVE",
"347 351 LINE",
"342 421 OFFCURVE",
"324 469 OFFCURVE",
"299 500 CURVE SMOOTH",
"276 528 OFFCURVE",
"241 540 OFFCURVE",
"200 540 CURVE SMOOTH",
"154 540 OFFCURVE",
"113 517 OFFCURVE",
"81 467 CURVE SMOOTH",
"50 418 OFFCURVE",
"35 344 OFFCURVE",
"35 251 CURVE SMOOTH",
"35 178 OFFCURVE",
"48 114 OFFCURVE",
"77 66 CURVE SMOOTH",
"106 17 OFFCURVE",
"144 -9 OFFCURVE",
"192 -9 CURVE SMOOTH"
);
}
);
width = 389;
}
);
leftKerningGroup = o;
note = c;
rightKerningGroup = o;
unicode = 0063;
},
{
glyphname = d;
lastChange = "2019-03-11 07:10:32 +0000";
layers = (
{
layerId = "994FE389-9D54-4FAA-B055-C46A67020E78";
paths = (
{
closed = 1;
nodes = (
"315 -17 OFFCURVE",
"347 -12 OFFCURVE",
"375 5 CURVE",
"403 20 OFFCURVE",
"426 42 OFFCURVE",
"449 76 CURVE",
"449 0 LINE",
"527 0 LINE",
"527 726 LINE",
"442 726 LINE",
"442 460 LINE",
"426 479 OFFCURVE",
"406 500 OFFCURVE",
"388 513 CURVE SMOOTH",
"364 531 OFFCURVE",
"324 536 OFFCURVE",
"286 536 CURVE SMOOTH",
"215 536 OFFCURVE",
"160 510 OFFCURVE",
"120 454 CURVE SMOOTH",
"79 396 OFFCURVE",
"60 332 OFFCURVE",
"60 255 CURVE SMOOTH",
"60 173 OFFCURVE",
"84 106 OFFCURVE",
"125 57 CURVE SMOOTH",
"167 7 OFFCURVE",
"219 -17 OFFCURVE",
"277 -17 CURVE SMOOTH"
);
},
{
closed = 1;
nodes = (
"252 60 OFFCURVE",
"213 79 OFFCURVE",
"191 117 CURVE SMOOTH",
"168 157 OFFCURVE",
"153 203 OFFCURVE",
"153 259 CURVE SMOOTH",
"153 324 OFFCURVE",
"168 376 OFFCURVE",
"194 409 CURVE SMOOTH",
"223 446 OFFCURVE",
"260 460 OFFCURVE",
"305 460 CURVE SMOOTH",
"344 460 OFFCURVE",
"376 444 OFFCURVE",
"404 413 CURVE SMOOTH",
"433 381 OFFCURVE",
"446 332 OFFCURVE",
"446 265 CURVE SMOOTH",
"446 200 OFFCURVE",
"431 148 OFFCURVE",
"406 114 CURVE SMOOTH",
"380 77 OFFCURVE",
"346 60 OFFCURVE",
"305 60 CURVE SMOOTH"
);
}
);
width = 597;
},
{
layerId = "CBA2E3C4-6E62-469B-BD2C-D62FAD87CF88";
paths = (
{
closed = 1;
nodes = (
"220 -17 OFFCURVE",
"243 -12 OFFCURVE",
"263 5 CURVE",
"282 20 OFFCURVE",
"298 41 OFFCURVE",
"314 76 CURVE",
"314 0 LINE",
"369 0 LINE",
"369 726 LINE",
"309 726 LINE",
"309 460 LINE",
"297 481 OFFCURVE",
"286 497 OFFCURVE",
"271 513 CURVE SMOOTH",
"253 532 OFFCURVE",
"227 536 OFFCURVE",
"200 536 CURVE SMOOTH",
"151 536 OFFCURVE",
"112 510 OFFCURVE",
"84 454 CURVE SMOOTH",
"55 396 OFFCURVE",
"42 330 OFFCURVE",
"42 255 CURVE SMOOTH",
"42 172 OFFCURVE",
"59 106 OFFCURVE",
"88 56 CURVE SMOOTH",
"117 7 OFFCURVE",
"154 -17 OFFCURVE",
"194 -17 CURVE SMOOTH"
);
},
{
closed = 1;
nodes = (
"177 60 OFFCURVE",
"149 79 OFFCURVE",
"134 116 CURVE SMOOTH",
"118 157 OFFCURVE",
"107 201 OFFCURVE",
"107 259 CURVE SMOOTH",
"107 327 OFFCURVE",
"118 376 OFFCURVE",
"136 409 CURVE SMOOTH",
"156 446 OFFCURVE",
"182 460 OFFCURVE",
"214 460 CURVE SMOOTH",
"241 460 OFFCURVE",
"263 444 OFFCURVE",
"282 414 CURVE SMOOTH",
"303 381 OFFCURVE",
"312 335 OFFCURVE",
"312 265 CURVE SMOOTH",
"312 198 OFFCURVE",
"302 150 OFFCURVE",
"284 114 CURVE SMOOTH",
"266 77 OFFCURVE",
"243 60 OFFCURVE",
"214 60 CURVE SMOOTH"
);
}
);
width = 418;
}
);
leftKerningGroup = o;
note = d;
rightKerningGroup = d;
unicode = 0064;
},
{
glyphname = e;
lastChange = "2019-03-11 07:10:32 +0000";
layers = (
{
layerId = "994FE389-9D54-4FAA-B055-C46A67020E78";
paths = (
{
closed = 1;
nodes = (
"316 -9 OFFCURVE",
"339 -7 OFFCURVE",
"362 -2 CURVE SMOOTH",
"400 7 OFFCURVE",
"432 24 OFFCURVE",
"459 50 CURVE",
"474 66 OFFCURVE",
"489 84 OFFCURVE",
"501 106 CURVE SMOOTH",
"514 130 OFFCURVE",
"521 152 OFFCURVE",
"523 172 CURVE",
"438 172 LINE",
"432 148 OFFCURVE",
"421 127 OFFCURVE",
"406 110 CURVE SMOOTH",
"379 80 OFFCURVE",
"342 66 OFFCURVE",
"297 66 CURVE SMOOTH",
"249 66 OFFCURVE",
"212 82 OFFCURVE",
"190 113 CURVE SMOOTH",
"165 147 OFFCURVE",
"153 187 OFFCURVE",
"152 240 CURVE",
"530 240 LINE",
"530 291 OFFCURVE",
"528 329 OFFCURVE",
"522 353 CURVE",
"517 387 OFFCURVE",
"507 418 OFFCURVE",
"489 444 CURVE SMOOTH",
"470 472 OFFCURVE",
"445 495 OFFCURVE",
"410 511 CURVE SMOOTH",
"376 527 OFFCURVE",
"339 536 OFFCURVE",
"303 536 CURVE SMOOTH",
"230 536 OFFCURVE",
"172 511 OFFCURVE",
"127 459 CURVE SMOOTH",
"82 408 OFFCURVE",
"60 339 OFFCURVE",
"60 257 CURVE SMOOTH",
"60 173 OFFCURVE",
"82 106 OFFCURVE",
"126 61 CURVE SMOOTH",
"171 14 OFFCURVE",
"226 -9 OFFCURVE",
"290 -9 CURVE SMOOTH"
);
},
{
closed = 1;
nodes = (
"156 353 OFFCURVE",
"171 388 OFFCURVE",
"199 418 CURVE SMOOTH",
"226 447 OFFCURVE",
"258 460 OFFCURVE",
"298 460 CURVE SMOOTH",
"355 460 OFFCURVE",
"397 438 OFFCURVE",
"418 399 CURVE SMOOTH",
"429 378 OFFCURVE",
"438 347 OFFCURVE",
"442 309 CURVE",
"154 309 LINE"
);
}
);
width = 590;
},
{
layerId = "CBA2E3C4-6E62-469B-BD2C-D62FAD87CF88";
paths = (
{
closed = 1;
nodes = (
"223 -9 OFFCURVE",
"237 -7 OFFCURVE",
"253 -2 CURVE SMOOTH",
"282 8 OFFCURVE",
"302 24 OFFCURVE",
"321 50 CURVE",
"330 62 OFFCURVE",
"345 90 OFFCURVE",
"351 106 CURVE SMOOTH",
"359 127 OFFCURVE",
"365 154 OFFCURVE",
"366 172 CURVE",
"307 172 LINE",
"302 146 OFFCURVE",
"295 127 OFFCURVE",
"284 110 CURVE SMOOTH",
"265 80 OFFCURVE",
"240 66 OFFCURVE",
"208 66 CURVE SMOOTH",
"174 66 OFFCURVE",
"148 82 OFFCURVE",
"133 113 CURVE SMOOTH",
"115 148 OFFCURVE",
"107 188 OFFCURVE",
"106 240 CURVE",
"371 240 LINE",
"371 285 OFFCURVE",
"370 327 OFFCURVE",
"365 353 CURVE",
"362 387 OFFCURVE",
"356 415 OFFCURVE",
"342 444 CURVE SMOOTH",
"329 472 OFFCURVE",
"313 494 OFFCURVE",
"287 511 CURVE SMOOTH",
"263 527 OFFCURVE",
"238 536 OFFCURVE",
"212 536 CURVE SMOOTH",
"160 536 OFFCURVE",
"121 511 OFFCURVE",
"89 459 CURVE SMOOTH",
"56 405 OFFCURVE",
"42 337 OFFCURVE",
"42 257 CURVE SMOOTH",
"42 176 OFFCURVE",
"57 106 OFFCURVE",
"88 61 CURVE SMOOTH",
"120 14 OFFCURVE",
"158 -9 OFFCURVE",
"203 -9 CURVE SMOOTH"
);
},
{
closed = 1;
nodes = (
"109 353 OFFCURVE",
"120 388 OFFCURVE",
"140 419 CURVE SMOOTH",
"158 447 OFFCURVE",
"181 460 OFFCURVE",
"209 460 CURVE SMOOTH",
"249 460 OFFCURVE",
"278 438 OFFCURVE",
"293 398 CURVE SMOOTH",
"299 382 OFFCURVE",
"307 347 OFFCURVE",
"309 309 CURVE",
"108 309 LINE"
);
}
);
width = 413;
}
);
leftKerningGroup = o;
note = e;
rightKerningGroup = o;
unicode = 0065;
},
{
glyphname = f;
lastChange = "2019-03-11 07:10:32 +0000";
layers = (
{
layerId = "994FE389-9D54-4FAA-B055-C46A67020E78";
paths = (
{
closed = 1;
nodes = (
"209 0 LINE",
"209 448 LINE",
"298 448 LINE",
"298 518 LINE",
"210 518 LINE",
"210 575 OFFCURVE",
"212 608 OFFCURVE",
"219 624 CURVE",
"227 639 OFFCURVE",
"239 646 OFFCURVE",
"266 646 CURVE SMOOTH",
"277 646 LINE SMOOTH",
"282 646 OFFCURVE",
"289 645 OFFCURVE",
"298 644 CURVE",
"298 724 LINE",
"289 725 OFFCURVE",
"283 724 OFFCURVE",
"277 726 CURVE",
"271 727 OFFCURVE",
"266 726 OFFCURVE",
"259 726 CURVE SMOOTH",
"201 726 OFFCURVE",
"162 710 OFFCURVE",
"142 680 CURVE SMOOTH",
"131 664 OFFCURVE",
"125 637 OFFCURVE",
"123 599 CURVE",
"123 518 LINE",
"50 518 LINE",
"50 448 LINE",
"123 448 LINE",
"123 0 LINE"
);
}
);
width = 348;
},
{
layerId = "CBA2E3C4-6E62-469B-BD2C-D62FAD87CF88";
paths = (
{
closed = 1;
nodes = (
"146 0 LINE",
"146 448 LINE",
"209 448 LINE",
"209 518 LINE",
"147 518 LINE",
"147 569 OFFCURVE",
"148 607 OFFCURVE",
"153 624 CURVE",
"159 639 OFFCURVE",
"168 646 OFFCURVE",
"186 646 CURVE SMOOTH",
"194 646 LINE SMOOTH",
"198 646 OFFCURVE",
"202 645 OFFCURVE",
"209 644 CURVE",
"209 724 LINE",
"202 725 OFFCURVE",
"198 724 OFFCURVE",
"194 726 CURVE",
"190 727 OFFCURVE",
"186 726 OFFCURVE",
"181 726 CURVE SMOOTH",
"141 726 OFFCURVE",
"113 710 OFFCURVE",
"99 679 CURVE SMOOTH",
"92 664 OFFCURVE",
"87 634 OFFCURVE",
"86 599 CURVE",
"86 518 LINE",
"35 518 LINE",
"35 448 LINE",
"86 448 LINE",
"86 0 LINE"
);
}
);
width = 244;
}
);
note = f;
unicode = 0066;
},
{
glyphname = g;
lastChange = "2019-03-11 07:10:32 +0000";
layers = (
{
layerId = "994FE389-9D54-4FAA-B055-C46A67020E78";
paths = (
{
closed = 1;
nodes = (
"375 -189 OFFCURVE",
"440 -154 OFFCURVE",
"476 -84 CURVE SMOOTH",
"504 -30 OFFCURVE",
"504 25 OFFCURVE",
"504 66 CURVE SMOOTH",
"504 527 LINE",
"426 527 LINE",
"426 465 LINE",
"408 485 OFFCURVE",
"394 504 OFFCURVE",
"378 514 CURVE SMOOTH",
"348 533 OFFCURVE",
"312 541 OFFCURVE",
"274 541 CURVE SMOOTH",
"215 541 OFFCURVE",
"164 518 OFFCURVE",
"124 471 CURVE SMOOTH",
"84 423 OFFCURVE",
"60 356 OFFCURVE",
"60 272 CURVE SMOOTH",
"60 181 OFFCURVE",
"81 120 OFFCURVE",
"124 78 CURVE SMOOTH",
"164 38 OFFCURVE",
"212 19 OFFCURVE",
"266 19 CURVE SMOOTH",
"306 19 OFFCURVE",
"338 26 OFFCURVE",
"360 39 CURVE SMOOTH",
"383 53 OFFCURVE",
"406 72 OFFCURVE",
"424 98 CURVE",
"425 26 OFFCURVE",
"418 -21 OFFCURVE",
"407 -48 CURVE SMOOTH",
"388 -94 OFFCURVE",
"344 -119 OFFCURVE",
"276 -119 CURVE SMOOTH",
"237 -119 OFFCURVE",
"206 -110 OFFCURVE",
"186 -88 CURVE",
"175 -77 OFFCURVE",
"168 -60 OFFCURVE",
"163 -35 CURVE",
"77 -35 LINE",
"80 -88 OFFCURVE",
"102 -129 OFFCURVE",
"138 -152 CURVE SMOOTH",
"175 -175 OFFCURVE",
"219 -189 OFFCURVE",
"276 -189 CURVE SMOOTH"
);
},
{
closed = 1;
nodes = (
"237 90 OFFCURVE",
"205 104 OFFCURVE",
"183 133 CURVE SMOOTH",
"161 163 OFFCURVE",
"146 204 OFFCURVE",
"146 266 CURVE SMOOTH",
"146 313 OFFCURVE",
"153 353 OFFCURVE",
"166 382 CURVE SMOOTH",
"190 436 OFFCURVE",
"229 468 OFFCURVE",
"288 468 CURVE SMOOTH",
"327 468 OFFCURVE",
"359 451 OFFCURVE",
"388 421 CURVE SMOOTH",
"416 392 OFFCURVE",
"426 345 OFFCURVE",
"426 283 CURVE SMOOTH",
"426 241 OFFCURVE",
"419 203 OFFCURVE",
"406 172 CURVE SMOOTH",
"383 115 OFFCURVE",
"337 90 OFFCURVE",
"276 90 CURVE SMOOTH"
);
}
);
width = 574;
},
{
layerId = "CBA2E3C4-6E62-469B-BD2C-D62FAD87CF88";
paths = (
{
closed = 1;
nodes = (
"263 -189 OFFCURVE",
"308 -154 OFFCURVE",
"333 -84 CURVE SMOOTH",
"353 -28 OFFCURVE",
"353 19 OFFCURVE",
"353 66 CURVE SMOOTH",
"353 527 LINE",
"298 527 LINE",
"298 465 LINE",
"286 485 OFFCURVE",
"277 502 OFFCURVE",
"264 514 CURVE SMOOTH",
"241 535 OFFCURVE",
"217 541 OFFCURVE",
"192 541 CURVE SMOOTH",
"150 541 OFFCURVE",
"115 518 OFFCURVE",
"87 471 CURVE SMOOTH",
"59 423 OFFCURVE",
"42 358 OFFCURVE",
"42 272 CURVE SMOOTH",
"42 181 OFFCURVE",
"57 120 OFFCURVE",
"86 79 CURVE SMOOTH",
"115 38 OFFCURVE",
"148 19 OFFCURVE",
"186 19 CURVE SMOOTH",
"214 19 OFFCURVE",
"237 26 OFFCURVE",
"252 39 CURVE SMOOTH",
"268 53 OFFCURVE",
"284 72 OFFCURVE",
"297 98 CURVE",
"298 30 OFFCURVE",
"292 -24 OFFCURVE",
"285 -48 CURVE SMOOTH",
"272 -94 OFFCURVE",
"240 -119 OFFCURVE",
"193 -119 CURVE SMOOTH",
"167 -119 OFFCURVE",
"144 -110 OFFCURVE",
"130 -88 CURVE",
"123 -78 OFFCURVE",
"118 -61 OFFCURVE",
"114 -35 CURVE",
"54 -35 LINE",
"56 -89 OFFCURVE",
"71 -129 OFFCURVE",
"97 -152 CURVE SMOOTH",
"125 -177 OFFCURVE",
"155 -189 OFFCURVE",
"193 -189 CURVE SMOOTH"
);
},
{
closed = 1;
nodes = (
"167 90 OFFCURVE",
"143 104 OFFCURVE",
"128 133 CURVE SMOOTH",
"112 164 OFFCURVE",
"102 207 OFFCURVE",
"102 266 CURVE SMOOTH",
"102 312 OFFCURVE",
"107 353 OFFCURVE",
"116 381 CURVE SMOOTH",
"133 436 OFFCURVE",
"160 468 OFFCURVE",
"202 468 CURVE SMOOTH",
"229 468 OFFCURVE",
"251 451 OFFCURVE",
"271 422 CURVE SMOOTH",
"291 392 OFFCURVE",
"298 347 OFFCURVE",
"298 283 CURVE SMOOTH",
"298 238 OFFCURVE",
"293 203 OFFCURVE",
"284 171 CURVE SMOOTH",
"268 115 OFFCURVE",
"235 90 OFFCURVE",
"193 90 CURVE SMOOTH"
);
}
);
width = 402;
}
);
leftKerningGroup = o;
note = g;
unicode = 0067;
},
{
glyphname = h;
lastChange = "2019-03-11 07:10:32 +0000";
layers = (
{
layerId = "994FE389-9D54-4FAA-B055-C46A67020E78";
paths = (
{
closed = 1;
nodes = (
"158 1 LINE",
"158 280 LINE SMOOTH",
"158 352 OFFCURVE",
"173 398 OFFCURVE",
"204 423 CURVE SMOOTH",
"234 446 OFFCURVE",
"265 461 OFFCURVE",
"303 461 CURVE SMOOTH",
"347 461 OFFCURVE",
"380 445 OFFCURVE",
"394 417 CURVE SMOOTH",
"404 398 OFFCURVE",
"409 372 OFFCURVE",
"409 334 CURVE SMOOTH",
"409 1 LINE",
"499 1 LINE",
"499 339 LINE SMOOTH",
"499 380 OFFCURVE",
"495 425 OFFCURVE",
"477 460 CURVE SMOOTH",
"448 516 OFFCURVE",
"397 540 OFFCURVE",
"322 540 CURVE SMOOTH",
"279 540 OFFCURVE",
"244 530 OFFCURVE",
"214 514 CURVE SMOOTH",
"198 505 OFFCURVE",
"179 483 OFFCURVE",
"158 456 CURVE",
"158 727 LINE",
"70 727 LINE",
"70 1 LINE"
);
}
);
width = 559;
},
{
layerId = "CBA2E3C4-6E62-469B-BD2C-D62FAD87CF88";
paths = (
{
closed = 1;
nodes = (
"111 1 LINE",
"111 280 LINE SMOOTH",
"111 352 OFFCURVE",
"121 398 OFFCURVE",
"143 423 CURVE SMOOTH",
"164 446 OFFCURVE",
"185 461 OFFCURVE",
"212 461 CURVE SMOOTH",
"243 461 OFFCURVE",
"266 445 OFFCURVE",
"276 417 CURVE SMOOTH",
"283 398 OFFCURVE",
"286 368 OFFCURVE",
"286 334 CURVE SMOOTH",
"286 1 LINE",
"349 1 LINE",
"349 339 LINE SMOOTH",
"349 381 OFFCURVE",
"346 427 OFFCURVE",
"334 460 CURVE SMOOTH",
"314 516 OFFCURVE",
"277 540 OFFCURVE",
"225 540 CURVE SMOOTH",
"195 540 OFFCURVE",
"171 530 OFFCURVE",
"150 514 CURVE SMOOTH",
"138 504 OFFCURVE",
"127 486 OFFCURVE",
"111 456 CURVE",
"111 727 LINE",
"49 727 LINE",
"49 1 LINE"
);
}
);
width = 391;
}
);
note = h;
unicode = 0068;
},
{
glyphname = i;
lastChange = "2019-03-11 07:10:32 +0000";
layers = (
{
layerId = "994FE389-9D54-4FAA-B055-C46A67020E78";
paths = (
{
closed = 1;
nodes = (
"140 -1 LINE",
"140 526 LINE",
"50 526 LINE",
"50 -1 LINE"
);
},
{
closed = 1;
nodes = (
"140 626 LINE",
"140 727 LINE",
"50 727 LINE",
"50 626 LINE"
);
}
);
width = 190;
},
{
layerId = "CBA2E3C4-6E62-469B-BD2C-D62FAD87CF88";
paths = (
{
closed = 1;
nodes = (
"98 -1 LINE",
"98 526 LINE",
"35 526 LINE",
"35 -1 LINE"
);
},
{
closed = 1;
nodes = (
"98 626 LINE",
"98 727 LINE",
"35 727 LINE",
"35 626 LINE"
);
}
);
width = 133;
}
);
leftKerningGroup = b;
note = i;
rightKerningGroup = b;
unicode = 0069;
},
{
glyphname = j;
lastChange = "2019-03-11 07:10:32 +0000";
layers = (
{
layerId = "994FE389-9D54-4FAA-B055-C46A67020E78";
paths = (
{
closed = 1;
nodes = (
"146 -182 OFFCURVE",
"184 -165 OFFCURVE",
"204 -134 CURVE SMOOTH",
"216 -114 OFFCURVE",
"223 -89 OFFCURVE",
"223 -50 CURVE SMOOTH",
"223 535 LINE",
"136 535 LINE",
"136 -42 LINE SMOOTH",
"136 -72 OFFCURVE",
"133 -89 OFFCURVE",
"125 -94 CURVE",
"117 -100 OFFCURVE",
"94 -104 OFFCURVE",
"55 -104 CURVE",
"55 -179 LINE",
"65 -180 OFFCURVE",
"73 -181 OFFCURVE",
"77 -181 CURVE SMOOTH",
"83 -181 OFFCURVE",
"87 -182 OFFCURVE",
"91 -182 CURVE SMOOTH"
);
},
{
closed = 1;
nodes = (
"223 627 LINE",
"223 727 LINE",
"136 727 LINE",
"136 627 LINE"
);
}
);
width = 293;
},
{
layerId = "CBA2E3C4-6E62-469B-BD2C-D62FAD87CF88";
paths = (
{
closed = 1;
nodes = (
"104 -182 OFFCURVE",
"129 -165 OFFCURVE",
"143 -134 CURVE SMOOTH",
"152 -114 OFFCURVE",
"157 -89 OFFCURVE",
"157 -50 CURVE SMOOTH",
"157 535 LINE",
"96 535 LINE",
"96 -42 LINE SMOOTH",
"96 -72 OFFCURVE",
"94 -89 OFFCURVE",
"88 -94 CURVE",
"82 -100 OFFCURVE",
"66 -104 OFFCURVE",
"39 -104 CURVE",
"39 -179 LINE",
"46 -180 OFFCURVE",
"52 -181 OFFCURVE",
"54 -181 CURVE SMOOTH",
"59 -181 OFFCURVE",
"61 -182 OFFCURVE",
"64 -182 CURVE SMOOTH"
);
},
{
closed = 1;
nodes = (
"157 627 LINE",
"157 727 LINE",
"96 727 LINE",
"96 627 LINE"
);
}
);
width = 206;
}
);
note = j;
unicode = 006A;
},
{
glyphname = k;
lastChange = "2019-03-11 07:10:32 +0000";
layers = (
{
layerId = "994FE389-9D54-4FAA-B055-C46A67020E78";
paths = (
{
closed = 1;
nodes = (
"156 0 LINE",
"156 199 LINE",
"231 268 LINE",
"395 0 LINE",
"509 0 LINE",
"295 332 LINE",
"498 530 LINE",
"385 530 LINE",
"156 305 LINE",
"156 727 LINE",
"70 727 LINE",
"70 0 LINE"
);
}
);
width = 559;
},
{
layerId = "CBA2E3C4-6E62-469B-BD2C-D62FAD87CF88";
paths = (
{
closed = 1;
nodes = (
"109 0 LINE",
"109 199 LINE",
"162 268 LINE",
"277 0 LINE",
"356 0 LINE",
"206 332 LINE",
"349 530 LINE",
"270 530 LINE",
"109 305 LINE",
"109 727 LINE",
"49 727 LINE",
"49 0 LINE"
);
}
);
width = 391;
}
);
note = k;
rightKerningGroup = k;
unicode = 006B;
},
{
glyphname = l;
lastChange = "2019-03-11 07:10:32 +0000";
layers = (
{
layerId = "994FE389-9D54-4FAA-B055-C46A67020E78";
paths = (
{
closed = 1;
nodes = (
"139 0 LINE",
"139 722 LINE",
"50 722 LINE",
"50 0 LINE"
);
}
);
width = 189;
},
{
layerId = "CBA2E3C4-6E62-469B-BD2C-D62FAD87CF88";
paths = (
{
closed = 1;
nodes = (
"97 0 LINE",
"97 722 LINE",
"35 722 LINE",
"35 0 LINE"
);
}
);
width = 132;
}
);
leftKerningGroup = b;
note = l;
unicode = 006C;
},
{
glyphname = m;
lastChange = "2019-03-11 07:10:32 +0000";
layers = (
{
layerId = "994FE389-9D54-4FAA-B055-C46A67020E78";
paths = (
{
closed = 1;
nodes = (
"158 0 LINE",
"158 279 LINE SMOOTH",
"158 347 OFFCURVE",
"173 394 OFFCURVE",
"200 420 CURVE SMOOTH",
"227 446 OFFCURVE",
"257 459 OFFCURVE",
"291 459 CURVE SMOOTH",
"327 459 OFFCURVE",
"353 446 OFFCURVE",
"366 422 CURVE SMOOTH",
"375 406 OFFCURVE",
"379 379 OFFCURVE",
"379 344 CURVE SMOOTH",
"379 0 LINE",
"469 0 LINE",
"469 306 LINE SMOOTH",
"469 361 OFFCURVE",
"481 400 OFFCURVE",
"506 423 CURVE SMOOTH",
"532 446 OFFCURVE",
"561 458 OFFCURVE",
"596 458 CURVE SMOOTH",
"621 458 OFFCURVE",
"643 451 OFFCURVE",
"660 438 CURVE",
"677 426 OFFCURVE",
"686 401 OFFCURVE",
"686 366 CURVE SMOOTH",
"686 0 LINE",
"778 0 LINE",
"778 351 LINE SMOOTH",
"778 397 OFFCURVE",
"772 435 OFFCURVE",
"757 462 CURVE SMOOTH",
"729 514 OFFCURVE",
"683 538 OFFCURVE",
"613 538 CURVE SMOOTH",
"580 538 OFFCURVE",
"550 532 OFFCURVE",
"524 518 CURVE",
"497 505 OFFCURVE",
"474 484 OFFCURVE",
"454 456 CURVE",
"443 478 OFFCURVE",
"430 496 OFFCURVE",
"415 507 CURVE",
"390 528 OFFCURVE",
"355 538 OFFCURVE",
"314 538 CURVE SMOOTH",
"277 538 OFFCURVE",
"244 528 OFFCURVE",
"214 508 CURVE SMOOTH",
"198 497 OFFCURVE",
"181 481 OFFCURVE",
"157 452 CURVE",
"157 526 LINE",
"70 526 LINE",
"70 0 LINE"
);
}
);
width = 838;
},
{
layerId = "CBA2E3C4-6E62-469B-BD2C-D62FAD87CF88";
paths = (
{
closed = 1;
nodes = (
"111 0 LINE",
"111 279 LINE SMOOTH",
"111 346 OFFCURVE",
"121 394 OFFCURVE",
"140 420 CURVE SMOOTH",
"159 446 OFFCURVE",
"180 459 OFFCURVE",
"204 459 CURVE SMOOTH",
"229 459 OFFCURVE",
"247 446 OFFCURVE",
"256 422 CURVE SMOOTH",
"263 403 OFFCURVE",
"265 379 OFFCURVE",
"265 344 CURVE SMOOTH",
"265 0 LINE",
"328 0 LINE",
"328 306 LINE SMOOTH",
"328 360 OFFCURVE",
"337 401 OFFCURVE",
"354 423 CURVE SMOOTH",
"372 446 OFFCURVE",
"394 458 OFFCURVE",
"417 458 CURVE SMOOTH",
"434 458 OFFCURVE",
"450 451 OFFCURVE",
"462 438 CURVE",
"474 426 OFFCURVE",
"480 400 OFFCURVE",
"480 366 CURVE SMOOTH",
"480 0 LINE",
"545 0 LINE",
"545 351 LINE SMOOTH",
"545 400 OFFCURVE",
"540 435 OFFCURVE",
"530 462 CURVE SMOOTH",
"510 514 OFFCURVE",
"478 538 OFFCURVE",
"429 538 CURVE SMOOTH",
"405 538 OFFCURVE",
"385 532 OFFCURVE",
"367 518 CURVE",
"348 505 OFFCURVE",
"332 484 OFFCURVE",
"318 456 CURVE",
"310 478 OFFCURVE",
"301 495 OFFCURVE",
"291 507 CURVE",
"273 528 OFFCURVE",
"248 538 OFFCURVE",
"220 538 CURVE SMOOTH",
"193 538 OFFCURVE",
"171 528 OFFCURVE",
"150 508 CURVE SMOOTH",
"139 497 OFFCURVE",
"130 486 OFFCURVE",
"110 452 CURVE",
"110 526 LINE",
"49 526 LINE",
"49 0 LINE"
);
}
);
width = 587;
}
);
note = m;
unicode = 006D;
},
{
glyphname = n;
lastChange = "2019-03-11 07:10:32 +0000";
layers = (
{
layerId = "994FE389-9D54-4FAA-B055-C46A67020E78";
paths = (
{
closed = 1;
nodes = (
"158 0 LINE",
"158 276 LINE SMOOTH",
"158 310 OFFCURVE",
"161 337 OFFCURVE",
"165 356 CURVE",
"170 374 OFFCURVE",
"179 392 OFFCURVE",
"194 409 CURVE SMOOTH",
"213 431 OFFCURVE",
"234 446 OFFCURVE",
"258 453 CURVE",
"271 456 OFFCURVE",
"288 459 OFFCURVE",
"309 459 CURVE SMOOTH",
"351 459 OFFCURVE",
"378 443 OFFCURVE",
"394 410 CURVE SMOOTH",
"404 390 OFFCURVE",
"409 365 OFFCURVE",
"409 332 CURVE SMOOTH",
"409 0 LINE",
"499 0 LINE",
"499 338 LINE SMOOTH",
"499 389 OFFCURVE",
"493 429 OFFCURVE",
"477 460 CURVE SMOOTH",
"450 513 OFFCURVE",
"401 538 OFFCURVE",
"326 538 CURVE SMOOTH",
"292 538 OFFCURVE",
"261 532 OFFCURVE",
"234 518 CURVE",
"205 505 OFFCURVE",
"179 483 OFFCURVE",
"154 452 CURVE",
"154 526 LINE",
"70 526 LINE",
"70 0 LINE"
);
}
);
width = 559;
},
{
layerId = "CBA2E3C4-6E62-469B-BD2C-D62FAD87CF88";
paths = (
{
closed = 1;
nodes = (
"111 0 LINE",
"111 276 LINE SMOOTH",
"111 312 OFFCURVE",
"113 339 OFFCURVE",
"116 356 CURVE",
"119 374 OFFCURVE",
"124 390 OFFCURVE",
"136 409 CURVE SMOOTH",
"149 431 OFFCURVE",
"163 445 OFFCURVE",
"181 453 CURVE",
"190 456 OFFCURVE",
"202 459 OFFCURVE",
"216 459 CURVE SMOOTH",
"246 459 OFFCURVE",
"264 444 OFFCURVE",
"276 409 CURVE SMOOTH",
"283 390 OFFCURVE",
"286 364 OFFCURVE",
"286 332 CURVE SMOOTH",
"286 0 LINE",
"349 0 LINE",
"349 338 LINE SMOOTH",
"349 389 OFFCURVE",
"345 429 OFFCURVE",
"334 460 CURVE SMOOTH",
"315 513 OFFCURVE",
"280 538 OFFCURVE",
"228 538 CURVE SMOOTH",
"204 538 OFFCURVE",
"183 532 OFFCURVE",
"164 518 CURVE",
"139 502 OFFCURVE",
"124 479 OFFCURVE",
"108 452 CURVE",
"108 526 LINE",
"49 526 LINE",
"49 0 LINE"
);
}
);
width = 391;
}
);
note = n;
unicode = 006E;
},
{
glyphname = o;
lastChange = "2019-03-11 07:10:32 +0000";
layers = (
{
layerId = "994FE389-9D54-4FAA-B055-C46A67020E78";
paths = (
{
closed = 1;
nodes = (
"372 -18 OFFCURVE",
"437 10 OFFCURVE",
"479 67 CURVE SMOOTH",
"519 120 OFFCURVE",
"540 193 OFFCURVE",
"540 276 CURVE SMOOTH",
"540 366 OFFCURVE",
"514 433 OFFCURVE",
"470 475 CURVE SMOOTH",
"424 519 OFFCURVE",
"365 543 OFFCURVE",
"298 543 CURVE SMOOTH",
"225 543 OFFCURVE",
"162 517 OFFCURVE",
"117 465 CURVE SMOOTH",
"71 412 OFFCURVE",
"50 337 OFFCURVE",
"50 253 CURVE SMOOTH",
"50 170 OFFCURVE",
"71 105 OFFCURVE",
"113 56 CURVE SMOOTH",
"156 6 OFFCURVE",
"213 -18 OFFCURVE",
"286 -18 CURVE SMOOTH"
);
},
{
closed = 1;
nodes = (
"241 58 OFFCURVE",
"202 77 OFFCURVE",
"177 115 CURVE SMOOTH",
"152 152 OFFCURVE",
"141 198 OFFCURVE",
"141 255 CURVE SMOOTH",
"141 313 OFFCURVE",
"152 363 OFFCURVE",
"177 404 CURVE SMOOTH",
"202 445 OFFCURVE",
"242 466 OFFCURVE",
"295 466 CURVE SMOOTH",
"356 466 OFFCURVE",
"399 441 OFFCURVE",
"424 393 CURVE SMOOTH",
"441 362 OFFCURVE",
"448 322 OFFCURVE",
"448 273 CURVE SMOOTH",
"448 218 OFFCURVE",
"437 169 OFFCURVE",
"415 125 CURVE SMOOTH",
"393 80 OFFCURVE",
"352 58 OFFCURVE",
"294 58 CURVE SMOOTH"
);
}
);
width = 590;
},
{
layerId = "CBA2E3C4-6E62-469B-BD2C-D62FAD87CF88";
paths = (
{
closed = 1;
nodes = (
"260 -18 OFFCURVE",
"306 10 OFFCURVE",
"336 68 CURVE SMOOTH",
"363 120 OFFCURVE",
"378 193 OFFCURVE",
"378 276 CURVE SMOOTH",
"378 366 OFFCURVE",
"360 433 OFFCURVE",
"329 475 CURVE SMOOTH",
"297 519 OFFCURVE",
"256 543 OFFCURVE",
"209 543 CURVE SMOOTH",
"158 543 OFFCURVE",
"113 517 OFFCURVE",
"82 465 CURVE SMOOTH",
"50 412 OFFCURVE",
"35 339 OFFCURVE",
"35 253 CURVE SMOOTH",
"35 169 OFFCURVE",
"50 105 OFFCURVE",
"79 56 CURVE SMOOTH",
"109 6 OFFCURVE",
"150 -18 OFFCURVE",
"200 -18 CURVE SMOOTH"
);
},
{
closed = 1;
nodes = (
"171 58 OFFCURVE",
"143 74 OFFCURVE",
"124 115 CURVE SMOOTH",
"106 154 OFFCURVE",
"99 197 OFFCURVE",
"99 255 CURVE SMOOTH",
"99 311 OFFCURVE",
"106 363 OFFCURVE",
"124 404 CURVE SMOOTH",
"141 445 OFFCURVE",
"170 466 OFFCURVE",
"207 466 CURVE SMOOTH",
"249 466 OFFCURVE",
"279 441 OFFCURVE",
"297 393 CURVE SMOOTH",
"309 362 OFFCURVE",
"314 318 OFFCURVE",
"314 273 CURVE SMOOTH",
"314 217 OFFCURVE",
"306 169 OFFCURVE",
"290 124 CURVE SMOOTH",
"275 80 OFFCURVE",
"246 58 OFFCURVE",
"206 58 CURVE SMOOTH"
);
}
);
width = 413;
}
);
leftKerningGroup = o;
note = o;
unicode = 006F;
},
{
glyphname = p;
lastChange = "2019-03-11 07:10:32 +0000";
layers = (
{
layerId = "994FE389-9D54-4FAA-B055-C46A67020E78";
paths = (
{
closed = 1;
nodes = (
"156 -182 LINE",
"156 77 LINE",
"175 56 OFFCURVE",
"191 38 OFFCURVE",
"207 30 CURVE SMOOTH",
"233 16 OFFCURVE",
"265 4 OFFCURVE",
"303 4 CURVE SMOOTH",
"351 4 OFFCURVE",
"395 20 OFFCURVE",
"431 49 CURVE SMOOTH",
"489 96 OFFCURVE",
"517 176 OFFCURVE",
"517 286 CURVE SMOOTH",
"517 369 OFFCURVE",
"497 432 OFFCURVE",
"457 476 CURVE SMOOTH",
"417 521 OFFCURVE",
"368 542 OFFCURVE",
"311 542 CURVE SMOOTH",
"271 542 OFFCURVE",
"238 533 OFFCURVE",
"209 515 CURVE SMOOTH",
"188 502 OFFCURVE",
"171 483 OFFCURVE",
"153 461 CURVE",
"153 528 LINE",
"70 528 LINE",
"70 -182 LINE"
);
},
{
closed = 1;
nodes = (
"233 78 OFFCURVE",
"190 106 OFFCURVE",
"169 157 CURVE SMOOTH",
"158 185 OFFCURVE",
"152 219 OFFCURVE",
"152 258 CURVE SMOOTH",
"152 306 OFFCURVE",
"158 347 OFFCURVE",
"169 378 CURVE SMOOTH",
"190 437 OFFCURVE",
"233 467 OFFCURVE",
"291 467 CURVE SMOOTH",
"350 467 OFFCURVE",
"390 439 OFFCURVE",
"413 383 CURVE SMOOTH",
"425 354 OFFCURVE",
"431 318 OFFCURVE",
"431 278 CURVE SMOOTH",
"431 213 OFFCURVE",
"417 163 OFFCURVE",
"391 129 CURVE SMOOTH",
"365 96 OFFCURVE",
"331 78 OFFCURVE",
"291 78 CURVE SMOOTH"
);
}
);
width = 577;
},
{
layerId = "CBA2E3C4-6E62-469B-BD2C-D62FAD87CF88";
paths = (
{
closed = 1;
nodes = (
"109 -182 LINE",
"109 77 LINE",
"122 56 OFFCURVE",
"134 38 OFFCURVE",
"145 30 CURVE SMOOTH",
"163 16 OFFCURVE",
"185 4 OFFCURVE",
"212 4 CURVE SMOOTH",
"246 4 OFFCURVE",
"279 22 OFFCURVE",
"302 49 CURVE SMOOTH",
"342 96 OFFCURVE",
"362 176 OFFCURVE",
"362 286 CURVE SMOOTH",
"362 368 OFFCURVE",
"348 432 OFFCURVE",
"320 476 CURVE SMOOTH",
"292 521 OFFCURVE",
"257 542 OFFCURVE",
"218 542 CURVE SMOOTH",
"188 542 OFFCURVE",
"167 533 OFFCURVE",
"147 515 CURVE SMOOTH",
"132 502 OFFCURVE",
"123 489 OFFCURVE",
"107 461 CURVE",
"107 528 LINE",
"49 528 LINE",
"49 -182 LINE"
);
},
{
closed = 1;
nodes = (
"163 78 OFFCURVE",
"133 106 OFFCURVE",
"118 158 CURVE SMOOTH",
"112 179 OFFCURVE",
"106 215 OFFCURVE",
"106 258 CURVE SMOOTH",
"106 309 OFFCURVE",
"111 347 OFFCURVE",
"118 377 CURVE SMOOTH",
"133 437 OFFCURVE",
"163 467 OFFCURVE",
"204 467 CURVE SMOOTH",
"245 467 OFFCURVE",
"273 439 OFFCURVE",
"289 383 CURVE SMOOTH",
"298 352 OFFCURVE",
"302 317 OFFCURVE",
"302 278 CURVE SMOOTH",
"302 212 OFFCURVE",
"292 163 OFFCURVE",
"273 128 CURVE SMOOTH",
"257 99 OFFCURVE",
"234 78 OFFCURVE",
"204 78 CURVE SMOOTH"
);
}
);
width = 404;
}
);
leftKerningGroup = b;
note = p;
rightKerningGroup = o;
unicode = 0070;
},
{
glyphname = q;
lastChange = "2019-03-11 07:10:32 +0000";
layers = (
{
layerId = "994FE389-9D54-4FAA-B055-C46A67020E78";
paths = (
{
closed = 1;
nodes = (
"511 -182 LINE",
"511 531 LINE",
"430 531 LINE",
"430 461 LINE",
"415 483 OFFCURVE",
"399 499 OFFCURVE",
"384 511 CURVE SMOOTH",
"355 533 OFFCURVE",
"319 543 OFFCURVE",
"277 543 CURVE SMOOTH",
"213 543 OFFCURVE",
"160 516 OFFCURVE",
"121 465 CURVE SMOOTH",
"82 413 OFFCURVE",
"60 346 OFFCURVE",
"60 263 CURVE SMOOTH",
"60 176 OFFCURVE",
"82 112 OFFCURVE",
"125 69 CURVE SMOOTH",
"168 26 OFFCURVE",
"216 6 OFFCURVE",
"271 6 CURVE SMOOTH",
"309 6 OFFCURVE",
"340 13 OFFCURVE",
"365 26 CURVE",
"391 38 OFFCURVE",
"410 57 OFFCURVE",
"425 80 CURVE",
"425 -182 LINE"
);
},
{
closed = 1;
nodes = (
"229 79 OFFCURVE",
"189 106 OFFCURVE",
"168 159 CURVE SMOOTH",
"156 189 OFFCURVE",
"150 226 OFFCURVE",
"150 269 CURVE SMOOTH",
"150 336 OFFCURVE",
"165 386 OFFCURVE",
"190 418 CURVE SMOOTH",
"216 452 OFFCURVE",
"248 466 OFFCURVE",
"285 466 CURVE SMOOTH",
"344 466 OFFCURVE",
"385 442 OFFCURVE",
"407 391 CURVE SMOOTH",
"420 362 OFFCURVE",
"429 325 OFFCURVE",
"429 281 CURVE SMOOTH",
"429 234 OFFCURVE",
"424 199 OFFCURVE",
"409 164 CURVE SMOOTH",
"385 107 OFFCURVE",
"345 79 OFFCURVE",
"285 79 CURVE SMOOTH"
);
}
);
width = 581;
},
{
layerId = "CBA2E3C4-6E62-469B-BD2C-D62FAD87CF88";
paths = (
{
closed = 1;
nodes = (
"358 -182 LINE",
"358 531 LINE",
"301 531 LINE",
"301 461 LINE",
"291 483 OFFCURVE",
"276 503 OFFCURVE",
"269 511 CURVE SMOOTH",
"249 533 OFFCURVE",
"222 543 OFFCURVE",
"194 543 CURVE SMOOTH",
"149 543 OFFCURVE",
"112 516 OFFCURVE",
"84 464 CURVE SMOOTH",
"57 413 OFFCURVE",
"42 342 OFFCURVE",
"42 263 CURVE SMOOTH",
"42 178 OFFCURVE",
"57 112 OFFCURVE",
"88 68 CURVE SMOOTH",
"118 26 OFFCURVE",
"151 6 OFFCURVE",
"190 6 CURVE SMOOTH",
"217 6 OFFCURVE",
"238 13 OFFCURVE",
"256 26 CURVE",
"274 38 OFFCURVE",
"288 58 OFFCURVE",
"298 80 CURVE",
"298 -182 LINE"
);
},
{
closed = 1;
nodes = (
"161 79 OFFCURVE",
"132 106 OFFCURVE",
"118 158 CURVE SMOOTH",
"109 189 OFFCURVE",
"105 226 OFFCURVE",
"105 269 CURVE SMOOTH",
"105 342 OFFCURVE",
"117 388 OFFCURVE",
"133 418 CURVE SMOOTH",
"151 452 OFFCURVE",
"173 466 OFFCURVE",
"200 466 CURVE SMOOTH",
"240 466 OFFCURVE",
"269 443 OFFCURVE",
"285 391 CURVE SMOOTH",
"294 362 OFFCURVE",
"300 324 OFFCURVE",
"300 281 CURVE SMOOTH",
"300 235 OFFCURVE",
"297 199 OFFCURVE",
"286 163 CURVE SMOOTH",
"269 106 OFFCURVE",
"241 79 OFFCURVE",
"200 79 CURVE SMOOTH"
);
}
);
width = 407;
}
);
leftKerningGroup = o;
note = q;
unicode = 0071;
},
{
glyphname = r;
lastChange = "2019-03-11 07:10:32 +0000";
layers = (
{
layerId = "994FE389-9D54-4FAA-B055-C46A67020E78";
paths = (
{
closed = 1;
nodes = (
"158 0 LINE",
"158 305 LINE SMOOTH",
"158 342 OFFCURVE",
"170 376 OFFCURVE",
"194 404 CURVE SMOOTH",
"219 432 OFFCURVE",
"253 448 OFFCURVE",
"298 448 CURVE",
"312 447 LINE",
"316 447 OFFCURVE",
"321 446 OFFCURVE",
"327 446 CURVE",
"327 539 LINE",
"317 540 OFFCURVE",
"311 540 OFFCURVE",
"306 541 CURVE",
"302 542 OFFCURVE",
"300 541 OFFCURVE",
"298 541 CURVE SMOOTH",
"263 541 OFFCURVE",
"231 528 OFFCURVE",
"204 503 CURVE SMOOTH",
"185 485 OFFCURVE",
"161 456 OFFCURVE",
"153 437 CURVE",
"153 529 LINE",
"70 529 LINE",
"70 0 LINE"
);
}
);
width = 382;
},
{
layerId = "CBA2E3C4-6E62-469B-BD2C-D62FAD87CF88";
paths = (
{
closed = 1;
nodes = (
"111 0 LINE",
"111 305 LINE SMOOTH",
"111 343 OFFCURVE",
"119 376 OFFCURVE",
"136 404 CURVE SMOOTH",
"153 432 OFFCURVE",
"177 448 OFFCURVE",
"209 448 CURVE",
"218 447 LINE",
"221 447 OFFCURVE",
"225 446 OFFCURVE",
"229 446 CURVE",
"229 539 LINE",
"222 540 OFFCURVE",
"218 540 OFFCURVE",
"214 541 CURVE",
"211 542 OFFCURVE",
"211 541 OFFCURVE",
"209 541 CURVE SMOOTH",
"183 541 OFFCURVE",
"162 528 OFFCURVE",
"143 503 CURVE SMOOTH",
"129 485 OFFCURVE",
"113 456 OFFCURVE",
"107 437 CURVE",
"107 529 LINE",
"49 529 LINE",
"49 0 LINE"
);
}
);
width = 268;
}
);
note = r;
unicode = 0072;
},
{
glyphname = s;
lastChange = "2019-03-11 07:10:32 +0000";
layers = (
{
layerId = "994FE389-9D54-4FAA-B055-C46A67020E78";
paths = (
{
closed = 1;
nodes = (
"341 -9 OFFCURVE",
"393 8 OFFCURVE",
"429 40 CURVE SMOOTH",
"466 73 OFFCURVE",
"480 115 OFFCURVE",
"480 160 CURVE SMOOTH",
"480 208 OFFCURVE",
"464 242 OFFCURVE",
"431 265 CURVE",
"409 279 OFFCURVE",
"368 290 OFFCURVE",
"304 307 CURVE SMOOTH",
"248 322 LINE SMOOTH",
"222 329 OFFCURVE",
"214 331 OFFCURVE",
"192 344 CURVE",
"169 358 OFFCURVE",
"158 376 OFFCURVE",
"158 396 CURVE SMOOTH",
"158 417 OFFCURVE",
"166 435 OFFCURVE",
"183 447 CURVE SMOOTH",
"201 460 OFFCURVE",
"224 466 OFFCURVE",
"258 466 CURVE SMOOTH",
"306 466 OFFCURVE",
"341 455 OFFCURVE",
"362 432 CURVE",
"373 416 OFFCURVE",
"381 397 OFFCURVE",
"383 379 CURVE",
"464 379 LINE",
"465 411 OFFCURVE",
"454 443 OFFCURVE",
"432 474 CURVE SMOOTH",
"399 519 OFFCURVE",
"342 540 OFFCURVE",
"264 540 CURVE SMOOTH",
"203 540 OFFCURVE",
"157 525 OFFCURVE",
"122 495 CURVE SMOOTH",
"87 466 OFFCURVE",
"70 425 OFFCURVE",
"70 377 CURVE SMOOTH",
"70 335 OFFCURVE",
"89 303 OFFCURVE",
"124 279 CURVE SMOOTH",
"145 265 OFFCURVE",
"183 252 OFFCURVE",
"223 242 CURVE SMOOTH",
"293 225 LINE SMOOTH",
"338 214 OFFCURVE",
"347 209 OFFCURVE",
"366 201 CURVE",
"386 189 OFFCURVE",
"394 172 OFFCURVE",
"394 150 CURVE SMOOTH",
"394 121 OFFCURVE",
"383 100 OFFCURVE",
"359 86 CURVE SMOOTH",
"334 71 OFFCURVE",
"305 64 OFFCURVE",
"274 64 CURVE SMOOTH",
"219 64 OFFCURVE",
"183 78 OFFCURVE",
"160 106 CURVE SMOOTH",
"147 122 OFFCURVE",
"141 144 OFFCURVE",
"138 173 CURVE",
"55 173 LINE",
"57 121 OFFCURVE",
"74 78 OFFCURVE",
"107 43 CURVE SMOOTH",
"138 9 OFFCURVE",
"193 -9 OFFCURVE",
"270 -9 CURVE SMOOTH"
);
}
);
width = 535;
},
{
layerId = "CBA2E3C4-6E62-469B-BD2C-D62FAD87CF88";
paths = (
{
closed = 1;
nodes = (
"238 -9 OFFCURVE",
"276 8 OFFCURVE",
"301 40 CURVE SMOOTH",
"327 73 OFFCURVE",
"337 117 OFFCURVE",
"337 160 CURVE SMOOTH",
"337 209 OFFCURVE",
"325 242 OFFCURVE",
"302 265 CURVE",
"287 279 OFFCURVE",
"253 292 OFFCURVE",
"213 307 CURVE SMOOTH",
"174 322 LINE SMOOTH",
"156 329 OFFCURVE",
"152 330 OFFCURVE",
"135 344 CURVE",
"119 358 OFFCURVE",
"111 375 OFFCURVE",
"111 396 CURVE SMOOTH",
"111 419 OFFCURVE",
"117 435 OFFCURVE",
"129 447 CURVE SMOOTH",
"141 460 OFFCURVE",
"157 466 OFFCURVE",
"181 466 CURVE SMOOTH",
"215 466 OFFCURVE",
"239 455 OFFCURVE",
"254 432 CURVE",
"261 417 OFFCURVE",
"267 398 OFFCURVE",
"269 379 CURVE",
"325 379 LINE",
"326 411 OFFCURVE",
"318 445 OFFCURVE",
"303 474 CURVE SMOOTH",
"280 519 OFFCURVE",
"239 540 OFFCURVE",
"185 540 CURVE SMOOTH",
"140 540 OFFCURVE",
"110 524 OFFCURVE",
"86 495 CURVE SMOOTH",
"63 467 OFFCURVE",
"50 430 OFFCURVE",
"50 377 CURVE SMOOTH",
"50 335 OFFCURVE",
"63 303 OFFCURVE",
"87 279 CURVE SMOOTH",
"102 265 OFFCURVE",
"130 251 OFFCURVE",
"157 242 CURVE SMOOTH",
"206 225 LINE SMOOTH",
"237 214 OFFCURVE",
"237 212 OFFCURVE",
"257 201 CURVE",
"271 189 OFFCURVE",
"276 171 OFFCURVE",
"276 150 CURVE SMOOTH",
"276 123 OFFCURVE",
"269 100 OFFCURVE",
"252 86 CURVE SMOOTH",
"234 71 OFFCURVE",
"214 64 OFFCURVE",
"192 64 CURVE SMOOTH",
"154 64 OFFCURVE",
"129 78 OFFCURVE",
"113 105 CURVE SMOOTH",
"103 122 OFFCURVE",
"99 147 OFFCURVE",
"97 173 CURVE",
"39 173 LINE",
"41 117 OFFCURVE",
"52 78 OFFCURVE",
"76 42 CURVE SMOOTH",
"97 9 OFFCURVE",
"137 -9 OFFCURVE",
"190 -9 CURVE SMOOTH"
);
}
);
width = 375;
}
);
note = s;
rightKerningGroup = o;
unicode = 0073;
},
{
glyphname = t;
lastChange = "2019-03-11 07:10:32 +0000";
layers = (
{
layerId = "994FE389-9D54-4FAA-B055-C46A67020E78";
paths = (
{
closed = 1;
nodes = (
"249 -14 OFFCURVE",
"261 -13 OFFCURVE",
"275 -12 CURVE SMOOTH",
"286 -11 OFFCURVE",
"296 -7 OFFCURVE",
"304 -4 CURVE",
"304 66 LINE",
"288 66 LINE SMOOTH",
"283 66 OFFCURVE",
"278 65 OFFCURVE",
"275 65 CURVE SMOOTH",
"257 65 OFFCURVE",
"245 66 OFFCURVE",
"238 69 CURVE",
"225 76 OFFCURVE",
"221 89 OFFCURVE",
"221 108 CURVE SMOOTH",
"221 458 LINE",
"304 458 LINE",
"304 531 LINE",
"221 531 LINE",
"221 682 LINE",
"130 682 LINE",
"130 531 LINE",
"56 531 LINE",
"56 458 LINE",
"130 458 LINE",
"130 103 LINE SMOOTH",
"130 67 OFFCURVE",
"136 41 OFFCURVE",
"151 19 CURVE",
"165 -4 OFFCURVE",
"195 -14 OFFCURVE",
"236 -14 CURVE SMOOTH"
);
}
);
width = 360;
},
{
layerId = "CBA2E3C4-6E62-469B-BD2C-D62FAD87CF88";
paths = (
{
closed = 1;
nodes = (
"174 -14 OFFCURVE",
"183 -13 OFFCURVE",
"192 -12 CURVE SMOOTH",
"200 -11 OFFCURVE",
"205 -8 OFFCURVE",
"213 -4 CURVE",
"213 66 LINE",
"201 66 LINE SMOOTH",
"198 66 OFFCURVE",
"194 65 OFFCURVE",
"192 65 CURVE SMOOTH",
"180 65 OFFCURVE",
"171 66 OFFCURVE",
"166 69 CURVE",
"157 76 OFFCURVE",
"154 89 OFFCURVE",
"154 108 CURVE SMOOTH",
"154 458 LINE",
"213 458 LINE",
"213 531 LINE",
"154 531 LINE",
"154 682 LINE",
"91 682 LINE",
"91 531 LINE",
"39 531 LINE",
"39 458 LINE",
"91 458 LINE",
"91 103 LINE SMOOTH",
"91 68 OFFCURVE",
"95 41 OFFCURVE",
"106 19 CURVE",
"115 -4 OFFCURVE",
"137 -14 OFFCURVE",
"165 -14 CURVE SMOOTH"
);
}
);
width = 252;
}
);
note = t;
unicode = 0074;
},
{
glyphname = u;
lastChange = "2019-03-11 07:10:32 +0000";
layers = (
{
layerId = "994FE389-9D54-4FAA-B055-C46A67020E78";
paths = (
{
closed = 1;
nodes = (
"291 -14 OFFCURVE",
"331 -1 OFFCURVE",
"367 27 CURVE SMOOTH",
"385 42 OFFCURVE",
"396 60 OFFCURVE",
"408 78 CURVE",
"408 1 LINE",
"492 1 LINE",
"492 531 LINE",
"403 531 LINE",
"403 270 LINE SMOOTH",
"403 218 OFFCURVE",
"397 177 OFFCURVE",
"384 149 CURVE SMOOTH",
"359 95 OFFCURVE",
"320 66 OFFCURVE",
"258 66 CURVE SMOOTH",
"214 66 OFFCURVE",
"187 80 OFFCURVE",
"170 113 CURVE SMOOTH",
"162 129 OFFCURVE",
"157 151 OFFCURVE",
"157 179 CURVE SMOOTH",
"157 531 LINE",
"65 531 LINE",
"65 171 LINE SMOOTH",
"65 126 OFFCURVE",
"72 88 OFFCURVE",
"88 61 CURVE SMOOTH",
"116 11 OFFCURVE",
"168 -14 OFFCURVE",
"242 -14 CURVE SMOOTH"
);
}
);
width = 557;
},
{
layerId = "CBA2E3C4-6E62-469B-BD2C-D62FAD87CF88";
paths = (
{
closed = 1;
nodes = (
"206 -14 OFFCURVE",
"232 -1 OFFCURVE",
"258 28 CURVE SMOOTH",
"270 42 OFFCURVE",
"278 61 OFFCURVE",
"286 78 CURVE",
"286 1 LINE",
"345 1 LINE",
"345 531 LINE",
"283 531 LINE",
"283 270 LINE SMOOTH",
"283 225 OFFCURVE",
"280 182 OFFCURVE",
"269 148 CURVE SMOOTH",
"252 95 OFFCURVE",
"224 66 OFFCURVE",
"181 66 CURVE SMOOTH",
"151 66 OFFCURVE",
"131 80 OFFCURVE",
"119 114 CURVE SMOOTH",
"114 129 OFFCURVE",
"110 152 OFFCURVE",
"110 179 CURVE SMOOTH",
"110 531 LINE",
"46 531 LINE",
"46 171 LINE SMOOTH",
"46 126 OFFCURVE",
"51 88 OFFCURVE",
"62 61 CURVE SMOOTH",
"82 11 OFFCURVE",
"118 -14 OFFCURVE",
"170 -14 CURVE SMOOTH"
);
}
);
width = 391;
}
);
note = u;
unicode = 0075;
},
{
glyphname = v;
lastChange = "2019-03-11 07:10:32 +0000";
layers = (
{
layerId = "994FE389-9D54-4FAA-B055-C46A67020E78";
paths = (
{
closed = 1;
nodes = (
"345 -1 LINE",
"545 531 LINE",
"448 531 LINE",
"299 98 LINE",
"158 531 LINE",
"55 531 LINE",
"250 -1 LINE"
);
}
);
width = 600;
},
{
layerId = "CBA2E3C4-6E62-469B-BD2C-D62FAD87CF88";
paths = (
{
closed = 1;
nodes = (
"242 -1 LINE",
"382 531 LINE",
"314 531 LINE",
"210 98 LINE",
"111 531 LINE",
"39 531 LINE",
"176 -1 LINE"
);
}
);
width = 420;
}
);
note = v;
unicode = 0076;
},
{
glyphname = w;
lastChange = "2019-03-11 07:10:32 +0000";
layers = (
{
layerId = "994FE389-9D54-4FAA-B055-C46A67020E78";
paths = (
{
closed = 1;
nodes = (
"300 0 LINE",
"403 409 LINE",
"512 0 LINE",
"604 0 LINE",
"757 529 LINE",
"669 529 LINE",
"561 116 LINE",
"457 529 LINE",
"356 529 LINE",
"253 113 LINE",
"152 529 LINE",
"55 529 LINE",
"208 0 LINE"
);
}
);
width = 812;
},
{
layerId = "CBA2E3C4-6E62-469B-BD2C-D62FAD87CF88";
paths = (
{
closed = 1;
nodes = (
"210 0 LINE",
"283 409 LINE",
"359 0 LINE",
"423 0 LINE",
"530 529 LINE",
"469 529 LINE",
"393 116 LINE",
"320 529 LINE",
"250 529 LINE",
"178 113 LINE",
"107 529 LINE",
"39 529 LINE",
"146 0 LINE"
);
}
);
width = 568;
}
);
note = w;
unicode = 0077;
},
{
glyphname = x;
lastChange = "2019-03-11 07:10:32 +0000";
layers = (
{
layerId = "994FE389-9D54-4FAA-B055-C46A67020E78";
paths = (
{
closed = 1;
nodes = (
"169 1 LINE",
"296 201 LINE",
"428 1 LINE",
"544 1 LINE",
"356 274 LINE",
"535 531 LINE",
"426 533 LINE",
"303 346 LINE",
"181 533 LINE",
"65 533 LINE",
"243 274 LINE",
"55 1 LINE"
);
}
);
width = 599;
},
{
layerId = "CBA2E3C4-6E62-469B-BD2C-D62FAD87CF88";
paths = (
{
closed = 1;
nodes = (
"119 1 LINE",
"208 201 LINE",
"300 1 LINE",
"381 1 LINE",
"250 274 LINE",
"375 531 LINE",
"299 533 LINE",
"213 346 LINE",
"127 533 LINE",
"46 533 LINE",
"171 274 LINE",
"39 1 LINE"
);
}
);
width = 419;
}
);
note = x;
unicode = 0078;
},
{
glyphname = y;
lastChange = "2019-03-11 07:10:32 +0000";
layers = (
{
layerId = "994FE389-9D54-4FAA-B055-C46A67020E78";
paths = (
{
closed = 1;
nodes = (
"203 -189 OFFCURVE",
"238 -175 OFFCURVE",
"258 -146 CURVE SMOOTH",
"278 -117 OFFCURVE",
"314 -38 OFFCURVE",
"363 92 CURVE SMOOTH",
"364 95 OFFCURVE",
"418 237 OFFCURVE",
"442 306 CURVE SMOOTH",
"455 344 OFFCURVE",
"511 498 OFFCURVE",
"522 531 CURVE",
"427 531 LINE",
"290 116 LINE",
"152 531 LINE",
"55 531 LINE",
"244 6 LINE",
"239 -6 OFFCURVE",
"239 -9 OFFCURVE",
"223 -47 CURVE SMOOTH",
"215 -67 OFFCURVE",
"207 -84 OFFCURVE",
"205 -86 CURVE",
"200 -94 OFFCURVE",
"194 -100 OFFCURVE",
"186 -105 CURVE",
"179 -110 OFFCURVE",
"167 -114 OFFCURVE",
"151 -114 CURVE SMOOTH",
"147 -114 OFFCURVE",
"141 -113 OFFCURVE",
"134 -112 CURVE SMOOTH",
"127 -111 OFFCURVE",
"117 -108 OFFCURVE",
"102 -104 CURVE",
"102 -182 LINE",
"125 -187 LINE",
"132 -188 OFFCURVE",
"142 -189 OFFCURVE",
"153 -189 CURVE SMOOTH"
);
}
);
width = 577;
},
{
layerId = "CBA2E3C4-6E62-469B-BD2C-D62FAD87CF88";
paths = (
{
closed = 1;
nodes = (
"143 -189 OFFCURVE",
"167 -175 OFFCURVE",
"181 -146 CURVE SMOOTH",
"195 -117 OFFCURVE",
"228 -11 OFFCURVE",
"255 92 CURVE SMOOTH",
"255 92 OFFCURVE",
"295 244 OFFCURVE",
"310 306 CURVE SMOOTH",
"319 345 OFFCURVE",
"358 498 OFFCURVE",
"366 531 CURVE",
"299 531 LINE",
"204 116 LINE",
"107 531 LINE",
"39 531 LINE",
"171 6 LINE",
"168 -5 OFFCURVE",
"164 -22 OFFCURVE",
"157 -46 CURVE SMOOTH",
"154 -56 OFFCURVE",
"146 -83 OFFCURVE",
"144 -86 CURVE",
"138 -99 OFFCURVE",
"135 -100 OFFCURVE",
"131 -105 CURVE",
"126 -110 OFFCURVE",
"117 -114 OFFCURVE",
"106 -114 CURVE SMOOTH",
"104 -114 OFFCURVE",
"99 -113 OFFCURVE",
"94 -112 CURVE SMOOTH",
"89 -111 OFFCURVE",
"83 -108 OFFCURVE",
"72 -104 CURVE",
"72 -182 LINE",
"88 -187 LINE",
"93 -188 OFFCURVE",
"100 -189 OFFCURVE",
"108 -189 CURVE SMOOTH"
);
}
);
width = 405;
}
);
note = y;
unicode = 0079;
},
{
glyphname = z;
lastChange = "2019-03-11 07:10:32 +0000";
layers = (
{
layerId = "994FE389-9D54-4FAA-B055-C46A67020E78";
paths = (
{
closed = 1;
nodes = (
"511 -1 LINE",
"511 79 LINE",
"188 79 LINE",
"502 458 LINE",
"502 531 LINE",
"89 531 LINE",
"89 451 LINE",
"381 451 LINE",
"65 69 LINE",
"65 -1 LINE"
);
}
);
width = 576;
},
{
layerId = "CBA2E3C4-6E62-469B-BD2C-D62FAD87CF88";
paths = (
{
closed = 1;
nodes = (
"358 -1 LINE",
"358 79 LINE",
"132 79 LINE",
"352 458 LINE",
"352 531 LINE",
"63 531 LINE",
"63 451 LINE",
"267 451 LINE",
"46 69 LINE",
"46 -1 LINE"
);
}
);
width = 403;
}
);
note = z;
unicode = 007A;
},
{
glyphname = A_W.liga;
lastChange = "2019-03-11 07:10:32 +0000";
layers = (
{
layerId = "994FE389-9D54-4FAA-B055-C46A67020E78";
paths = (
{
closed = 1;
nodes = (
"854 0 LINE",
"1013 566 LINE",
"1171 0 LINE",
"1268 0 LINE",
"1448 684 LINE",
"1346 684 LINE",
"1217 128 LINE",
"1064 684 LINE",
"962 684 LINE",
"809 128 LINE",
"679 684 LINE",
"579 684 LINE",
"758 0 LINE"
);
},
{
closed = 1;
nodes = (
"164 0 LINE",
"238 203 LINE",
"508 203 LINE",
"577 0 LINE",
"679 0 LINE",
"431 682 LINE",
"326 682 LINE",
"70 0 LINE"
);
},
{
closed = 1;
nodes = (
"376 579 LINE",
"478 278 LINE",
"264 278 LINE"
);
}
);
width = 1518;
},
{
layerId = "CBA2E3C4-6E62-469B-BD2C-D62FAD87CF88";
paths = (
{
closed = 1;
nodes = (
"598 0 LINE",
"709 566 LINE",
"820 0 LINE",
"888 0 LINE",
"1014 684 LINE",
"942 684 LINE",
"852 128 LINE",
"745 684 LINE",
"673 684 LINE",
"566 128 LINE",
"475 684 LINE",
"405 684 LINE",
"531 0 LINE"
);
},
{
closed = 1;
nodes = (
"115 0 LINE",
"167 203 LINE",
"356 203 LINE",
"404 0 LINE",
"475 0 LINE",
"302 682 LINE",
"228 682 LINE",
"49 0 LINE"
);
},
{
closed = 1;
nodes = (
"263 579 LINE",
"335 278 LINE",
"185 278 LINE"
);
}
);
width = 1063;
}
);
},
{
glyphname = W_A.liga;
lastChange = "2019-03-11 07:10:32 +0000";
layers = (
{
layerId = "994FE389-9D54-4FAA-B055-C46A67020E78";
paths = (
{
closed = 1;
nodes = (
"345 0 LINE",
"504 566 LINE",
"662 0 LINE",
"759 0 LINE",
"939 684 LINE",
"837 684 LINE",
"708 128 LINE",
"555 684 LINE",
"453 684 LINE",
"300 128 LINE",
"170 684 LINE",
"70 684 LINE",
"249 0 LINE"
);
},
{
closed = 1;
nodes = (
"943 0 LINE",
"1016 203 LINE",
"1286 203 LINE",
"1356 0 LINE",
"1457 0 LINE",
"1209 682 LINE",
"1105 682 LINE",
"848 0 LINE"
);
},
{
closed = 1;
nodes = (
"1155 579 LINE",
"1256 278 LINE",
"1043 278 LINE"
);
}
);
width = 1527;
},
{
layerId = "CBA2E3C4-6E62-469B-BD2C-D62FAD87CF88";
paths = (
{
closed = 1;
nodes = (
"241 0 LINE",
"353 566 LINE",
"463 0 LINE",
"531 0 LINE",
"657 684 LINE",
"586 684 LINE",
"496 128 LINE",
"389 684 LINE",
"317 684 LINE",
"210 128 LINE",
"119 684 LINE",
"49 684 LINE",
"174 0 LINE"
);
},
{
closed = 1;
nodes = (
"660 0 LINE",
"711 203 LINE",
"900 203 LINE",
"949 0 LINE",
"1020 0 LINE",
"846 682 LINE",
"773 682 LINE",
"594 0 LINE"
);
},
{
closed = 1;
nodes = (
"809 579 LINE",
"879 278 LINE",
"730 278 LINE"
);
}
);
width = 1069;
}
);
},
{
glyphname = f_i.liga;
lastChange = "2019-03-11 07:10:32 +0000";
layers = (
{
components = (
{
name = f;
transform = "{1, 0, 0, 1, -10, 0}";
}
);
layerId = "994FE389-9D54-4FAA-B055-C46A67020E78";
paths = (
{
closed = 1;
nodes = (
"440 -1 LINE",
"440 526 LINE",
"350 526 LINE",
"350 -1 LINE"
);
},
{
closed = 1;
nodes = (
"440 626 LINE",
"440 727 LINE",
"350 727 LINE",
"350 626 LINE"
);
}
);
width = 510;
},
{
components = (
{
name = f;
transform = "{1, 0, 0, 1, -7, 0}";
}
);
layerId = "CBA2E3C4-6E62-469B-BD2C-D62FAD87CF88";
paths = (
{
closed = 1;
nodes = (
"308 -1 LINE",
"308 526 LINE",
"245 526 LINE",
"245 -1 LINE"
);
},
{
closed = 1;
nodes = (
"308 626 LINE",
"308 727 LINE",
"245 727 LINE",
"245 626 LINE"
);
}
);
width = 510;
}
);
},
{
glyphname = f_l.liga;
lastChange = "2019-03-11 07:10:32 +0000";
layers = (
{
components = (
{
name = f;
transform = "{1, 0, 0, 1, -10, 0}";
}
);
layerId = "994FE389-9D54-4FAA-B055-C46A67020E78";
paths = (
{
closed = 1;
nodes = (
"437 0 LINE",
"437 722 LINE",
"348 722 LINE",
"348 0 LINE"
);
}
);
width = 507;
},
{
components = (
{
name = f;
transform = "{1, 0, 0, 1, -7, 0}";
}
);
layerId = "CBA2E3C4-6E62-469B-BD2C-D62FAD87CF88";
paths = (
{
closed = 1;
nodes = (
"306 0 LINE",
"306 722 LINE",
"244 722 LINE",
"244 0 LINE"
);
}
);
width = 507;
}
);
},
{
glyphname = "ra_xa-ethiopic.liga";
lastChange = "2019-03-11 07:10:32 +0000";
layers = (
{
components = (
{
name = "ra-ethiopic";
}
);
layerId = "994FE389-9D54-4FAA-B055-C46A67020E78";
paths = (
{
closed = 1;
nodes = (
"800 0 LINE",
"800 439 LINE SMOOTH",
"800 531 OFFCURVE",
"800 531 OFFCURVE",
"697 531 CURVE SMOOTH",
"468 531 LINE",
"468 727 LINE",
"377 727 LINE",
"377 654 LINE",
"246 654 LINE",
"246 571 LINE",
"377 571 LINE",
"377 505 LINE SMOOTH",
"377 477 OFFCURVE",
"394 458 OFFCURVE",
"423 458 CURVE SMOOTH",
"651 458 LINE SMOOTH",
"710 458 OFFCURVE",
"710 458 OFFCURVE",
"710 278 CURVE SMOOTH",
"710 0 LINE"
);
}
);
width = 870;
},
{
components = (
{
name = "ra-ethiopic";
}
);
layerId = "CBA2E3C4-6E62-469B-BD2C-D62FAD87CF88";
paths = (
{
closed = 1;
nodes = (
"560 0 LINE",
"560 439 LINE SMOOTH",
"560 531 OFFCURVE",
"560 531 OFFCURVE",
"488 531 CURVE SMOOTH",
"327 531 LINE",
"327 727 LINE",
"264 727 LINE",
"264 654 LINE",
"172 654 LINE",
"172 571 LINE",
"264 571 LINE",
"264 505 LINE SMOOTH",
"264 477 OFFCURVE",
"276 458 OFFCURVE",
"296 458 CURVE SMOOTH",
"456 458 LINE SMOOTH",
"497 458 OFFCURVE",
"497 458 OFFCURVE",
"497 278 CURVE SMOOTH",
"497 0 LINE"
);
}
);
width = 582;
}
);
note = uni1280;
},
{
glyphname = "ra_xu-ethiopic.liga";
lastChange = "2019-03-11 07:10:32 +0000";
layers = (
{
layerId = "994FE389-9D54-4FAA-B055-C46A67020E78";
paths = (
{
closed = 1;
nodes = (
"755 0 LINE",
"755 246 LINE",
"854 246 LINE",
"854 346 LINE",
"755 346 LINE",
"755 439 LINE SMOOTH",
"755 531 OFFCURVE",
"755 531 OFFCURVE",
"652 531 CURVE SMOOTH",
"422 531 LINE",
"422 727 LINE",
"332 727 LINE",
"332 654 LINE",
"201 654 LINE",
"201 571 LINE",
"332 571 LINE",
"332 505 LINE SMOOTH",
"332 477 OFFCURVE",
"349 458 OFFCURVE",
"378 458 CURVE SMOOTH",
"606 458 LINE SMOOTH",
"664 458 OFFCURVE",
"664 458 OFFCURVE",
"664 278 CURVE SMOOTH",
"664 0 LINE"
);
},
{
closed = 1;
nodes = (
"498 79 LINE",
"249 78 LINE SMOOTH",
"172 78 OFFCURVE",
"156 85 OFFCURVE",
"156 212 CURVE SMOOTH",
"156 312 OFFCURVE",
"159 478 OFFCURVE",
"159 531 CURVE",
"70 531 LINE",
"70 134 LINE SMOOTH",
"70 54 OFFCURVE",
"111 0 OFFCURVE",
"162 0 CURVE SMOOTH",
"497 -1 LINE"
);
}
);
width = 924;
},
{
layerId = "CBA2E3C4-6E62-469B-BD2C-D62FAD87CF88";
paths = (
{
closed = 1;
nodes = (
"529 0 LINE",
"529 246 LINE",
"598 246 LINE",
"598 346 LINE",
"529 346 LINE",
"529 439 LINE SMOOTH",
"529 531 OFFCURVE",
"529 531 OFFCURVE",
"456 531 CURVE SMOOTH",
"295 531 LINE",
"295 727 LINE",
"232 727 LINE",
"232 654 LINE",
"141 654 LINE",
"141 571 LINE",
"232 571 LINE",
"232 505 LINE SMOOTH",
"232 478 OFFCURVE",
"244 458 OFFCURVE",
"265 458 CURVE SMOOTH",
"424 458 LINE SMOOTH",
"465 458 OFFCURVE",
"465 458 OFFCURVE",
"465 278 CURVE SMOOTH",
"465 0 LINE"
);
},
{
closed = 1;
nodes = (
"349 79 LINE",
"174 78 LINE SMOOTH",
"125 78 OFFCURVE",
"109 77 OFFCURVE",
"109 212 CURVE SMOOTH",
"109 312 OFFCURVE",
"111 478 OFFCURVE",
"111 531 CURVE",
"49 531 LINE",
"49 134 LINE SMOOTH",
"49 53 OFFCURVE",
"78 0 OFFCURVE",
"113 0 CURVE SMOOTH",
"348 -1 LINE"
);
}
);
width = 647;
}
);
note = uni1281;
},
{
glyphname = "ra_xi-ethiopic.liga";
lastChange = "2019-03-11 07:10:32 +0000";
layers = (
{
layerId = "994FE389-9D54-4FAA-B055-C46A67020E78";
paths = (
{
closed = 1;
nodes = (
"865 0 LINE",
"865 100 LINE",
"765 100 LINE",
"765 439 LINE SMOOTH",
"765 531 OFFCURVE",
"765 531 OFFCURVE",
"661 531 CURVE SMOOTH",
"432 531 LINE",
"432 727 LINE",
"341 727 LINE",
"341 654 LINE",
"210 654 LINE",
"210 571 LINE",
"341 571 LINE",
"341 505 LINE SMOOTH",
"341 477 OFFCURVE",
"358 458 OFFCURVE",
"387 458 CURVE SMOOTH",
"616 458 LINE SMOOTH",
"674 458 OFFCURVE",
"674 458 OFFCURVE",
"674 278 CURVE SMOOTH",
"674 0 LINE"
);
},
{
closed = 1;
nodes = (
"498 79 LINE",
"249 78 LINE SMOOTH",
"173 78 OFFCURVE",
"156 85 OFFCURVE",
"156 212 CURVE SMOOTH",
"156 312 OFFCURVE",
"159 478 OFFCURVE",
"159 531 CURVE",
"70 531 LINE",
"70 134 LINE SMOOTH",
"70 54 OFFCURVE",
"111 0 OFFCURVE",
"163 0 CURVE SMOOTH",
"497 -1 LINE"
);
}
);
width = 935;
},
{
layerId = "CBA2E3C4-6E62-469B-BD2C-D62FAD87CF88";
paths = (
{
closed = 1;
nodes = (
"606 0 LINE",
"606 100 LINE",
"536 100 LINE",
"536 439 LINE SMOOTH",
"536 531 OFFCURVE",
"536 531 OFFCURVE",
"463 531 CURVE SMOOTH",
"302 531 LINE",
"302 727 LINE",
"239 727 LINE",
"239 654 LINE",
"147 654 LINE",
"147 571 LINE",
"239 571 LINE",
"239 505 LINE SMOOTH",
"239 477 OFFCURVE",
"251 458 OFFCURVE",
"271 458 CURVE SMOOTH",
"431 458 LINE SMOOTH",
"472 458 OFFCURVE",
"472 458 OFFCURVE",
"472 278 CURVE SMOOTH",
"472 0 LINE"
);
},
{
closed = 1;
nodes = (
"349 79 LINE",
"174 78 LINE SMOOTH",
"125 78 OFFCURVE",
"109 78 OFFCURVE",
"109 212 CURVE SMOOTH",
"109 312 OFFCURVE",
"111 478 OFFCURVE",
"111 531 CURVE",
"49 531 LINE",
"49 134 LINE SMOOTH",
"49 53 OFFCURVE",
"78 0 OFFCURVE",
"114 0 CURVE SMOOTH",
"348 -1 LINE"
);
}
);
width = 655;
}
);
note = uni1282;
},
{
glyphname = "ra_xee-ethiopic.liga";
lastChange = "2019-03-11 07:10:32 +0000";
layers = (
{
layerId = "994FE389-9D54-4FAA-B055-C46A67020E78";
paths = (
{
closed = 1;
nodes = (
"851 0 LINE SMOOTH",
"897 0 OFFCURVE",
"929 16 OFFCURVE",
"947 46 CURVE SMOOTH",
"957 63 OFFCURVE",
"962 82 OFFCURVE",
"962 103 CURVE SMOOTH",
"962 131 OFFCURVE",
"954 155 OFFCURVE",
"935 170 CURVE SMOOTH",
"913 188 OFFCURVE",
"889 200 OFFCURVE",
"852 200 CURVE SMOOTH",
"841 200 LINE",
"841 439 LINE SMOOTH",
"841 531 OFFCURVE",
"841 531 OFFCURVE",
"738 531 CURVE SMOOTH",
"509 531 LINE",
"509 727 LINE",
"418 727 LINE",
"418 654 LINE",
"287 654 LINE",
"287 571 LINE",
"418 571 LINE",
"418 505 LINE SMOOTH",
"418 477 OFFCURVE",
"435 458 OFFCURVE",
"464 458 CURVE SMOOTH",
"692 458 LINE SMOOTH",
"750 458 OFFCURVE",
"750 458 OFFCURVE",
"750 278 CURVE SMOOTH",
"750 0 LINE"
);
},
{
closed = 1;
nodes = (
"498 79 LINE",
"249 78 LINE SMOOTH",
"172 78 OFFCURVE",
"156 85 OFFCURVE",
"156 212 CURVE SMOOTH",
"156 312 OFFCURVE",
"159 478 OFFCURVE",
"159 531 CURVE",
"70 531 LINE",
"70 134 LINE SMOOTH",
"70 54 OFFCURVE",
"110 0 OFFCURVE",
"162 0 CURVE SMOOTH",
"497 -1 LINE"
);
},
{
closed = 1;
nodes = (
"841 176 LINE",
"859 173 OFFCURVE",
"873 167 OFFCURVE",
"883 157 CURVE SMOOTH",
"896 144 OFFCURVE",
"901 124 OFFCURVE",
"901 99 CURVE SMOOTH",
"901 92 OFFCURVE",
"900 86 OFFCURVE",
"899 78 CURVE",
"895 65 OFFCURVE",
"890 55 OFFCURVE",
"884 46 CURVE",
"876 36 OFFCURVE",
"864 29 OFFCURVE",
"850 26 CURVE",
"847 25 OFFCURVE",
"844 25 OFFCURVE",
"841 24 CURVE"
);
}
);
width = 1032;
},
{
layerId = "CBA2E3C4-6E62-469B-BD2C-D62FAD87CF88";
paths = (
{
closed = 1;
nodes = (
"596 0 LINE SMOOTH",
"628 0 OFFCURVE",
"650 16 OFFCURVE",
"663 46 CURVE SMOOTH",
"670 63 OFFCURVE",
"673 83 OFFCURVE",
"673 103 CURVE SMOOTH",
"673 131 OFFCURVE",
"669 153 OFFCURVE",
"654 170 CURVE SMOOTH",
"637 189 OFFCURVE",
"623 200 OFFCURVE",
"596 200 CURVE SMOOTH",
"589 200 LINE",
"589 439 LINE SMOOTH",
"589 531 OFFCURVE",
"589 531 OFFCURVE",
"517 531 CURVE SMOOTH",
"356 531 LINE",
"356 727 LINE",
"293 727 LINE",
"293 654 LINE",
"201 654 LINE",
"201 571 LINE",
"293 571 LINE",
"293 505 LINE SMOOTH",
"293 477 OFFCURVE",
"305 458 OFFCURVE",
"325 458 CURVE SMOOTH",
"484 458 LINE SMOOTH",
"525 458 OFFCURVE",
"525 458 OFFCURVE",
"525 278 CURVE SMOOTH",
"525 0 LINE"
);
},
{
closed = 1;
nodes = (
"349 79 LINE",
"174 78 LINE SMOOTH",
"125 78 OFFCURVE",
"109 77 OFFCURVE",
"109 212 CURVE SMOOTH",
"109 312 OFFCURVE",
"111 478 OFFCURVE",
"111 531 CURVE",
"49 531 LINE",
"49 134 LINE SMOOTH",
"49 54 OFFCURVE",
"77 0 OFFCURVE",
"113 0 CURVE SMOOTH",
"348 -1 LINE"
);
},
{
closed = 1;
nodes = (
"589 176 LINE",
"601 173 OFFCURVE",
"610 168 OFFCURVE",
"618 157 CURVE SMOOTH",
"627 144 OFFCURVE",
"631 126 OFFCURVE",
"631 99 CURVE SMOOTH",
"631 92 OFFCURVE",
"630 86 OFFCURVE",
"629 78 CURVE",
"628 72 OFFCURVE",
"623 53 OFFCURVE",
"619 46 CURVE",
"613 36 OFFCURVE",
"606 29 OFFCURVE",
"595 26 CURVE",
"593 25 OFFCURVE",
"591 25 OFFCURVE",
"589 24 CURVE"
);
}
);
width = 722;
}
);
note = uni1284;
},
{
glyphname = "ra_xe-ethiopic.liga";
lastChange = "2019-03-11 07:10:32 +0000";
layers = (
{
layerId = "994FE389-9D54-4FAA-B055-C46A67020E78";
paths = (
{
closed = 1;
nodes = (
"822 0 LINE",
"822 439 LINE SMOOTH",
"822 531 OFFCURVE",
"822 531 OFFCURVE",
"719 531 CURVE SMOOTH",
"490 531 LINE",
"490 727 LINE",
"399 727 LINE",
"399 638 LINE",
"272 638 LINE",
"272 635 LINE",
"269 635 LINE",
"269 482 LINE",
"334 482 LINE",
"334 568 LINE SMOOTH",
"334 581 OFFCURVE",
"345 591 OFFCURVE",
"358 591 CURVE SMOOTH",
"399 591 LINE",
"399 458 LINE",
"673 458 LINE SMOOTH",
"731 458 OFFCURVE",
"731 458 OFFCURVE",
"731 278 CURVE SMOOTH",
"731 0 LINE"
);
},
{
closed = 1;
nodes = (
"498 79 LINE",
"249 78 LINE SMOOTH",
"172 78 OFFCURVE",
"156 85 OFFCURVE",
"156 212 CURVE SMOOTH",
"156 312 OFFCURVE",
"159 478 OFFCURVE",
"159 531 CURVE",
"70 531 LINE",
"70 134 LINE SMOOTH",
"70 54 OFFCURVE",
"111 0 OFFCURVE",
"162 0 CURVE SMOOTH",
"497 -1 LINE"
);
}
);
width = 892;
},
{
layerId = "CBA2E3C4-6E62-469B-BD2C-D62FAD87CF88";
paths = (
{
closed = 1;
nodes = (
"575 0 LINE",
"575 439 LINE SMOOTH",
"575 531 OFFCURVE",
"575 531 OFFCURVE",
"503 531 CURVE SMOOTH",
"343 531 LINE",
"343 727 LINE",
"279 727 LINE",
"279 638 LINE",
"190 638 LINE",
"190 635 LINE",
"188 635 LINE",
"188 482 LINE",
"234 482 LINE",
"234 568 LINE SMOOTH",
"234 581 OFFCURVE",
"242 591 OFFCURVE",
"251 591 CURVE SMOOTH",
"279 591 LINE",
"279 458 LINE",
"471 458 LINE SMOOTH",
"512 458 OFFCURVE",
"512 458 OFFCURVE",
"512 278 CURVE SMOOTH",
"512 0 LINE"
);
},
{
closed = 1;
nodes = (
"349 79 LINE",
"174 78 LINE SMOOTH",
"125 78 OFFCURVE",
"109 77 OFFCURVE",
"109 212 CURVE SMOOTH",
"109 312 OFFCURVE",
"111 478 OFFCURVE",
"111 531 CURVE",
"49 531 LINE",
"49 134 LINE SMOOTH",
"49 53 OFFCURVE",
"78 0 OFFCURVE",
"113 0 CURVE SMOOTH",
"348 -1 LINE"
);
}
);
width = 624;
}
);
note = uni1285;
},
{
glyphname = "ra_xwa-ethiopic.liga";
lastChange = "2019-03-11 07:10:32 +0000";
layers = (
{
layerId = "994FE389-9D54-4FAA-B055-C46A67020E78";
paths = (
{
closed = 1;
nodes = (
"731 0 LINE",
"731 215 LINE",
"749 215 LINE SMOOTH",
"794 215 OFFCURVE",
"826 228 OFFCURVE",
"844 253 CURVE SMOOTH",
"854 266 OFFCURVE",
"860 283 OFFCURVE",
"860 300 CURVE SMOOTH",
"860 323 OFFCURVE",
"851 343 OFFCURVE",
"832 356 CURVE SMOOTH",
"810 371 OFFCURVE",
"786 380 OFFCURVE",
"750 380 CURVE SMOOTH",
"731 380 LINE",
"731 439 LINE SMOOTH",
"731 531 OFFCURVE",
"731 531 OFFCURVE",
"628 531 CURVE SMOOTH",
"517 531 LINE",
"517 727 LINE",
"426 727 LINE",
"426 605 LINE",
"344 605 LINE",
"344 531 LINE",
"426 531 LINE",
"426 458 LINE",
"582 458 LINE SMOOTH",
"640 458 OFFCURVE",
"640 458 OFFCURVE",
"640 278 CURVE SMOOTH",
"640 0 LINE"
);
},
{
closed = 1;
nodes = (
"498 79 LINE",
"249 78 LINE SMOOTH",
"172 78 OFFCURVE",
"156 85 OFFCURVE",
"156 212 CURVE SMOOTH",
"156 312 OFFCURVE",
"159 478 OFFCURVE",
"159 531 CURVE",
"70 531 LINE",
"70 134 LINE SMOOTH",
"70 54 OFFCURVE",
"110 0 OFFCURVE",
"162 0 CURVE SMOOTH",
"497 -1 LINE"
);
},
{
closed = 1;
nodes = (
"731 361 LINE",
"753 360 OFFCURVE",
"770 354 OFFCURVE",
"780 345 CURVE SMOOTH",
"793 334 OFFCURVE",
"799 316 OFFCURVE",
"799 296 CURVE SMOOTH",
"799 291 OFFCURVE",
"798 286 OFFCURVE",
"796 279 CURVE",
"792 268 OFFCURVE",
"788 260 OFFCURVE",
"781 253 CURVE",
"773 244 OFFCURVE",
"761 239 OFFCURVE",
"747 236 CURVE SMOOTH",
"742 235 OFFCURVE",
"737 234 OFFCURVE",
"731 234 CURVE"
);
}
);
width = 930;
},
{
layerId = "CBA2E3C4-6E62-469B-BD2C-D62FAD87CF88";
paths = (
{
closed = 1;
nodes = (
"512 0 LINE",
"512 215 LINE",
"524 215 LINE SMOOTH",
"556 215 OFFCURVE",
"578 228 OFFCURVE",
"591 253 CURVE SMOOTH",
"598 266 OFFCURVE",
"602 285 OFFCURVE",
"602 300 CURVE SMOOTH",
"602 322 OFFCURVE",
"595 344 OFFCURVE",
"583 356 CURVE SMOOTH",
"567 371 OFFCURVE",
"549 380 OFFCURVE",
"525 380 CURVE SMOOTH",
"512 380 LINE",
"512 439 LINE SMOOTH",
"512 531 OFFCURVE",
"512 531 OFFCURVE",
"440 531 CURVE SMOOTH",
"362 531 LINE",
"362 727 LINE",
"298 727 LINE",
"298 605 LINE",
"241 605 LINE",
"241 531 LINE",
"298 531 LINE",
"298 458 LINE",
"407 458 LINE SMOOTH",
"448 458 OFFCURVE",
"448 458 OFFCURVE",
"448 278 CURVE SMOOTH",
"448 0 LINE"
);
},
{
closed = 1;
nodes = (
"349 79 LINE",
"174 78 LINE SMOOTH",
"125 78 OFFCURVE",
"109 77 OFFCURVE",
"109 212 CURVE SMOOTH",
"109 312 OFFCURVE",
"111 478 OFFCURVE",
"111 531 CURVE",
"49 531 LINE",
"49 134 LINE SMOOTH",
"49 54 OFFCURVE",
"77 0 OFFCURVE",
"113 0 CURVE SMOOTH",
"348 -1 LINE"
);
},
{
closed = 1;
nodes = (
"512 361 LINE",
"527 360 OFFCURVE",
"539 355 OFFCURVE",
"546 345 CURVE SMOOTH",
"555 334 OFFCURVE",
"559 317 OFFCURVE",
"559 296 CURVE SMOOTH",
"559 291 OFFCURVE",
"559 286 OFFCURVE",
"557 279 CURVE",
"554 264 OFFCURVE",
"552 262 OFFCURVE",
"547 253 CURVE",
"542 245 OFFCURVE",
"533 239 OFFCURVE",
"523 236 CURVE SMOOTH",
"519 235 OFFCURVE",
"515 234 OFFCURVE",
"512 234 CURVE"
);
}
);
width = 651;
}
);
},
{
glyphname = "ra_xwi-ethiopic.liga";
lastChange = "2019-03-11 07:10:32 +0000";
layers = (
{
layerId = "994FE389-9D54-4FAA-B055-C46A67020E78";
paths = (
{
closed = 1;
nodes = (
"730 0 LINE",
"730 273 LINE",
"771 273 LINE",
"771 229 LINE",
"932 229 LINE",
"932 276 LINE",
"820 276 LINE",
"820 391 LINE",
"778 391 LINE",
"778 323 LINE",
"730 323 LINE",
"730 439 LINE SMOOTH",
"730 531 OFFCURVE",
"730 531 OFFCURVE",
"626 531 CURVE SMOOTH",
"515 531 LINE",
"515 727 LINE",
"424 727 LINE",
"424 605 LINE",
"342 605 LINE",
"342 531 LINE",
"424 531 LINE",
"424 458 LINE",
"580 458 LINE SMOOTH",
"639 458 OFFCURVE",
"639 458 OFFCURVE",
"639 278 CURVE SMOOTH",
"639 0 LINE"
);
},
{
closed = 1;
nodes = (
"498 79 LINE",
"249 78 LINE SMOOTH",
"172 78 OFFCURVE",
"156 85 OFFCURVE",
"156 212 CURVE SMOOTH",
"156 312 OFFCURVE",
"159 478 OFFCURVE",
"159 531 CURVE",
"70 531 LINE",
"70 134 LINE SMOOTH",
"70 54 OFFCURVE",
"110 0 OFFCURVE",
"162 0 CURVE SMOOTH",
"497 -1 LINE"
);
}
);
width = 1002;
},
{
layerId = "CBA2E3C4-6E62-469B-BD2C-D62FAD87CF88";
paths = (
{
closed = 1;
nodes = (
"511 0 LINE",
"511 273 LINE",
"540 273 LINE",
"540 229 LINE",
"652 229 LINE",
"652 276 LINE",
"574 276 LINE",
"574 391 LINE",
"545 391 LINE",
"545 323 LINE",
"511 323 LINE",
"511 439 LINE SMOOTH",
"511 531 OFFCURVE",
"511 531 OFFCURVE",
"438 531 CURVE SMOOTH",
"361 531 LINE",
"361 727 LINE",
"297 727 LINE",
"297 605 LINE",
"239 605 LINE",
"239 531 LINE",
"297 531 LINE",
"297 458 LINE",
"406 458 LINE SMOOTH",
"447 458 OFFCURVE",
"447 458 OFFCURVE",
"447 278 CURVE SMOOTH",
"447 0 LINE"
);
},
{
closed = 1;
nodes = (
"349 79 LINE",
"174 78 LINE SMOOTH",
"125 78 OFFCURVE",
"109 77 OFFCURVE",
"109 212 CURVE SMOOTH",
"109 312 OFFCURVE",
"111 478 OFFCURVE",
"111 531 CURVE",
"49 531 LINE",
"49 134 LINE SMOOTH",
"49 54 OFFCURVE",
"77 0 OFFCURVE",
"113 0 CURVE SMOOTH",
"348 -1 LINE"
);
}
);
width = 701;
}
);
},
{
glyphname = "ra_xwaa-ethiopic.liga";
lastChange = "2019-03-11 07:10:32 +0000";
layers = (
{
layerId = "994FE389-9D54-4FAA-B055-C46A67020E78";
paths = (
{
closed = 1;
nodes = (
"988 -182 LINE",
"988 0 LINE",
"843 0 LINE",
"843 439 LINE SMOOTH",
"843 531 OFFCURVE",
"843 531 OFFCURVE",
"739 531 CURVE SMOOTH",
"510 531 LINE",
"510 727 LINE",
"419 727 LINE",
"419 649 LINE",
"302 649 LINE",
"302 555 LINE",
"419 555 LINE",
"419 505 LINE SMOOTH",
"419 477 OFFCURVE",
"437 458 OFFCURVE",
"466 458 CURVE SMOOTH",
"694 458 LINE SMOOTH",
"752 458 OFFCURVE",
"752 458 OFFCURVE",
"752 278 CURVE SMOOTH",
"752 0 LINE",
"631 0 LINE",
"631 -56 LINE",
"891 -56 LINE",
"891 -182 LINE"
);
},
{
closed = 1;
nodes = (
"498 79 LINE",
"249 78 LINE SMOOTH",
"173 78 OFFCURVE",
"157 85 OFFCURVE",
"157 212 CURVE SMOOTH",
"157 312 OFFCURVE",
"159 478 OFFCURVE",
"159 531 CURVE",
"70 531 LINE",
"70 134 LINE SMOOTH",
"70 54 OFFCURVE",
"111 0 OFFCURVE",
"163 0 CURVE SMOOTH",
"498 -1 LINE"
);
}
);
width = 1058;
},
{
layerId = "CBA2E3C4-6E62-469B-BD2C-D62FAD87CF88";
paths = (
{
closed = 1;
nodes = (
"692 -182 LINE",
"692 0 LINE",
"590 0 LINE",
"590 439 LINE SMOOTH",
"590 531 OFFCURVE",
"590 531 OFFCURVE",
"517 531 CURVE SMOOTH",
"357 531 LINE",
"357 727 LINE",
"293 727 LINE",
"293 649 LINE",
"211 649 LINE",
"211 555 LINE",
"293 555 LINE",
"293 505 LINE SMOOTH",
"293 477 OFFCURVE",
"306 458 OFFCURVE",
"326 458 CURVE SMOOTH",
"486 458 LINE SMOOTH",
"526 458 OFFCURVE",
"526 458 OFFCURVE",
"526 278 CURVE SMOOTH",
"526 0 LINE",
"442 0 LINE",
"442 -56 LINE",
"624 -56 LINE",
"624 -182 LINE"
);
},
{
closed = 1;
nodes = (
"349 79 LINE",
"174 78 LINE SMOOTH",
"121 78 OFFCURVE",
"110 85 OFFCURVE",
"110 212 CURVE SMOOTH",
"110 312 OFFCURVE",
"111 478 OFFCURVE",
"111 531 CURVE",
"49 531 LINE",
"49 134 LINE SMOOTH",
"49 53 OFFCURVE",
"78 0 OFFCURVE",
"114 0 CURVE SMOOTH",
"349 -1 LINE"
);
}
);
width = 741;
}
);
},
{
glyphname = "ra_xwee-ethiopic.liga";
lastChange = "2019-03-11 07:10:32 +0000";
layers = (
{
layerId = "994FE389-9D54-4FAA-B055-C46A67020E78";
paths = (
{
closed = 1;
nodes = (
"937 -1 LINE",
"937 6 LINE",
"945 3 OFFCURVE",
"954 0 OFFCURVE",
"963 0 CURVE SMOOTH",
"1017 0 OFFCURVE",
"1060 45 OFFCURVE",
"1060 96 CURVE SMOOTH",
"1060 151 OFFCURVE",
"1018 196 OFFCURVE",
"963 196 CURVE SMOOTH",
"954 196 OFFCURVE",
"945 195 OFFCURVE",
"937 192 CURVE",
"937 439 LINE SMOOTH",
"937 531 OFFCURVE",
"937 531 OFFCURVE",
"834 531 CURVE SMOOTH",
"605 531 LINE",
"605 727 LINE",
"514 727 LINE",
"514 649 LINE",
"396 649 LINE",
"396 555 LINE",
"514 555 LINE",
"514 505 LINE SMOOTH",
"514 477 OFFCURVE",
"531 458 OFFCURVE",
"560 458 CURVE SMOOTH",
"788 458 LINE SMOOTH",
"846 458 OFFCURVE",
"846 458 OFFCURVE",
"846 278 CURVE SMOOTH",
"846 56 LINE",
"695 56 LINE",
"695 -1 LINE"
);
},
{
closed = 1;
nodes = (
"498 79 LINE",
"249 78 LINE SMOOTH",
"173 78 OFFCURVE",
"156 85 OFFCURVE",
"156 212 CURVE SMOOTH",
"156 312 OFFCURVE",
"159 478 OFFCURVE",
"159 531 CURVE",
"70 531 LINE",
"70 134 LINE SMOOTH",
"70 54 OFFCURVE",
"111 0 OFFCURVE",
"163 0 CURVE SMOOTH",
"497 -1 LINE"
);
},
{
closed = 1;
nodes = (
"953 54 OFFCURVE",
"945 56 OFFCURVE",
"937 62 CURVE",
"937 134 LINE",
"945 139 OFFCURVE",
"953 142 OFFCURVE",
"963 142 CURVE SMOOTH",
"987 142 OFFCURVE",
"1007 122 OFFCURVE",
"1007 99 CURVE SMOOTH",
"1007 73 OFFCURVE",
"987 54 OFFCURVE",
"963 54 CURVE SMOOTH"
);
}
);
width = 1130;
},
{
layerId = "CBA2E3C4-6E62-469B-BD2C-D62FAD87CF88";
paths = (
{
closed = 1;
nodes = (
"656 -1 LINE",
"656 6 LINE",
"658 5 OFFCURVE",
"666 0 OFFCURVE",
"674 0 CURVE SMOOTH",
"712 0 OFFCURVE",
"742 46 OFFCURVE",
"742 96 CURVE SMOOTH",
"742 151 OFFCURVE",
"712 196 OFFCURVE",
"674 196 CURVE SMOOTH",
"668 196 OFFCURVE",
"662 195 OFFCURVE",
"656 192 CURVE",
"656 439 LINE SMOOTH",
"656 531 OFFCURVE",
"656 531 OFFCURVE",
"584 531 CURVE SMOOTH",
"424 531 LINE",
"424 727 LINE",
"360 727 LINE",
"360 649 LINE",
"277 649 LINE",
"277 555 LINE",
"360 555 LINE",
"360 505 LINE SMOOTH",
"360 477 OFFCURVE",
"372 458 OFFCURVE",
"392 458 CURVE SMOOTH",
"552 458 LINE SMOOTH",
"592 458 OFFCURVE",
"592 458 OFFCURVE",
"592 278 CURVE SMOOTH",
"592 56 LINE",
"487 56 LINE",
"487 -1 LINE"
);
},
{
closed = 1;
nodes = (
"349 79 LINE",
"174 78 LINE SMOOTH",
"125 78 OFFCURVE",
"109 78 OFFCURVE",
"109 212 CURVE SMOOTH",
"109 312 OFFCURVE",
"111 478 OFFCURVE",
"111 531 CURVE",
"49 531 LINE",
"49 134 LINE SMOOTH",
"49 53 OFFCURVE",
"78 0 OFFCURVE",
"114 0 CURVE SMOOTH",
"348 -1 LINE"
);
},
{
closed = 1;
nodes = (
"668 54 OFFCURVE",
"661 56 OFFCURVE",
"656 62 CURVE",
"656 134 LINE",
"661 139 OFFCURVE",
"668 142 OFFCURVE",
"674 142 CURVE SMOOTH",
"691 142 OFFCURVE",
"705 121 OFFCURVE",
"705 99 CURVE SMOOTH",
"705 74 OFFCURVE",
"691 54 OFFCURVE",
"674 54 CURVE SMOOTH"
);
}
);
width = 791;
}
);
},
{
glyphname = "ra_xwe-ethiopic.liga";
lastChange = "2019-03-11 07:10:32 +0000";
layers = (
{
layerId = "994FE389-9D54-4FAA-B055-C46A67020E78";
paths = (
{
closed = 1;
nodes = (
"1038 -182 LINE",
"1038 0 LINE",
"892 0 LINE",
"892 273 LINE",
"969 273 LINE",
"969 229 LINE",
"1130 229 LINE",
"1130 276 LINE",
"1018 276 LINE",
"1018 391 LINE",
"976 391 LINE",
"976 323 LINE",
"892 323 LINE",
"892 439 LINE SMOOTH",
"892 531 OFFCURVE",
"892 531 OFFCURVE",
"789 531 CURVE SMOOTH",
"559 531 LINE",
"559 727 LINE",
"469 727 LINE",
"469 649 LINE",
"351 649 LINE",
"351 555 LINE",
"469 555 LINE",
"469 505 LINE SMOOTH",
"469 477 OFFCURVE",
"486 458 OFFCURVE",
"515 458 CURVE SMOOTH",
"743 458 LINE SMOOTH",
"801 458 OFFCURVE",
"801 458 OFFCURVE",
"801 278 CURVE SMOOTH",
"801 0 LINE",
"680 0 LINE",
"680 -56 LINE",
"940 -56 LINE",
"940 -182 LINE"
);
},
{
closed = 1;
nodes = (
"499 79 LINE",
"249 78 LINE SMOOTH",
"173 78 OFFCURVE",
"157 85 OFFCURVE",
"157 212 CURVE SMOOTH",
"157 312 OFFCURVE",
"159 478 OFFCURVE",
"159 531 CURVE",
"70 531 LINE",
"70 134 LINE SMOOTH",
"70 54 OFFCURVE",
"111 0 OFFCURVE",
"163 0 CURVE SMOOTH",
"498 -1 LINE"
);
}
);
width = 1200;
},
{
layerId = "CBA2E3C4-6E62-469B-BD2C-D62FAD87CF88";
paths = (
{
closed = 1;
nodes = (
"727 -182 LINE",
"727 0 LINE",
"624 0 LINE",
"624 273 LINE",
"678 273 LINE",
"678 229 LINE",
"791 229 LINE",
"791 276 LINE",
"713 276 LINE",
"713 391 LINE",
"683 391 LINE",
"683 323 LINE",
"624 323 LINE",
"624 439 LINE SMOOTH",
"624 531 OFFCURVE",
"624 531 OFFCURVE",
"552 531 CURVE SMOOTH",
"391 531 LINE",
"391 727 LINE",
"328 727 LINE",
"328 649 LINE",
"246 649 LINE",
"246 555 LINE",
"328 555 LINE",
"328 505 LINE SMOOTH",
"328 478 OFFCURVE",
"340 458 OFFCURVE",
"361 458 CURVE SMOOTH",
"520 458 LINE SMOOTH",
"561 458 OFFCURVE",
"561 458 OFFCURVE",
"561 278 CURVE SMOOTH",
"561 0 LINE",
"476 0 LINE",
"476 -56 LINE",
"658 -56 LINE",
"658 -182 LINE"
);
},
{
closed = 1;
nodes = (
"349 79 LINE",
"174 78 LINE SMOOTH",
"121 78 OFFCURVE",
"110 85 OFFCURVE",
"110 212 CURVE SMOOTH",
"110 312 OFFCURVE",
"111 478 OFFCURVE",
"111 531 CURVE",
"49 531 LINE",
"49 134 LINE SMOOTH",
"49 53 OFFCURVE",
"78 0 OFFCURVE",
"114 0 CURVE SMOOTH",
"349 -1 LINE"
);
}
);
width = 840;
}
);
},
{
glyphname = "ra_na-ethiopic.liga";
lastChange = "2019-03-11 07:10:32 +0000";
layers = (
{
layerId = "994FE389-9D54-4FAA-B055-C46A67020E78";
paths = (
{
closed = 1;
nodes = (
"720 0 LINE",
"720 439 LINE SMOOTH",
"720 531 OFFCURVE",
"720 531 OFFCURVE",
"617 531 CURVE SMOOTH",
"388 531 LINE",
"388 727 LINE",
"297 727 LINE",
"297 505 LINE SMOOTH",
"297 477 OFFCURVE",
"314 458 OFFCURVE",
"343 458 CURVE SMOOTH",
"571 458 LINE SMOOTH",
"630 458 OFFCURVE",
"630 458 OFFCURVE",
"630 278 CURVE SMOOTH",
"630 0 LINE"
);
},
{
closed = 1;
nodes = (
"498 79 LINE",
"249 78 LINE SMOOTH",
"172 78 OFFCURVE",
"156 85 OFFCURVE",
"156 212 CURVE SMOOTH",
"156 312 OFFCURVE",
"159 478 OFFCURVE",
"159 531 CURVE",
"70 531 LINE",
"70 134 LINE SMOOTH",
"70 54 OFFCURVE",
"110 0 OFFCURVE",
"162 0 CURVE SMOOTH",
"497 -1 LINE"
);
}
);
width = 790;
},
{
layerId = "CBA2E3C4-6E62-469B-BD2C-D62FAD87CF88";
paths = (
{
closed = 1;
nodes = (
"504 0 LINE",
"504 439 LINE SMOOTH",
"504 531 OFFCURVE",
"504 531 OFFCURVE",
"432 531 CURVE SMOOTH",
"272 531 LINE",
"272 727 LINE",
"208 727 LINE",
"208 505 LINE SMOOTH",
"208 477 OFFCURVE",
"220 458 OFFCURVE",
"240 458 CURVE SMOOTH",
"400 458 LINE SMOOTH",
"441 458 OFFCURVE",
"441 458 OFFCURVE",
"441 278 CURVE SMOOTH",
"441 0 LINE"
);
},
{
closed = 1;
nodes = (
"349 79 LINE",
"174 78 LINE SMOOTH",
"125 78 OFFCURVE",
"109 77 OFFCURVE",
"109 212 CURVE SMOOTH",
"109 312 OFFCURVE",
"111 478 OFFCURVE",
"111 531 CURVE",
"49 531 LINE",
"49 134 LINE SMOOTH",
"49 54 OFFCURVE",
"77 0 OFFCURVE",
"113 0 CURVE SMOOTH",
"348 -1 LINE"
);
}
);
width = 553;
}
);
},
{
glyphname = "ra_nu-ethiopic.liga";
lastChange = "2019-03-11 07:10:32 +0000";
layers = (
{
layerId = "994FE389-9D54-4FAA-B055-C46A67020E78";
paths = (
{
closed = 1;
nodes = (
"721 0 LINE",
"721 244 LINE",
"825 244 LINE",
"825 348 LINE",
"721 348 LINE",
"721 439 LINE SMOOTH",
"721 531 OFFCURVE",
"721 531 OFFCURVE",
"617 531 CURVE SMOOTH",
"388 531 LINE",
"388 727 LINE",
"297 727 LINE",
"297 505 LINE SMOOTH",
"297 477 OFFCURVE",
"314 458 OFFCURVE",
"343 458 CURVE SMOOTH",
"571 458 LINE SMOOTH",
"630 458 OFFCURVE",
"630 458 OFFCURVE",
"630 278 CURVE SMOOTH",
"630 0 LINE"
);
},
{
closed = 1;
nodes = (
"498 79 LINE",
"249 78 LINE SMOOTH",
"172 78 OFFCURVE",
"156 85 OFFCURVE",
"156 212 CURVE SMOOTH",
"156 312 OFFCURVE",
"159 478 OFFCURVE",
"159 531 CURVE",
"70 531 LINE",
"70 134 LINE SMOOTH",
"70 54 OFFCURVE",
"111 0 OFFCURVE",
"162 0 CURVE SMOOTH",
"497 -1 LINE"
);
}
);
width = 895;
},
{
layerId = "CBA2E3C4-6E62-469B-BD2C-D62FAD87CF88";
paths = (
{
closed = 1;
nodes = (
"505 0 LINE",
"505 244 LINE",
"578 244 LINE",
"578 348 LINE",
"505 348 LINE",
"505 439 LINE SMOOTH",
"505 531 OFFCURVE",
"505 531 OFFCURVE",
"432 531 CURVE SMOOTH",
"272 531 LINE",
"272 727 LINE",
"208 727 LINE",
"208 505 LINE SMOOTH",
"208 477 OFFCURVE",
"220 458 OFFCURVE",
"240 458 CURVE SMOOTH",
"400 458 LINE SMOOTH",
"441 458 OFFCURVE",
"441 458 OFFCURVE",
"441 278 CURVE SMOOTH",
"441 0 LINE"
);
},
{
closed = 1;
nodes = (
"349 79 LINE",
"174 78 LINE SMOOTH",
"125 78 OFFCURVE",
"109 77 OFFCURVE",
"109 212 CURVE SMOOTH",
"109 312 OFFCURVE",
"111 478 OFFCURVE",
"111 531 CURVE",
"49 531 LINE",
"49 134 LINE SMOOTH",
"49 53 OFFCURVE",
"78 0 OFFCURVE",
"113 0 CURVE SMOOTH",
"348 -1 LINE"
);
}
);
width = 627;
}
);
},
{
glyphname = "ra_ni-ethiopic.liga";
lastChange = "2019-03-11 07:10:32 +0000";
layers = (
{
layerId = "994FE389-9D54-4FAA-B055-C46A67020E78";
paths = (
{
closed = 1;
nodes = (
"884 0 LINE",
"884 86 LINE",
"763 86 LINE",
"763 439 LINE SMOOTH",
"763 531 OFFCURVE",
"763 531 OFFCURVE",
"659 531 CURVE SMOOTH",
"430 531 LINE",
"430 727 LINE",
"339 727 LINE",
"339 505 LINE SMOOTH",
"339 477 OFFCURVE",
"356 458 OFFCURVE",
"386 458 CURVE SMOOTH",
"614 458 LINE SMOOTH",
"672 458 OFFCURVE",
"672 458 OFFCURVE",
"672 278 CURVE SMOOTH",
"672 0 LINE"
);
},
{
closed = 1;
nodes = (
"498 79 LINE",
"249 78 LINE SMOOTH",
"173 78 OFFCURVE",
"156 85 OFFCURVE",
"156 212 CURVE SMOOTH",
"156 312 OFFCURVE",
"159 478 OFFCURVE",
"159 531 CURVE",
"70 531 LINE",
"70 134 LINE SMOOTH",
"70 54 OFFCURVE",
"111 0 OFFCURVE",
"163 0 CURVE SMOOTH",
"497 -1 LINE"
);
}
);
width = 954;
},
{
layerId = "CBA2E3C4-6E62-469B-BD2C-D62FAD87CF88";
paths = (
{
closed = 1;
nodes = (
"619 0 LINE",
"619 86 LINE",
"534 86 LINE",
"534 439 LINE SMOOTH",
"534 531 OFFCURVE",
"534 531 OFFCURVE",
"461 531 CURVE SMOOTH",
"301 531 LINE",
"301 727 LINE",
"237 727 LINE",
"237 505 LINE SMOOTH",
"237 478 OFFCURVE",
"249 458 OFFCURVE",
"270 458 CURVE SMOOTH",
"430 458 LINE SMOOTH",
"470 458 OFFCURVE",
"470 458 OFFCURVE",
"470 278 CURVE SMOOTH",
"470 0 LINE"
);
},
{
closed = 1;
nodes = (
"349 79 LINE",
"174 78 LINE SMOOTH",
"125 78 OFFCURVE",
"109 78 OFFCURVE",
"109 212 CURVE SMOOTH",
"109 312 OFFCURVE",
"111 478 OFFCURVE",
"111 531 CURVE",
"49 531 LINE",
"49 134 LINE SMOOTH",
"49 53 OFFCURVE",
"78 0 OFFCURVE",
"114 0 CURVE SMOOTH",
"348 -1 LINE"
);
}
);
width = 668;
}
);
},
{
glyphname = "ra_nee-ethiopic.liga";
lastChange = "2019-03-11 07:10:32 +0000";
layers = (
{
layerId = "994FE389-9D54-4FAA-B055-C46A67020E78";
paths = (
{
closed = 1;
nodes = (
"839 0 LINE SMOOTH",
"884 0 OFFCURVE",
"916 17 OFFCURVE",
"934 50 CURVE SMOOTH",
"944 67 OFFCURVE",
"950 89 OFFCURVE",
"950 112 CURVE SMOOTH",
"950 142 OFFCURVE",
"942 167 OFFCURVE",
"923 185 CURVE SMOOTH",
"901 205 OFFCURVE",
"876 217 OFFCURVE",
"840 217 CURVE SMOOTH",
"810 217 LINE",
"810 439 LINE SMOOTH",
"810 531 OFFCURVE",
"810 531 OFFCURVE",
"706 531 CURVE SMOOTH",
"477 531 LINE",
"477 727 LINE",
"386 727 LINE",
"386 505 LINE SMOOTH",
"386 477 OFFCURVE",
"404 458 OFFCURVE",
"433 458 CURVE SMOOTH",
"661 458 LINE SMOOTH",
"719 458 OFFCURVE",
"719 458 OFFCURVE",
"719 278 CURVE SMOOTH",
"719 0 LINE"
);
},
{
closed = 1;
nodes = (
"498 79 LINE",
"249 78 LINE SMOOTH",
"173 78 OFFCURVE",
"156 85 OFFCURVE",
"156 212 CURVE SMOOTH",
"156 312 OFFCURVE",
"159 478 OFFCURVE",
"159 531 CURVE",
"70 531 LINE",
"70 134 LINE SMOOTH",
"70 54 OFFCURVE",
"111 0 OFFCURVE",
"163 0 CURVE SMOOTH",
"497 -1 LINE"
);
},
{
closed = 1;
nodes = (
"810 193 LINE",
"838 192 OFFCURVE",
"858 185 OFFCURVE",
"871 171 CURVE SMOOTH",
"884 156 OFFCURVE",
"889 134 OFFCURVE",
"889 107 CURVE SMOOTH",
"889 100 OFFCURVE",
"888 93 OFFCURVE",
"886 85 CURVE",
"883 70 OFFCURVE",
"878 59 OFFCURVE",
"872 50 CURVE SMOOTH",
"864 38 OFFCURVE",
"852 32 OFFCURVE",
"837 28 CURVE SMOOTH",
"829 26 OFFCURVE",
"821 24 OFFCURVE",
"810 24 CURVE"
);
}
);
width = 1020;
},
{
layerId = "CBA2E3C4-6E62-469B-BD2C-D62FAD87CF88";
paths = (
{
closed = 1;
nodes = (
"587 0 LINE SMOOTH",
"619 0 OFFCURVE",
"641 17 OFFCURVE",
"654 50 CURVE SMOOTH",
"661 67 OFFCURVE",
"665 92 OFFCURVE",
"665 112 CURVE SMOOTH",
"665 144 OFFCURVE",
"659 167 OFFCURVE",
"646 185 CURVE SMOOTH",
"631 205 OFFCURVE",
"613 217 OFFCURVE",
"588 217 CURVE SMOOTH",
"567 217 LINE",
"567 439 LINE SMOOTH",
"567 531 OFFCURVE",
"567 531 OFFCURVE",
"494 531 CURVE SMOOTH",
"334 531 LINE",
"334 727 LINE",
"270 727 LINE",
"270 505 LINE SMOOTH",
"270 477 OFFCURVE",
"283 458 OFFCURVE",
"303 458 CURVE SMOOTH",
"463 458 LINE SMOOTH",
"503 458 OFFCURVE",
"503 458 OFFCURVE",
"503 278 CURVE SMOOTH",
"503 0 LINE"
);
},
{
closed = 1;
nodes = (
"349 79 LINE",
"174 78 LINE SMOOTH",
"125 78 OFFCURVE",
"109 78 OFFCURVE",
"109 212 CURVE SMOOTH",
"109 312 OFFCURVE",
"111 478 OFFCURVE",
"111 531 CURVE",
"49 531 LINE",
"49 134 LINE SMOOTH",
"49 53 OFFCURVE",
"78 0 OFFCURVE",
"114 0 CURVE SMOOTH",
"348 -1 LINE"
);
},
{
closed = 1;
nodes = (
"567 193 LINE",
"586 192 OFFCURVE",
"601 185 OFFCURVE",
"609 172 CURVE SMOOTH",
"619 156 OFFCURVE",
"622 134 OFFCURVE",
"622 107 CURVE SMOOTH",
"622 100 OFFCURVE",
"622 93 OFFCURVE",
"620 85 CURVE",
"618 68 OFFCURVE",
"615 61 OFFCURVE",
"610 50 CURVE SMOOTH",
"603 36 OFFCURVE",
"596 32 OFFCURVE",
"586 28 CURVE SMOOTH",
"580 26 OFFCURVE",
"575 24 OFFCURVE",
"567 24 CURVE"
);
}
);
width = 714;
}
);
note = uni1294;
},
{
glyphname = "ra_ne-ethiopic.liga";
lastChange = "2019-03-11 07:10:32 +0000";
layers = (
{
layerId = "994FE389-9D54-4FAA-B055-C46A67020E78";
paths = (
{
closed = 1;
nodes = (
"787 -12 LINE",
"787 211 LINE SMOOTH",
"787 236 OFFCURVE",
"785 253 OFFCURVE",
"747 253 CURVE SMOOTH",
"644 253 LINE",
"797 445 LINE SMOOTH",
"810 461 OFFCURVE",
"799 531 OFFCURVE",
"753 531 CURVE SMOOTH",
"407 531 LINE",
"407 450 LINE",
"707 450 LINE",
"564 266 LINE SMOOTH",
"520 210 OFFCURVE",
"526 191 OFFCURVE",
"554 191 CURVE SMOOTH",
"697 191 LINE",
"697 -12 LINE"
);
},
{
closed = 1;
nodes = (
"498 79 LINE",
"249 78 LINE SMOOTH",
"173 78 OFFCURVE",
"157 85 OFFCURVE",
"157 212 CURVE SMOOTH",
"157 312 OFFCURVE",
"159 478 OFFCURVE",
"159 531 CURVE",
"70 531 LINE",
"70 134 LINE SMOOTH",
"70 54 OFFCURVE",
"111 0 OFFCURVE",
"163 0 CURVE SMOOTH",
"497 -1 LINE"
);
}
);
width = 872;
},
{
layerId = "CBA2E3C4-6E62-469B-BD2C-D62FAD87CF88";
paths = (
{
closed = 1;
nodes = (
"551 -12 LINE",
"551 211 LINE SMOOTH",
"551 240 OFFCURVE",
"547 253 OFFCURVE",
"523 253 CURVE SMOOTH",
"451 253 LINE",
"558 445 LINE SMOOTH",
"567 461 OFFCURVE",
"559 531 OFFCURVE",
"527 531 CURVE SMOOTH",
"285 531 LINE",
"285 450 LINE",
"495 450 LINE",
"395 266 LINE SMOOTH",
"364 210 OFFCURVE",
"368 191 OFFCURVE",
"388 191 CURVE SMOOTH",
"488 191 LINE",
"488 -12 LINE"
);
},
{
closed = 1;
nodes = (
"349 79 LINE",
"174 78 LINE SMOOTH",
"121 78 OFFCURVE",
"110 85 OFFCURVE",
"110 212 CURVE SMOOTH",
"110 312 OFFCURVE",
"111 478 OFFCURVE",
"111 531 CURVE",
"49 531 LINE",
"49 134 LINE SMOOTH",
"49 53 OFFCURVE",
"78 0 OFFCURVE",
"114 0 CURVE SMOOTH",
"348 -1 LINE"
);
}
);
width = 611;
}
);
note = uni1295;
},
{
glyphname = "ra_nya-ethiopic.liga";
lastChange = "2019-03-11 07:10:32 +0000";
layers = (
{
layerId = "994FE389-9D54-4FAA-B055-C46A67020E78";
paths = (
{
closed = 1;
nodes = (
"840 0 LINE",
"840 439 LINE SMOOTH",
"840 531 OFFCURVE",
"840 531 OFFCURVE",
"736 531 CURVE SMOOTH",
"507 531 LINE",
"507 682 LINE",
"630 682 LINE",
"630 727 LINE",
"313 727 LINE",
"313 682 LINE",
"416 682 LINE",
"416 505 LINE SMOOTH",
"416 477 OFFCURVE",
"433 458 OFFCURVE",
"462 458 CURVE SMOOTH",
"690 458 LINE SMOOTH",
"749 458 OFFCURVE",
"749 458 OFFCURVE",
"749 278 CURVE SMOOTH",
"749 0 LINE"
);
},
{
closed = 1;
nodes = (
"499 79 LINE",
"250 78 LINE SMOOTH",
"173 78 OFFCURVE",
"157 85 OFFCURVE",
"157 212 CURVE SMOOTH",
"157 312 OFFCURVE",
"160 478 OFFCURVE",
"160 531 CURVE",
"70 531 LINE",
"70 134 LINE SMOOTH",
"70 54 OFFCURVE",
"111 0 OFFCURVE",
"163 0 CURVE SMOOTH",
"498 -1 LINE"
);
}
);
width = 910;
},
{
layerId = "CBA2E3C4-6E62-469B-BD2C-D62FAD87CF88";
paths = (
{
closed = 1;
nodes = (
"588 0 LINE",
"588 439 LINE SMOOTH",
"588 531 OFFCURVE",
"588 531 OFFCURVE",
"515 531 CURVE SMOOTH",
"355 531 LINE",
"355 682 LINE",
"441 682 LINE",
"441 727 LINE",
"219 727 LINE",
"219 682 LINE",
"291 682 LINE",
"291 505 LINE SMOOTH",
"291 478 OFFCURVE",
"303 458 OFFCURVE",
"323 458 CURVE SMOOTH",
"483 458 LINE SMOOTH",
"524 458 OFFCURVE",
"524 458 OFFCURVE",
"524 278 CURVE SMOOTH",
"524 0 LINE"
);
},
{
closed = 1;
nodes = (
"349 79 LINE",
"175 78 LINE SMOOTH",
"126 78 OFFCURVE",
"110 76 OFFCURVE",
"110 212 CURVE SMOOTH",
"110 312 OFFCURVE",
"112 478 OFFCURVE",
"112 531 CURVE",
"49 531 LINE",
"49 134 LINE SMOOTH",
"49 53 OFFCURVE",
"78 0 OFFCURVE",
"114 0 CURVE SMOOTH",
"349 -1 LINE"
);
}
);
width = 637;
}
);
note = uni1298;
},
{
glyphname = "ra_nyu-ethiopic.liga";
lastChange = "2019-03-11 07:10:32 +0000";
layers = (
{
layerId = "994FE389-9D54-4FAA-B055-C46A67020E78";
paths = (
{
closed = 1;
nodes = (
"857 0 LINE",
"857 246 LINE",
"956 246 LINE",
"956 346 LINE",
"857 346 LINE",
"857 439 LINE SMOOTH",
"857 531 OFFCURVE",
"857 531 OFFCURVE",
"753 531 CURVE SMOOTH",
"524 531 LINE",
"524 682 LINE",
"647 682 LINE",
"647 727 LINE",
"331 727 LINE",
"331 682 LINE",
"433 682 LINE",
"433 505 LINE SMOOTH",
"433 477 OFFCURVE",
"451 458 OFFCURVE",
"480 458 CURVE SMOOTH",
"708 458 LINE SMOOTH",
"766 458 OFFCURVE",
"766 458 OFFCURVE",
"766 278 CURVE SMOOTH",
"766 0 LINE"
);
},
{
closed = 1;
nodes = (
"498 79 LINE",
"249 78 LINE SMOOTH",
"172 78 OFFCURVE",
"156 85 OFFCURVE",
"156 212 CURVE SMOOTH",
"156 312 OFFCURVE",
"159 478 OFFCURVE",
"159 531 CURVE",
"70 531 LINE",
"70 134 LINE SMOOTH",
"70 54 OFFCURVE",
"111 0 OFFCURVE",
"162 0 CURVE SMOOTH",
"497 -1 LINE"
);
}
);
width = 1026;
},
{
layerId = "CBA2E3C4-6E62-469B-BD2C-D62FAD87CF88";
paths = (
{
closed = 1;
nodes = (
"600 0 LINE",
"600 246 LINE",
"669 246 LINE",
"669 346 LINE",
"600 346 LINE",
"600 439 LINE SMOOTH",
"600 531 OFFCURVE",
"600 531 OFFCURVE",
"527 531 CURVE SMOOTH",
"367 531 LINE",
"367 682 LINE",
"453 682 LINE",
"453 727 LINE",
"232 727 LINE",
"232 682 LINE",
"303 682 LINE",
"303 505 LINE SMOOTH",
"303 477 OFFCURVE",
"316 458 OFFCURVE",
"336 458 CURVE SMOOTH",
"496 458 LINE SMOOTH",
"536 458 OFFCURVE",
"536 458 OFFCURVE",
"536 278 CURVE SMOOTH",
"536 0 LINE"
);
},
{
closed = 1;
nodes = (
"349 79 LINE",
"174 78 LINE SMOOTH",
"125 78 OFFCURVE",
"109 77 OFFCURVE",
"109 212 CURVE SMOOTH",
"109 312 OFFCURVE",
"111 478 OFFCURVE",
"111 531 CURVE",
"49 531 LINE",
"49 134 LINE SMOOTH",
"49 53 OFFCURVE",
"78 0 OFFCURVE",
"113 0 CURVE SMOOTH",
"348 -1 LINE"
);
}
);
width = 718;
}
);
note = uni1299;
},
{
glyphname = "ra_nyi-ethiopic.liga";
lastChange = "2019-03-11 07:10:32 +0000";
layers = (
{
layerId = "994FE389-9D54-4FAA-B055-C46A67020E78";
paths = (
{
closed = 1;
nodes = (
"1006 0 LINE",
"1006 100 LINE",
"907 100 LINE",
"907 439 LINE SMOOTH",
"907 531 OFFCURVE",
"907 531 OFFCURVE",
"803 531 CURVE SMOOTH",
"574 531 LINE",
"574 682 LINE",
"714 682 LINE",
"714 727 LINE",
"381 727 LINE",
"381 682 LINE",
"483 682 LINE",
"483 505 LINE SMOOTH",
"483 477 OFFCURVE",
"501 458 OFFCURVE",
"530 458 CURVE SMOOTH",
"758 458 LINE SMOOTH",
"816 458 OFFCURVE",
"816 458 OFFCURVE",
"816 278 CURVE SMOOTH",
"816 0 LINE"
);
},
{
closed = 1;
nodes = (
"498 79 LINE",
"249 78 LINE SMOOTH",
"172 78 OFFCURVE",
"156 85 OFFCURVE",
"156 212 CURVE SMOOTH",
"156 312 OFFCURVE",
"159 478 OFFCURVE",
"159 531 CURVE",
"70 531 LINE",
"70 134 LINE SMOOTH",
"70 54 OFFCURVE",
"111 0 OFFCURVE",
"162 0 CURVE SMOOTH",
"497 -1 LINE"
);
}
);
width = 1076;
},
{
layerId = "CBA2E3C4-6E62-469B-BD2C-D62FAD87CF88";
paths = (
{
closed = 1;
nodes = (
"704 0 LINE",
"704 100 LINE",
"635 100 LINE",
"635 439 LINE SMOOTH",
"635 531 OFFCURVE",
"635 531 OFFCURVE",
"562 531 CURVE SMOOTH",
"402 531 LINE",
"402 682 LINE",
"500 682 LINE",
"500 727 LINE",
"267 727 LINE",
"267 682 LINE",
"338 682 LINE",
"338 505 LINE SMOOTH",
"338 477 OFFCURVE",
"351 458 OFFCURVE",
"371 458 CURVE SMOOTH",
"531 458 LINE SMOOTH",
"571 458 OFFCURVE",
"571 458 OFFCURVE",
"571 278 CURVE SMOOTH",
"571 0 LINE"
);
},
{
closed = 1;
nodes = (
"349 79 LINE",
"174 78 LINE SMOOTH",
"125 78 OFFCURVE",
"109 77 OFFCURVE",
"109 212 CURVE SMOOTH",
"109 312 OFFCURVE",
"111 478 OFFCURVE",
"111 531 CURVE",
"49 531 LINE",
"49 134 LINE SMOOTH",
"49 53 OFFCURVE",
"78 0 OFFCURVE",
"113 0 CURVE SMOOTH",
"348 -1 LINE"
);
}
);
width = 753;
}
);
note = uni129A;
},
{
glyphname = "ra_nyee-ethiopic.liga";
lastChange = "2019-03-11 07:10:32 +0000";
layers = (
{
layerId = "994FE389-9D54-4FAA-B055-C46A67020E78";
paths = (
{
closed = 1;
nodes = (
"894 0 LINE SMOOTH",
"940 0 OFFCURVE",
"971 16 OFFCURVE",
"990 46 CURVE",
"1000 64 OFFCURVE",
"1005 85 OFFCURVE",
"1005 106 CURVE SMOOTH",
"1005 134 OFFCURVE",
"997 158 OFFCURVE",
"978 175 CURVE",
"956 193 OFFCURVE",
"931 205 OFFCURVE",
"895 205 CURVE SMOOTH",
"849 205 LINE",
"849 439 LINE SMOOTH",
"849 531 OFFCURVE",
"849 531 OFFCURVE",
"745 531 CURVE SMOOTH",
"516 531 LINE",
"516 682 LINE",
"684 682 LINE",
"684 727 LINE",
"322 727 LINE",
"322 682 LINE",
"425 682 LINE",
"425 505 LINE SMOOTH",
"425 477 OFFCURVE",
"442 458 OFFCURVE",
"471 458 CURVE SMOOTH",
"700 458 LINE SMOOTH",
"758 458 OFFCURVE",
"758 458 OFFCURVE",
"758 278 CURVE SMOOTH",
"758 0 LINE"
);
},
{
closed = 1;
nodes = (
"499 79 LINE",
"250 78 LINE SMOOTH",
"173 78 OFFCURVE",
"157 85 OFFCURVE",
"157 212 CURVE SMOOTH",
"157 312 OFFCURVE",
"160 478 OFFCURVE",
"160 531 CURVE",
"70 531 LINE",
"70 134 LINE SMOOTH",
"70 54 OFFCURVE",
"111 0 OFFCURVE",
"163 0 CURVE SMOOTH",
"498 -1 LINE"
);
},
{
closed = 1;
nodes = (
"849 182 LINE",
"862 182 LINE SMOOTH",
"891 182 OFFCURVE",
"913 175 OFFCURVE",
"926 161 CURVE SMOOTH",
"939 147 OFFCURVE",
"944 126 OFFCURVE",
"944 101 CURVE SMOOTH",
"944 95 OFFCURVE",
"943 87 OFFCURVE",
"941 80 CURVE",
"938 66 OFFCURVE",
"933 56 OFFCURVE",
"927 47 CURVE",
"919 36 OFFCURVE",
"907 30 OFFCURVE",
"892 26 CURVE",
"884 25 OFFCURVE",
"875 23 OFFCURVE",
"863 23 CURVE SMOOTH",
"849 23 LINE"
);
}
);
width = 1075;
},
{
layerId = "CBA2E3C4-6E62-469B-BD2C-D62FAD87CF88";
paths = (
{
closed = 1;
nodes = (
"626 0 LINE SMOOTH",
"657 0 OFFCURVE",
"680 16 OFFCURVE",
"693 46 CURVE",
"700 64 OFFCURVE",
"704 85 OFFCURVE",
"704 106 CURVE SMOOTH",
"704 133 OFFCURVE",
"698 158 OFFCURVE",
"685 175 CURVE",
"668 194 OFFCURVE",
"651 205 OFFCURVE",
"627 205 CURVE SMOOTH",
"594 205 LINE",
"594 439 LINE SMOOTH",
"594 531 OFFCURVE",
"594 531 OFFCURVE",
"522 531 CURVE SMOOTH",
"361 531 LINE",
"361 682 LINE",
"479 682 LINE",
"479 727 LINE",
"225 727 LINE",
"225 682 LINE",
"298 682 LINE",
"298 505 LINE SMOOTH",
"298 477 OFFCURVE",
"310 458 OFFCURVE",
"330 458 CURVE SMOOTH",
"490 458 LINE SMOOTH",
"531 458 OFFCURVE",
"531 458 OFFCURVE",
"531 278 CURVE SMOOTH",
"531 0 LINE"
);
},
{
closed = 1;
nodes = (
"349 79 LINE",
"175 78 LINE SMOOTH",
"126 78 OFFCURVE",
"110 76 OFFCURVE",
"110 212 CURVE SMOOTH",
"110 312 OFFCURVE",
"112 478 OFFCURVE",
"112 531 CURVE",
"49 531 LINE",
"49 134 LINE SMOOTH",
"49 53 OFFCURVE",
"78 0 OFFCURVE",
"114 0 CURVE SMOOTH",
"349 -1 LINE"
);
},
{
closed = 1;
nodes = (
"594 182 LINE",
"603 182 LINE SMOOTH",
"624 182 OFFCURVE",
"639 175 OFFCURVE",
"649 160 CURVE SMOOTH",
"657 147 OFFCURVE",
"661 126 OFFCURVE",
"661 101 CURVE SMOOTH",
"661 94 OFFCURVE",
"660 87 OFFCURVE",
"659 80 CURVE",
"658 71 OFFCURVE",
"654 57 OFFCURVE",
"649 47 CURVE",
"643 36 OFFCURVE",
"635 31 OFFCURVE",
"624 26 CURVE",
"619 25 OFFCURVE",
"612 23 OFFCURVE",
"604 23 CURVE SMOOTH",
"594 23 LINE"
);
}
);
width = 753;
}
);
note = uni129C;
},
{
glyphname = "ra_ga-ethiopic.liga";
lastChange = "2019-03-11 07:10:32 +0000";
layers = (
{
layerId = "994FE389-9D54-4FAA-B055-C46A67020E78";
paths = (
{
closed = 1;
nodes = (
"720 0 LINE",
"720 397 LINE SMOOTH",
"720 477 OFFCURVE",
"679 531 OFFCURVE",
"627 531 CURVE SMOOTH",
"292 532 LINE",
"291 452 LINE",
"540 453 LINE SMOOTH",
"617 453 OFFCURVE",
"633 447 OFFCURVE",
"633 319 CURVE SMOOTH",
"633 219 OFFCURVE",
"630 53 OFFCURVE",
"630 0 CURVE"
);
},
{
closed = 1;
nodes = (
"498 79 LINE",
"249 78 LINE SMOOTH",
"172 78 OFFCURVE",
"156 85 OFFCURVE",
"156 212 CURVE SMOOTH",
"156 312 OFFCURVE",
"159 478 OFFCURVE",
"159 531 CURVE",
"70 531 LINE",
"70 134 LINE SMOOTH",
"70 54 OFFCURVE",
"110 0 OFFCURVE",
"162 0 CURVE SMOOTH",
"497 -1 LINE"
);
}
);
width = 790;
},
{
layerId = "CBA2E3C4-6E62-469B-BD2C-D62FAD87CF88";
paths = (
{
closed = 1;
nodes = (
"504 0 LINE",
"504 397 LINE SMOOTH",
"504 478 OFFCURVE",
"475 531 OFFCURVE",
"439 531 CURVE SMOOTH",
"204 532 LINE",
"204 452 LINE",
"378 453 LINE SMOOTH",
"432 453 OFFCURVE",
"443 447 OFFCURVE",
"443 319 CURVE SMOOTH",
"443 219 OFFCURVE",
"441 53 OFFCURVE",
"441 0 CURVE"
);
},
{
closed = 1;
nodes = (
"349 79 LINE",
"174 78 LINE SMOOTH",
"125 78 OFFCURVE",
"109 77 OFFCURVE",
"109 212 CURVE SMOOTH",
"109 312 OFFCURVE",
"111 478 OFFCURVE",
"111 531 CURVE",
"49 531 LINE",
"49 134 LINE SMOOTH",
"49 54 OFFCURVE",
"77 0 OFFCURVE",
"113 0 CURVE SMOOTH",
"348 -1 LINE"
);
}
);
width = 553;
}
);
},
{
glyphname = "ra_gu-ethiopic.liga";
lastChange = "2019-03-11 07:10:32 +0000";
layers = (
{
layerId = "994FE389-9D54-4FAA-B055-C46A67020E78";
paths = (
{
closed = 1;
nodes = (
"720 0 LINE",
"720 249 LINE",
"823 249 LINE",
"823 354 LINE",
"720 354 LINE",
"720 397 LINE SMOOTH",
"720 477 OFFCURVE",
"679 531 OFFCURVE",
"627 531 CURVE SMOOTH",
"293 532 LINE",
"292 452 LINE",
"541 453 LINE SMOOTH",
"617 453 OFFCURVE",
"633 446 OFFCURVE",
"633 319 CURVE SMOOTH",
"633 219 OFFCURVE",
"631 53 OFFCURVE",
"631 0 CURVE"
);
},
{
closed = 1;
nodes = (
"498 79 LINE",
"249 78 LINE SMOOTH",
"173 78 OFFCURVE",
"156 85 OFFCURVE",
"156 212 CURVE SMOOTH",
"156 312 OFFCURVE",
"159 478 OFFCURVE",
"159 531 CURVE",
"70 531 LINE",
"70 134 LINE SMOOTH",
"70 54 OFFCURVE",
"111 0 OFFCURVE",
"163 0 CURVE SMOOTH",
"497 -1 LINE"
);
}
);
width = 893;
},
{
layerId = "CBA2E3C4-6E62-469B-BD2C-D62FAD87CF88";
paths = (
{
closed = 1;
nodes = (
"504 0 LINE",
"504 249 LINE",
"576 249 LINE",
"576 354 LINE",
"504 354 LINE",
"504 397 LINE SMOOTH",
"504 478 OFFCURVE",
"475 531 OFFCURVE",
"439 531 CURVE SMOOTH",
"205 532 LINE",
"204 452 LINE",
"379 453 LINE SMOOTH",
"432 453 OFFCURVE",
"443 446 OFFCURVE",
"443 319 CURVE SMOOTH",
"443 219 OFFCURVE",
"442 53 OFFCURVE",
"442 0 CURVE"
);
},
{
closed = 1;
nodes = (
"349 79 LINE",
"174 78 LINE SMOOTH",
"125 78 OFFCURVE",
"109 78 OFFCURVE",
"109 212 CURVE SMOOTH",
"109 312 OFFCURVE",
"111 478 OFFCURVE",
"111 531 CURVE",
"49 531 LINE",
"49 134 LINE SMOOTH",
"49 53 OFFCURVE",
"78 0 OFFCURVE",
"114 0 CURVE SMOOTH",
"348 -1 LINE"
);
}
);
width = 625;
}
);
},
{
glyphname = "ra_gi-ethiopic.liga";
lastChange = "2019-03-11 07:10:32 +0000";
layers = (
{
layerId = "994FE389-9D54-4FAA-B055-C46A67020E78";
paths = (
{
closed = 1;
nodes = (
"859 0 LINE",
"859 65 LINE",
"749 65 LINE",
"749 397 LINE SMOOTH",
"749 477 OFFCURVE",
"709 531 OFFCURVE",
"657 531 CURVE SMOOTH",
"322 532 LINE",
"321 452 LINE",
"570 453 LINE SMOOTH",
"647 453 OFFCURVE",
"663 447 OFFCURVE",
"663 319 CURVE SMOOTH",
"663 219 OFFCURVE",
"660 53 OFFCURVE",
"660 0 CURVE"
);
},
{
closed = 1;
nodes = (
"499 79 LINE",
"249 78 LINE SMOOTH",
"173 78 OFFCURVE",
"157 85 OFFCURVE",
"157 212 CURVE SMOOTH",
"157 312 OFFCURVE",
"159 478 OFFCURVE",
"159 531 CURVE",
"70 531 LINE",
"70 134 LINE SMOOTH",
"70 54 OFFCURVE",
"111 0 OFFCURVE",
"163 0 CURVE SMOOTH",
"498 -1 LINE"
);
}
);
width = 929;
},
{
layerId = "CBA2E3C4-6E62-469B-BD2C-D62FAD87CF88";
paths = (
{
closed = 1;
nodes = (
"601 0 LINE",
"601 65 LINE",
"524 65 LINE",
"524 397 LINE SMOOTH",
"524 478 OFFCURVE",
"496 531 OFFCURVE",
"460 531 CURVE SMOOTH",
"225 532 LINE",
"225 452 LINE",
"399 453 LINE SMOOTH",
"453 453 OFFCURVE",
"464 447 OFFCURVE",
"464 319 CURVE SMOOTH",
"464 219 OFFCURVE",
"462 53 OFFCURVE",
"462 0 CURVE"
);
},
{
closed = 1;
nodes = (
"349 79 LINE",
"174 78 LINE SMOOTH",
"121 78 OFFCURVE",
"110 85 OFFCURVE",
"110 212 CURVE SMOOTH",
"110 312 OFFCURVE",
"111 478 OFFCURVE",
"111 531 CURVE",
"49 531 LINE",
"49 134 LINE SMOOTH",
"49 53 OFFCURVE",
"78 0 OFFCURVE",
"114 0 CURVE SMOOTH",
"349 -1 LINE"
);
}
);
width = 650;
}
);
note = uni130A;
},
{
glyphname = "ra_gaa-ethiopic.liga";
lastChange = "2019-03-11 07:10:32 +0000";
layers = (
{
components = (
{
name = "gaa-ethiopic";
transform = "{1, 0, 0, 1, 349, 0}";
}
);
layerId = "994FE389-9D54-4FAA-B055-C46A67020E78";
paths = (
{
closed = 1;
nodes = (
"498 79 LINE",
"249 78 LINE SMOOTH",
"173 78 OFFCURVE",
"156 85 OFFCURVE",
"156 212 CURVE SMOOTH",
"156 312 OFFCURVE",
"159 478 OFFCURVE",
"159 531 CURVE",
"70 531 LINE",
"70 134 LINE SMOOTH",
"70 54 OFFCURVE",
"111 0 OFFCURVE",
"163 0 CURVE SMOOTH",
"497 -1 LINE"
);
}
);
width = 907;
},
{
components = (
{
name = "gaa-ethiopic";
transform = "{1, 0, 0, 1, 244, 0}";
}
);
layerId = "CBA2E3C4-6E62-469B-BD2C-D62FAD87CF88";
paths = (
{
closed = 1;
nodes = (
"349 79 LINE",
"174 78 LINE SMOOTH",
"125 78 OFFCURVE",
"109 78 OFFCURVE",
"109 212 CURVE SMOOTH",
"109 312 OFFCURVE",
"111 478 OFFCURVE",
"111 531 CURVE",
"49 531 LINE",
"49 134 LINE SMOOTH",
"49 53 OFFCURVE",
"78 0 OFFCURVE",
"114 0 CURVE SMOOTH",
"348 -1 LINE"
);
}
);
width = 907;
}
);
note = uni130B;
},
{
glyphname = "ra_gee-ethiopic.liga";
lastChange = "2019-03-11 07:10:32 +0000";
layers = (
{
layerId = "994FE389-9D54-4FAA-B055-C46A67020E78";
paths = (
{
closed = 1;
nodes = (
"778 -4 LINE SMOOTH",
"810 -4 OFFCURVE",
"832 9 OFFCURVE",
"850 29 CURVE SMOOTH",
"866 47 OFFCURVE",
"874 75 OFFCURVE",
"874 106 CURVE SMOOTH",
"874 129 OFFCURVE",
"869 151 OFFCURVE",
"861 170 CURVE SMOOTH",
"846 204 OFFCURVE",
"817 222 OFFCURVE",
"778 222 CURVE SMOOTH",
"749 222 LINE",
"749 393 LINE SMOOTH",
"749 472 OFFCURVE",
"708 526 OFFCURVE",
"656 526 CURVE SMOOTH",
"322 527 LINE",
"321 447 LINE",
"570 448 LINE SMOOTH",
"646 448 OFFCURVE",
"663 442 OFFCURVE",
"663 315 CURVE SMOOTH",
"663 215 OFFCURVE",
"660 48 OFFCURVE",
"660 -4 CURVE"
);
},
{
closed = 1;
nodes = (
"498 79 LINE",
"249 78 LINE SMOOTH",
"173 78 OFFCURVE",
"156 85 OFFCURVE",
"156 212 CURVE SMOOTH",
"156 312 OFFCURVE",
"159 478 OFFCURVE",
"159 531 CURVE",
"70 531 LINE",
"70 134 LINE SMOOTH",
"70 54 OFFCURVE",
"111 0 OFFCURVE",
"163 0 CURVE SMOOTH",
"497 -1 LINE"
);
},
{
closed = 1;
nodes = (
"749 197 LINE",
"752 197 LINE SMOOTH",
"762 197 OFFCURVE",
"770 196 OFFCURVE",
"776 193 CURVE SMOOTH",
"789 187 OFFCURVE",
"800 183 OFFCURVE",
"806 169 CURVE",
"811 159 OFFCURVE",
"816 149 OFFCURVE",
"819 134 CURVE",
"821 126 OFFCURVE",
"822 117 OFFCURVE",
"822 110 CURVE SMOOTH",
"822 83 OFFCURVE",
"816 59 OFFCURVE",
"806 44 CURVE SMOOTH",
"796 28 OFFCURVE",
"776 22 OFFCURVE",
"751 22 CURVE SMOOTH",
"749 22 LINE"
);
}
);
width = 944;
},
{
layerId = "CBA2E3C4-6E62-469B-BD2C-D62FAD87CF88";
paths = (
{
closed = 1;
nodes = (
"545 -4 LINE SMOOTH",
"566 -4 OFFCURVE",
"582 8 OFFCURVE",
"595 29 CURVE SMOOTH",
"606 47 OFFCURVE",
"612 74 OFFCURVE",
"612 106 CURVE SMOOTH",
"612 131 OFFCURVE",
"608 151 OFFCURVE",
"603 169 CURVE SMOOTH",
"592 204 OFFCURVE",
"573 222 OFFCURVE",
"545 222 CURVE SMOOTH",
"524 222 LINE",
"524 393 LINE SMOOTH",
"524 471 OFFCURVE",
"496 526 OFFCURVE",
"459 526 CURVE SMOOTH",
"225 527 LINE",
"225 447 LINE",
"399 448 LINE SMOOTH",
"452 448 OFFCURVE",
"464 442 OFFCURVE",
"464 315 CURVE SMOOTH",
"464 215 OFFCURVE",
"462 48 OFFCURVE",
"462 -4 CURVE"
);
},
{
closed = 1;
nodes = (
"349 79 LINE",
"174 78 LINE SMOOTH",
"125 78 OFFCURVE",
"109 78 OFFCURVE",
"109 212 CURVE SMOOTH",
"109 312 OFFCURVE",
"111 478 OFFCURVE",
"111 531 CURVE",
"49 531 LINE",
"49 134 LINE SMOOTH",
"49 53 OFFCURVE",
"78 0 OFFCURVE",
"114 0 CURVE SMOOTH",
"348 -1 LINE"
);
},
{
closed = 1;
nodes = (
"524 197 LINE",
"526 197 LINE SMOOTH",
"534 197 OFFCURVE",
"538 196 OFFCURVE",
"543 193 CURVE SMOOTH",
"552 187 OFFCURVE",
"560 184 OFFCURVE",
"564 169 CURVE",
"566 164 OFFCURVE",
"571 151 OFFCURVE",
"573 134 CURVE",
"575 126 OFFCURVE",
"575 117 OFFCURVE",
"575 110 CURVE SMOOTH",
"575 80 OFFCURVE",
"571 59 OFFCURVE",
"564 44 CURVE SMOOTH",
"557 28 OFFCURVE",
"544 22 OFFCURVE",
"526 22 CURVE SMOOTH",
"524 22 LINE"
);
}
);
width = 661;
}
);
note = uni130C;
},
{
glyphname = "ra_ge-ethiopic.liga";
lastChange = "2019-03-11 07:10:32 +0000";
layers = (
{
layerId = "994FE389-9D54-4FAA-B055-C46A67020E78";
paths = (
{
closed = 1;
nodes = (
"744 0 LINE",
"744 397 LINE SMOOTH",
"744 477 OFFCURVE",
"703 531 OFFCURVE",
"651 531 CURVE SMOOTH",
"317 532 LINE",
"316 452 LINE",
"317 452 LINE",
"317 420 LINE SMOOTH",
"317 388 OFFCURVE",
"331 366 OFFCURVE",
"351 348 CURVE SMOOTH",
"369 332 OFFCURVE",
"396 325 OFFCURVE",
"427 325 CURVE SMOOTH",
"451 325 OFFCURVE",
"472 329 OFFCURVE",
"491 337 CURVE SMOOTH",
"525 352 OFFCURVE",
"543 381 OFFCURVE",
"543 420 CURVE SMOOTH",
"543 453 LINE",
"565 453 LINE SMOOTH",
"641 453 OFFCURVE",
"658 446 OFFCURVE",
"658 319 CURVE SMOOTH",
"658 219 OFFCURVE",
"655 53 OFFCURVE",
"655 0 CURVE"
);
},
{
closed = 1;
nodes = (
"498 79 LINE",
"249 78 LINE SMOOTH",
"172 78 OFFCURVE",
"156 85 OFFCURVE",
"156 212 CURVE SMOOTH",
"156 312 OFFCURVE",
"159 478 OFFCURVE",
"159 531 CURVE",
"70 531 LINE",
"70 134 LINE SMOOTH",
"70 54 OFFCURVE",
"111 0 OFFCURVE",
"162 0 CURVE SMOOTH",
"497 -1 LINE"
);
},
{
closed = 1;
nodes = (
"404 376 OFFCURVE",
"381 382 OFFCURVE",
"365 392 CURVE SMOOTH",
"350 402 OFFCURVE",
"343 423 OFFCURVE",
"343 447 CURVE SMOOTH",
"343 452 LINE",
"519 453 LINE",
"519 446 LINE SMOOTH",
"519 436 OFFCURVE",
"517 428 OFFCURVE",
"514 422 CURVE",
"509 409 OFFCURVE",
"504 398 OFFCURVE",
"491 392 CURVE SMOOTH",
"481 387 OFFCURVE",
"471 383 OFFCURVE",
"455 379 CURVE SMOOTH",
"447 377 OFFCURVE",
"439 376 OFFCURVE",
"431 376 CURVE SMOOTH"
);
}
);
width = 814;
},
{
layerId = "CBA2E3C4-6E62-469B-BD2C-D62FAD87CF88";
paths = (
{
closed = 1;
nodes = (
"521 0 LINE",
"521 397 LINE SMOOTH",
"521 477 OFFCURVE",
"492 531 OFFCURVE",
"456 531 CURVE SMOOTH",
"222 532 LINE",
"221 452 LINE",
"222 452 LINE",
"222 420 LINE SMOOTH",
"222 387 OFFCURVE",
"232 366 OFFCURVE",
"245 349 CURVE SMOOTH",
"258 332 OFFCURVE",
"277 325 OFFCURVE",
"299 325 CURVE SMOOTH",
"314 325 OFFCURVE",
"331 329 OFFCURVE",
"344 337 CURVE SMOOTH",
"368 352 OFFCURVE",
"380 383 OFFCURVE",
"380 420 CURVE SMOOTH",
"380 453 LINE",
"396 453 LINE SMOOTH",
"445 453 OFFCURVE",
"461 452 OFFCURVE",
"461 319 CURVE SMOOTH",
"461 219 OFFCURVE",
"458 53 OFFCURVE",
"458 0 CURVE"
);
},
{
closed = 1;
nodes = (
"349 79 LINE",
"174 78 LINE SMOOTH",
"125 78 OFFCURVE",
"109 77 OFFCURVE",
"109 212 CURVE SMOOTH",
"109 312 OFFCURVE",
"111 478 OFFCURVE",
"111 531 CURVE",
"49 531 LINE",
"49 134 LINE SMOOTH",
"49 53 OFFCURVE",
"78 0 OFFCURVE",
"113 0 CURVE SMOOTH",
"348 -1 LINE"
);
},
{
closed = 1;
nodes = (
"282 376 OFFCURVE",
"263 384 OFFCURVE",
"255 392 CURVE SMOOTH",
"245 402 OFFCURVE",
"240 425 OFFCURVE",
"240 447 CURVE SMOOTH",
"240 452 LINE",
"363 453 LINE",
"363 446 LINE SMOOTH",
"363 437 OFFCURVE",
"362 428 OFFCURVE",
"360 422 CURVE",
"356 409 OFFCURVE",
"353 398 OFFCURVE",
"344 392 CURVE SMOOTH",
"332 384 OFFCURVE",
"328 383 OFFCURVE",
"319 379 CURVE SMOOTH",
"314 377 OFFCURVE",
"306 376 OFFCURVE",
"302 376 CURVE SMOOTH"
);
}
);
width = 570;
}
);
note = uni130D;
},
{
glyphname = "ra_go-ethiopic.liga";
lastChange = "2019-03-11 07:10:32 +0000";
layers = (
{
layerId = "994FE389-9D54-4FAA-B055-C46A67020E78";
paths = (
{
closed = 1;
nodes = (
"783 0 LINE",
"783 397 LINE SMOOTH",
"783 492 OFFCURVE",
"742 531 OFFCURVE",
"690 531 CURVE SMOOTH",
"563 531 LINE",
"563 727 LINE",
"494 727 LINE",
"494 532 LINE",
"356 532 LINE",
"355 452 LINE",
"604 453 LINE SMOOTH",
"680 453 OFFCURVE",
"697 446 OFFCURVE",
"697 319 CURVE SMOOTH",
"697 219 OFFCURVE",
"694 53 OFFCURVE",
"694 0 CURVE"
);
},
{
closed = 1;
nodes = (
"498 79 LINE",
"249 78 LINE SMOOTH",
"173 78 OFFCURVE",
"157 85 OFFCURVE",
"157 212 CURVE SMOOTH",
"157 312 OFFCURVE",
"159 478 OFFCURVE",
"159 531 CURVE",
"70 531 LINE",
"70 134 LINE SMOOTH",
"70 54 OFFCURVE",
"111 0 OFFCURVE",
"163 0 CURVE SMOOTH",
"498 -1 LINE"
);
}
);
width = 853;
},
{
layerId = "CBA2E3C4-6E62-469B-BD2C-D62FAD87CF88";
paths = (
{
closed = 1;
nodes = (
"548 0 LINE",
"548 397 LINE SMOOTH",
"548 492 OFFCURVE",
"519 531 OFFCURVE",
"483 531 CURVE SMOOTH",
"394 531 LINE",
"394 727 LINE",
"346 727 LINE",
"346 532 LINE",
"249 532 LINE",
"248 452 LINE",
"423 453 LINE SMOOTH",
"476 453 OFFCURVE",
"488 446 OFFCURVE",
"488 319 CURVE SMOOTH",
"488 219 OFFCURVE",
"486 53 OFFCURVE",
"486 0 CURVE"
);
},
{
closed = 1;
nodes = (
"349 79 LINE",
"174 78 LINE SMOOTH",
"121 78 OFFCURVE",
"110 85 OFFCURVE",
"110 212 CURVE SMOOTH",
"110 312 OFFCURVE",
"111 478 OFFCURVE",
"111 531 CURVE",
"49 531 LINE",
"49 134 LINE SMOOTH",
"49 53 OFFCURVE",
"78 0 OFFCURVE",
"114 0 CURVE SMOOTH",
"349 -1 LINE"
);
}
);
width = 597;
}
);
},
{
glyphname = "ra_goa-ethiopic.liga";
lastChange = "2019-03-11 07:10:32 +0000";
layers = (
{
layerId = "994FE389-9D54-4FAA-B055-C46A67020E78";
paths = (
{
closed = 1;
nodes = (
"779 30 LINE",
"779 0 LINE",
"868 0 LINE",
"868 397 LINE SMOOTH",
"868 492 OFFCURVE",
"827 531 OFFCURVE",
"775 531 CURVE SMOOTH",
"678 531 LINE",
"678 727 LINE",
"609 727 LINE",
"609 531 LINE",
"441 532 LINE",
"440 452 LINE",
"689 453 LINE SMOOTH",
"765 453 OFFCURVE",
"782 446 OFFCURVE",
"782 319 CURVE SMOOTH",
"782 234 OFFCURVE",
"780 103 OFFCURVE",
"779 32 CURVE",
"582 -15 LINE",
"589 -111 LINE"
);
},
{
closed = 1;
nodes = (
"498 79 LINE",
"249 78 LINE SMOOTH",
"173 78 OFFCURVE",
"156 85 OFFCURVE",
"156 212 CURVE SMOOTH",
"156 312 OFFCURVE",
"159 478 OFFCURVE",
"159 531 CURVE",
"70 531 LINE",
"70 134 LINE SMOOTH",
"70 54 OFFCURVE",
"111 0 OFFCURVE",
"163 0 CURVE SMOOTH",
"497 -1 LINE"
);
}
);
width = 938;
},
{
layerId = "CBA2E3C4-6E62-469B-BD2C-D62FAD87CF88";
paths = (
{
closed = 1;
nodes = (
"545 30 LINE",
"545 0 LINE",
"608 0 LINE",
"608 397 LINE SMOOTH",
"608 491 OFFCURVE",
"579 531 OFFCURVE",
"543 531 CURVE SMOOTH",
"475 531 LINE",
"475 727 LINE",
"426 727 LINE",
"426 531 LINE",
"309 532 LINE",
"308 452 LINE",
"482 453 LINE SMOOTH",
"531 453 OFFCURVE",
"547 454 OFFCURVE",
"547 319 CURVE SMOOTH",
"547 234 OFFCURVE",
"546 103 OFFCURVE",
"545 32 CURVE",
"407 -15 LINE",
"412 -111 LINE"
);
},
{
closed = 1;
nodes = (
"349 79 LINE",
"174 78 LINE SMOOTH",
"125 78 OFFCURVE",
"109 78 OFFCURVE",
"109 212 CURVE SMOOTH",
"109 312 OFFCURVE",
"111 478 OFFCURVE",
"111 531 CURVE",
"49 531 LINE",
"49 134 LINE SMOOTH",
"49 53 OFFCURVE",
"78 0 OFFCURVE",
"114 0 CURVE SMOOTH",
"348 -1 LINE"
);
}
);
width = 657;
}
);
},
{
glyphname = "ra_gwa-ethiopic.liga";
lastChange = "2019-03-11 07:10:32 +0000";
layers = (
{
layerId = "994FE389-9D54-4FAA-B055-C46A67020E78";
paths = (
{
closed = 1;
nodes = (
"749 0 LINE",
"749 137 LINE",
"783 137 LINE SMOOTH",
"815 137 OFFCURVE",
"837 151 OFFCURVE",
"855 171 CURVE SMOOTH",
"871 189 OFFCURVE",
"878 216 OFFCURVE",
"878 247 CURVE SMOOTH",
"878 271 OFFCURVE",
"874 293 OFFCURVE",
"866 312 CURVE SMOOTH",
"851 346 OFFCURVE",
"822 364 OFFCURVE",
"783 364 CURVE SMOOTH",
"749 364 LINE",
"749 397 LINE SMOOTH",
"749 477 OFFCURVE",
"708 531 OFFCURVE",
"657 531 CURVE SMOOTH",
"322 532 LINE",
"321 452 LINE",
"570 453 LINE SMOOTH",
"647 453 OFFCURVE",
"663 447 OFFCURVE",
"663 319 CURVE SMOOTH",
"663 219 OFFCURVE",
"660 53 OFFCURVE",
"660 0 CURVE"
);
},
{
closed = 1;
nodes = (
"498 79 LINE",
"249 78 LINE SMOOTH",
"173 78 OFFCURVE",
"157 85 OFFCURVE",
"157 212 CURVE SMOOTH",
"157 312 OFFCURVE",
"159 478 OFFCURVE",
"159 531 CURVE",
"70 531 LINE",
"70 134 LINE SMOOTH",
"70 54 OFFCURVE",
"111 0 OFFCURVE",
"163 0 CURVE SMOOTH",
"498 -1 LINE"
);
},
{
closed = 1;
nodes = (
"749 339 LINE",
"757 339 LINE SMOOTH",
"767 339 OFFCURVE",
"775 337 OFFCURVE",
"781 335 CURVE",
"794 329 OFFCURVE",
"805 325 OFFCURVE",
"811 311 CURVE",
"816 301 OFFCURVE",
"820 291 OFFCURVE",
"824 276 CURVE",
"826 267 OFFCURVE",
"827 259 OFFCURVE",
"827 252 CURVE SMOOTH",
"827 225 OFFCURVE",
"821 201 OFFCURVE",
"811 186 CURVE SMOOTH",
"801 170 OFFCURVE",
"780 164 OFFCURVE",
"756 164 CURVE SMOOTH",
"749 164 LINE"
);
}
);
width = 948;
},
{
layerId = "CBA2E3C4-6E62-469B-BD2C-D62FAD87CF88";
paths = (
{
closed = 1;
nodes = (
"524 0 LINE",
"524 137 LINE",
"548 137 LINE SMOOTH",
"570 137 OFFCURVE",
"586 151 OFFCURVE",
"598 170 CURVE SMOOTH",
"610 189 OFFCURVE",
"615 217 OFFCURVE",
"615 247 CURVE SMOOTH",
"615 268 OFFCURVE",
"612 293 OFFCURVE",
"606 313 CURVE SMOOTH",
"596 346 OFFCURVE",
"574 364 OFFCURVE",
"548 364 CURVE SMOOTH",
"524 364 LINE",
"524 397 LINE SMOOTH",
"524 476 OFFCURVE",
"496 531 OFFCURVE",
"460 531 CURVE SMOOTH",
"225 532 LINE",
"225 452 LINE",
"399 453 LINE SMOOTH",
"453 453 OFFCURVE",
"464 447 OFFCURVE",
"464 319 CURVE SMOOTH",
"464 219 OFFCURVE",
"462 53 OFFCURVE",
"462 0 CURVE"
);
},
{
closed = 1;
nodes = (
"349 79 LINE",
"174 78 LINE SMOOTH",
"121 78 OFFCURVE",
"110 85 OFFCURVE",
"110 212 CURVE SMOOTH",
"110 312 OFFCURVE",
"111 478 OFFCURVE",
"111 531 CURVE",
"49 531 LINE",
"49 134 LINE SMOOTH",
"49 53 OFFCURVE",
"78 0 OFFCURVE",
"114 0 CURVE SMOOTH",
"349 -1 LINE"
);
},
{
closed = 1;
nodes = (
"524 339 LINE",
"530 339 LINE SMOOTH",
"535 339 OFFCURVE",
"540 338 OFFCURVE",
"547 335 CURVE",
"556 329 OFFCURVE",
"564 325 OFFCURVE",
"568 311 CURVE",
"574 292 OFFCURVE",
"574 289 OFFCURVE",
"577 276 CURVE",
"578 267 OFFCURVE",
"579 259 OFFCURVE",
"579 252 CURVE SMOOTH",
"579 227 OFFCURVE",
"575 201 OFFCURVE",
"568 187 CURVE SMOOTH",
"559 167 OFFCURVE",
"543 164 OFFCURVE",
"529 164 CURVE SMOOTH",
"524 164 LINE"
);
}
);
width = 664;
}
);
note = uni1310;
},
{
glyphname = "ra_gwi-ethiopic.liga";
lastChange = "2019-03-11 07:10:32 +0000";
layers = (
{
layerId = "994FE389-9D54-4FAA-B055-C46A67020E78";
paths = (
{
closed = 1;
nodes = (
"751 0 LINE",
"751 273 LINE",
"796 273 LINE",
"796 229 LINE",
"957 229 LINE",
"957 276 LINE",
"844 276 LINE",
"844 391 LINE",
"802 391 LINE",
"802 323 LINE",
"751 323 LINE",
"751 397 LINE SMOOTH",
"751 477 OFFCURVE",
"711 531 OFFCURVE",
"659 531 CURVE SMOOTH",
"324 532 LINE",
"323 452 LINE",
"572 453 LINE SMOOTH",
"649 453 OFFCURVE",
"665 446 OFFCURVE",
"665 319 CURVE SMOOTH",
"665 219 OFFCURVE",
"662 53 OFFCURVE",
"662 0 CURVE"
);
},
{
closed = 1;
nodes = (
"498 79 LINE",
"249 78 LINE SMOOTH",
"172 78 OFFCURVE",
"156 85 OFFCURVE",
"156 212 CURVE SMOOTH",
"156 312 OFFCURVE",
"159 478 OFFCURVE",
"159 531 CURVE",
"70 531 LINE",
"70 134 LINE SMOOTH",
"70 54 OFFCURVE",
"111 0 OFFCURVE",
"162 0 CURVE SMOOTH",
"497 -1 LINE"
);
}
);
width = 1027;
},
{
layerId = "CBA2E3C4-6E62-469B-BD2C-D62FAD87CF88";
paths = (
{
closed = 1;
nodes = (
"526 0 LINE",
"526 273 LINE",
"557 273 LINE",
"557 229 LINE",
"670 229 LINE",
"670 276 LINE",
"591 276 LINE",
"591 391 LINE",
"561 391 LINE",
"561 323 LINE",
"526 323 LINE",
"526 397 LINE SMOOTH",
"526 477 OFFCURVE",
"498 531 OFFCURVE",
"461 531 CURVE SMOOTH",
"227 532 LINE",
"226 452 LINE",
"401 453 LINE SMOOTH",
"454 453 OFFCURVE",
"466 447 OFFCURVE",
"466 319 CURVE SMOOTH",
"466 219 OFFCURVE",
"463 53 OFFCURVE",
"463 0 CURVE"
);
},
{
closed = 1;
nodes = (
"349 79 LINE",
"174 78 LINE SMOOTH",
"125 78 OFFCURVE",
"109 77 OFFCURVE",
"109 212 CURVE SMOOTH",
"109 312 OFFCURVE",
"111 478 OFFCURVE",
"111 531 CURVE",
"49 531 LINE",
"49 134 LINE SMOOTH",
"49 53 OFFCURVE",
"78 0 OFFCURVE",
"113 0 CURVE SMOOTH",
"348 -1 LINE"
);
}
);
width = 719;
}
);
},
{
glyphname = "ra_gwaa-ethiopic.liga";
lastChange = "2019-03-11 07:10:32 +0000";
layers = (
{
layerId = "994FE389-9D54-4FAA-B055-C46A67020E78";
paths = (
{
closed = 1;
nodes = (
"911 -182 LINE",
"911 146 LINE",
"840 146 LINE",
"840 397 LINE SMOOTH",
"840 477 OFFCURVE",
"799 531 OFFCURVE",
"747 531 CURVE SMOOTH",
"413 532 LINE",
"412 452 LINE",
"661 453 LINE SMOOTH",
"737 453 OFFCURVE",
"754 446 OFFCURVE",
"754 319 CURVE SMOOTH",
"754 234 OFFCURVE",
"752 180 OFFCURVE",
"751 134 CURVE",
"588 126 LINE",
"654 55 LINE",
"751 109 LINE",
"817 109 LINE",
"817 -182 LINE"
);
},
{
closed = 1;
nodes = (
"498 79 LINE",
"249 78 LINE SMOOTH",
"173 78 OFFCURVE",
"157 85 OFFCURVE",
"157 212 CURVE SMOOTH",
"157 312 OFFCURVE",
"159 478 OFFCURVE",
"159 531 CURVE",
"70 531 LINE",
"70 134 LINE SMOOTH",
"70 54 OFFCURVE",
"111 0 OFFCURVE",
"163 0 CURVE SMOOTH",
"497 -1 LINE"
);
}
);
width = 981;
},
{
layerId = "CBA2E3C4-6E62-469B-BD2C-D62FAD87CF88";
paths = (
{
closed = 1;
nodes = (
"638 -182 LINE",
"638 146 LINE",
"588 146 LINE",
"588 397 LINE SMOOTH",
"588 478 OFFCURVE",
"559 531 OFFCURVE",
"523 531 CURVE SMOOTH",
"289 532 LINE",
"288 452 LINE",
"463 453 LINE SMOOTH",
"511 453 OFFCURVE",
"528 455 OFFCURVE",
"528 319 CURVE SMOOTH",
"528 234 OFFCURVE",
"526 180 OFFCURVE",
"526 134 CURVE",
"412 126 LINE",
"458 55 LINE",
"526 109 LINE",
"572 109 LINE",
"572 -182 LINE"
);
},
{
closed = 1;
nodes = (
"349 79 LINE",
"174 78 LINE SMOOTH",
"121 78 OFFCURVE",
"110 85 OFFCURVE",
"110 212 CURVE SMOOTH",
"110 312 OFFCURVE",
"111 478 OFFCURVE",
"111 531 CURVE",
"49 531 LINE",
"49 134 LINE SMOOTH",
"49 53 OFFCURVE",
"78 0 OFFCURVE",
"114 0 CURVE SMOOTH",
"348 -1 LINE"
);
}
);
width = 687;
}
);
note = uni1313;
},
{
glyphname = "ra_gwee-ethiopic.liga";
lastChange = "2019-03-11 07:10:32 +0000";
layers = (
{
layerId = "994FE389-9D54-4FAA-B055-C46A67020E78";
paths = (
{
closed = 1;
nodes = (
"805 26 LINE",
"805 0 LINE",
"837 0 LINE",
"837 -1 LINE",
"934 -1 LINE SMOOTH",
"980 -1 OFFCURVE",
"1011 14 OFFCURVE",
"1030 41 CURVE",
"1040 57 OFFCURVE",
"1045 76 OFFCURVE",
"1045 95 CURVE SMOOTH",
"1045 121 OFFCURVE",
"1037 143 OFFCURVE",
"1018 157 CURVE",
"996 175 OFFCURVE",
"971 186 OFFCURVE",
"935 186 CURVE SMOOTH",
"894 186 LINE",
"894 397 LINE SMOOTH",
"894 492 OFFCURVE",
"853 531 OFFCURVE",
"801 531 CURVE SMOOTH",
"674 531 LINE",
"674 727 LINE",
"605 727 LINE",
"605 532 LINE",
"467 532 LINE",
"466 452 LINE",
"715 453 LINE SMOOTH",
"791 453 OFFCURVE",
"808 446 OFFCURVE",
"808 319 CURVE SMOOTH",
"808 234 OFFCURVE",
"806 101 OFFCURVE",
"805 31 CURVE",
"614 -15 LINE",
"621 -111 LINE"
);
},
{
closed = 1;
nodes = (
"498 79 LINE",
"249 78 LINE SMOOTH",
"172 78 OFFCURVE",
"156 85 OFFCURVE",
"156 212 CURVE SMOOTH",
"156 312 OFFCURVE",
"159 478 OFFCURVE",
"159 531 CURVE",
"70 531 LINE",
"70 134 LINE SMOOTH",
"70 54 OFFCURVE",
"111 0 OFFCURVE",
"162 0 CURVE SMOOTH",
"497 -1 LINE"
);
},
{
closed = 1;
nodes = (
"894 164 LINE",
"902 164 LINE SMOOTH",
"931 164 OFFCURVE",
"953 157 OFFCURVE",
"966 146 CURVE",
"979 133 OFFCURVE",
"984 114 OFFCURVE",
"984 91 CURVE SMOOTH",
"984 85 OFFCURVE",
"983 78 OFFCURVE",
"981 72 CURVE",
"978 59 OFFCURVE",
"973 50 OFFCURVE",
"967 42 CURVE SMOOTH",
"959 32 OFFCURVE",
"947 26 OFFCURVE",
"932 23 CURVE",
"924 21 OFFCURVE",
"915 19 OFFCURVE",
"903 19 CURVE SMOOTH",
"894 19 LINE"
);
}
);
width = 1115;
},
{
layerId = "CBA2E3C4-6E62-469B-BD2C-D62FAD87CF88";
paths = (
{
closed = 1;
nodes = (
"563 26 LINE",
"563 0 LINE",
"586 0 LINE",
"586 -1 LINE",
"654 -1 LINE SMOOTH",
"685 -1 OFFCURVE",
"708 14 OFFCURVE",
"721 41 CURVE",
"728 57 OFFCURVE",
"732 76 OFFCURVE",
"732 95 CURVE SMOOTH",
"732 120 OFFCURVE",
"726 143 OFFCURVE",
"713 157 CURVE",
"696 176 OFFCURVE",
"679 186 OFFCURVE",
"655 186 CURVE SMOOTH",
"626 186 LINE",
"626 397 LINE SMOOTH",
"626 492 OFFCURVE",
"597 531 OFFCURVE",
"561 531 CURVE SMOOTH",
"472 531 LINE",
"472 727 LINE",
"424 727 LINE",
"424 532 LINE",
"327 532 LINE",
"326 452 LINE",
"501 453 LINE SMOOTH",
"549 453 OFFCURVE",
"566 454 OFFCURVE",
"566 319 CURVE SMOOTH",
"566 226 OFFCURVE",
"564 84 OFFCURVE",
"563 31 CURVE",
"430 -15 LINE",
"435 -111 LINE"
);
},
{
closed = 1;
nodes = (
"349 79 LINE",
"174 78 LINE SMOOTH",
"125 78 OFFCURVE",
"109 77 OFFCURVE",
"109 212 CURVE SMOOTH",
"109 312 OFFCURVE",
"111 478 OFFCURVE",
"111 531 CURVE",
"49 531 LINE",
"49 134 LINE SMOOTH",
"49 53 OFFCURVE",
"78 0 OFFCURVE",
"113 0 CURVE SMOOTH",
"348 -1 LINE"
);
},
{
closed = 1;
nodes = (
"626 164 LINE",
"631 164 LINE SMOOTH",
"652 164 OFFCURVE",
"667 157 OFFCURVE",
"676 146 CURVE",
"685 133 OFFCURVE",
"689 115 OFFCURVE",
"689 91 CURVE SMOOTH",
"689 84 OFFCURVE",
"688 78 OFFCURVE",
"687 72 CURVE",
"686 66 OFFCURVE",
"682 50 OFFCURVE",
"677 42 CURVE SMOOTH",
"670 31 OFFCURVE",
"663 26 OFFCURVE",
"652 23 CURVE",
"647 21 OFFCURVE",
"640 19 OFFCURVE",
"632 19 CURVE SMOOTH",
"626 19 LINE"
);
}
);
width = 781;
}
);
},
{
glyphname = "ra_gwe-ethiopic.liga";
lastChange = "2019-03-11 07:10:32 +0000";
layers = (
{
layerId = "994FE389-9D54-4FAA-B055-C46A67020E78";
paths = (
{
closed = 1;
nodes = (
"749 0 LINE",
"749 278 LINE",
"779 278 LINE",
"779 172 LINE",
"892 172 LINE",
"892 226 LINE",
"833 226 LINE",
"833 343 LINE",
"749 343 LINE",
"749 397 LINE SMOOTH",
"749 477 OFFCURVE",
"708 531 OFFCURVE",
"657 531 CURVE SMOOTH",
"322 532 LINE",
"321 452 LINE",
"570 453 LINE SMOOTH",
"647 453 OFFCURVE",
"663 447 OFFCURVE",
"663 319 CURVE SMOOTH",
"663 219 OFFCURVE",
"660 53 OFFCURVE",
"660 0 CURVE"
);
},
{
closed = 1;
nodes = (
"498 79 LINE",
"249 78 LINE SMOOTH",
"173 78 OFFCURVE",
"157 85 OFFCURVE",
"157 212 CURVE SMOOTH",
"157 312 OFFCURVE",
"159 478 OFFCURVE",
"159 531 CURVE",
"70 531 LINE",
"70 134 LINE SMOOTH",
"70 54 OFFCURVE",
"111 0 OFFCURVE",
"163 0 CURVE SMOOTH",
"498 -1 LINE"
);
}
);
width = 962;
},
{
layerId = "CBA2E3C4-6E62-469B-BD2C-D62FAD87CF88";
paths = (
{
closed = 1;
nodes = (
"524 0 LINE",
"524 278 LINE",
"545 278 LINE",
"545 172 LINE",
"624 172 LINE",
"624 226 LINE",
"583 226 LINE",
"583 343 LINE",
"524 343 LINE",
"524 397 LINE SMOOTH",
"524 476 OFFCURVE",
"496 531 OFFCURVE",
"460 531 CURVE SMOOTH",
"225 532 LINE",
"225 452 LINE",
"399 453 LINE SMOOTH",
"453 453 OFFCURVE",
"464 447 OFFCURVE",
"464 319 CURVE SMOOTH",
"464 219 OFFCURVE",
"462 53 OFFCURVE",
"462 0 CURVE"
);
},
{
closed = 1;
nodes = (
"349 79 LINE",
"174 78 LINE SMOOTH",
"121 78 OFFCURVE",
"110 85 OFFCURVE",
"110 212 CURVE SMOOTH",
"110 312 OFFCURVE",
"111 478 OFFCURVE",
"111 531 CURVE",
"49 531 LINE",
"49 134 LINE SMOOTH",
"49 53 OFFCURVE",
"78 0 OFFCURVE",
"114 0 CURVE SMOOTH",
"349 -1 LINE"
);
}
);
width = 673;
}
);
},
{
glyphname = "ra_gga-ethiopic.liga";
lastChange = "2019-03-11 07:10:32 +0000";
layers = (
{
layerId = "994FE389-9D54-4FAA-B055-C46A67020E78";
paths = (
{
closed = 1;
nodes = (
"749 0 LINE",
"749 397 LINE SMOOTH",
"749 492 OFFCURVE",
"708 531 OFFCURVE",
"656 531 CURVE SMOOTH",
"510 531 LINE",
"510 682 LINE",
"608 682 LINE",
"608 727 LINE",
"370 727 LINE",
"370 682 LINE",
"466 682 LINE",
"466 532 LINE",
"322 532 LINE",
"321 452 LINE",
"570 453 LINE SMOOTH",
"646 453 OFFCURVE",
"663 446 OFFCURVE",
"663 319 CURVE SMOOTH",
"663 219 OFFCURVE",
"660 53 OFFCURVE",
"660 0 CURVE"
);
},
{
closed = 1;
nodes = (
"498 79 LINE",
"249 78 LINE SMOOTH",
"173 78 OFFCURVE",
"156 85 OFFCURVE",
"156 212 CURVE SMOOTH",
"156 312 OFFCURVE",
"159 478 OFFCURVE",
"159 531 CURVE",
"70 531 LINE",
"70 134 LINE SMOOTH",
"70 54 OFFCURVE",
"111 0 OFFCURVE",
"163 0 CURVE SMOOTH",
"497 -1 LINE"
);
}
);
width = 819;
},
{
layerId = "CBA2E3C4-6E62-469B-BD2C-D62FAD87CF88";
paths = (
{
closed = 1;
nodes = (
"524 0 LINE",
"524 397 LINE SMOOTH",
"524 491 OFFCURVE",
"496 531 OFFCURVE",
"459 531 CURVE SMOOTH",
"357 531 LINE",
"357 682 LINE",
"426 682 LINE",
"426 727 LINE",
"259 727 LINE",
"259 682 LINE",
"326 682 LINE",
"326 532 LINE",
"225 532 LINE",
"225 452 LINE",
"399 453 LINE SMOOTH",
"452 453 OFFCURVE",
"464 446 OFFCURVE",
"464 319 CURVE SMOOTH",
"464 219 OFFCURVE",
"462 53 OFFCURVE",
"462 0 CURVE"
);
},
{
closed = 1;
nodes = (
"349 79 LINE",
"174 78 LINE SMOOTH",
"125 78 OFFCURVE",
"109 78 OFFCURVE",
"109 212 CURVE SMOOTH",
"109 312 OFFCURVE",
"111 478 OFFCURVE",
"111 531 CURVE",
"49 531 LINE",
"49 134 LINE SMOOTH",
"49 53 OFFCURVE",
"78 0 OFFCURVE",
"114 0 CURVE SMOOTH",
"348 -1 LINE"
);
}
);
width = 573;
}
);
},
{
glyphname = "ra_ggu-ethiopic.liga";
lastChange = "2019-03-11 07:10:32 +0000";
layers = (
{
layerId = "994FE389-9D54-4FAA-B055-C46A67020E78";
paths = (
{
closed = 1;
nodes = (
"749 0 LINE",
"749 397 LINE SMOOTH",
"749 492 OFFCURVE",
"708 531 OFFCURVE",
"656 531 CURVE SMOOTH",
"510 531 LINE",
"510 688 LINE",
"632 688 LINE",
"632 727 LINE",
"374 727 LINE",
"374 688 LINE",
"471 688 LINE",
"471 532 LINE",
"322 532 LINE",
"321 452 LINE",
"570 453 LINE SMOOTH",
"646 453 OFFCURVE",
"663 446 OFFCURVE",
"663 319 CURVE SMOOTH",
"663 219 OFFCURVE",
"660 53 OFFCURVE",
"660 0 CURVE"
);
},
{
closed = 1;
nodes = (
"498 79 LINE",
"249 78 LINE SMOOTH",
"173 78 OFFCURVE",
"156 85 OFFCURVE",
"156 212 CURVE SMOOTH",
"156 312 OFFCURVE",
"159 478 OFFCURVE",
"159 531 CURVE",
"70 531 LINE",
"70 134 LINE SMOOTH",
"70 54 OFFCURVE",
"111 0 OFFCURVE",
"163 0 CURVE SMOOTH",
"497 -1 LINE"
);
}
);
width = 819;
},
{
layerId = "CBA2E3C4-6E62-469B-BD2C-D62FAD87CF88";
paths = (
{
closed = 1;
nodes = (
"524 0 LINE",
"524 397 LINE SMOOTH",
"524 491 OFFCURVE",
"496 531 OFFCURVE",
"459 531 CURVE SMOOTH",
"357 531 LINE",
"357 688 LINE",
"442 688 LINE",
"442 727 LINE",
"262 727 LINE",
"262 688 LINE",
"330 688 LINE",
"330 532 LINE",
"225 532 LINE",
"225 452 LINE",
"399 453 LINE SMOOTH",
"452 453 OFFCURVE",
"464 446 OFFCURVE",
"464 319 CURVE SMOOTH",
"464 219 OFFCURVE",
"462 53 OFFCURVE",
"462 0 CURVE"
);
},
{
closed = 1;
nodes = (
"349 79 LINE",
"174 78 LINE SMOOTH",
"125 78 OFFCURVE",
"109 78 OFFCURVE",
"109 212 CURVE SMOOTH",
"109 312 OFFCURVE",
"111 478 OFFCURVE",
"111 531 CURVE",
"49 531 LINE",
"49 134 LINE SMOOTH",
"49 53 OFFCURVE",
"78 0 OFFCURVE",
"114 0 CURVE SMOOTH",
"348 -1 LINE"
);
}
);
width = 573;
}
);
},
{
glyphname = "ra_ggi-ethiopic.liga";
lastChange = "2019-03-11 07:10:32 +0000";
layers = (
{
layerId = "994FE389-9D54-4FAA-B055-C46A67020E78";
paths = (
{
closed = 1;
nodes = (
"880 0 LINE",
"880 55 LINE",
"749 55 LINE",
"749 397 LINE SMOOTH",
"749 492 OFFCURVE",
"708 531 OFFCURVE",
"656 531 CURVE SMOOTH",
"523 531 LINE",
"523 682 LINE",
"622 682 LINE",
"622 727 LINE",
"380 727 LINE",
"380 682 LINE",
"477 682 LINE",
"477 532 LINE",
"322 532 LINE",
"321 452 LINE",
"570 453 LINE SMOOTH",
"646 453 OFFCURVE",
"663 446 OFFCURVE",
"663 319 CURVE SMOOTH",
"663 219 OFFCURVE",
"660 53 OFFCURVE",
"660 0 CURVE"
);
},
{
closed = 1;
nodes = (
"498 79 LINE",
"249 78 LINE SMOOTH",
"173 78 OFFCURVE",
"156 85 OFFCURVE",
"156 212 CURVE SMOOTH",
"156 312 OFFCURVE",
"159 478 OFFCURVE",
"159 531 CURVE",
"70 531 LINE",
"70 134 LINE SMOOTH",
"70 54 OFFCURVE",
"111 0 OFFCURVE",
"163 0 CURVE SMOOTH",
"497 -1 LINE"
);
}
);
width = 950;
},
{
layerId = "CBA2E3C4-6E62-469B-BD2C-D62FAD87CF88";
paths = (
{
closed = 1;
nodes = (
"616 0 LINE",
"616 55 LINE",
"524 55 LINE",
"524 397 LINE SMOOTH",
"524 491 OFFCURVE",
"496 531 OFFCURVE",
"459 531 CURVE SMOOTH",
"366 531 LINE",
"366 682 LINE",
"435 682 LINE",
"435 727 LINE",
"266 727 LINE",
"266 682 LINE",
"334 682 LINE",
"334 532 LINE",
"225 532 LINE",
"225 452 LINE",
"399 453 LINE SMOOTH",
"452 453 OFFCURVE",
"464 446 OFFCURVE",
"464 319 CURVE SMOOTH",
"464 219 OFFCURVE",
"462 53 OFFCURVE",
"462 0 CURVE"
);
},
{
closed = 1;
nodes = (
"349 79 LINE",
"174 78 LINE SMOOTH",
"125 78 OFFCURVE",
"109 78 OFFCURVE",
"109 212 CURVE SMOOTH",
"109 312 OFFCURVE",
"111 478 OFFCURVE",
"111 531 CURVE",
"49 531 LINE",
"49 134 LINE SMOOTH",
"49 53 OFFCURVE",
"78 0 OFFCURVE",
"114 0 CURVE SMOOTH",
"348 -1 LINE"
);
}
);
width = 665;
}
);
},
{
glyphname = "ra_ggaa-ethiopic.liga";
lastChange = "2019-03-11 07:10:32 +0000";
layers = (
{
components = (
{
name = "ggaa-ethiopic";
transform = "{1, 0, 0, 1, 330, 0}";
}
);
layerId = "994FE389-9D54-4FAA-B055-C46A67020E78";
paths = (
{
closed = 1;
nodes = (
"499 79 LINE",
"249 78 LINE SMOOTH",
"173 78 OFFCURVE",
"157 85 OFFCURVE",
"157 212 CURVE SMOOTH",
"157 312 OFFCURVE",
"159 478 OFFCURVE",
"159 531 CURVE",
"70 531 LINE",
"70 134 LINE SMOOTH",
"70 54 OFFCURVE",
"111 0 OFFCURVE",
"163 0 CURVE SMOOTH",
"498 -1 LINE"
);
}
);
width = 862;
},
{
components = (
{
name = "ggaa-ethiopic";
transform = "{1, 0, 0, 1, 231, 0}";
}
);
layerId = "CBA2E3C4-6E62-469B-BD2C-D62FAD87CF88";
paths = (
{
closed = 1;
nodes = (
"349 79 LINE",
"174 78 LINE SMOOTH",
"121 78 OFFCURVE",
"110 85 OFFCURVE",
"110 212 CURVE SMOOTH",
"110 312 OFFCURVE",
"111 478 OFFCURVE",
"111 531 CURVE",
"49 531 LINE",
"49 134 LINE SMOOTH",
"49 53 OFFCURVE",
"78 0 OFFCURVE",
"114 0 CURVE SMOOTH",
"349 -1 LINE"
);
}
);
width = 569;
}
);
},
{
glyphname = "ra_ggee-ethiopic.liga";
lastChange = "2019-03-11 07:10:32 +0000";
layers = (
{
layerId = "994FE389-9D54-4FAA-B055-C46A67020E78";
paths = (
{
closed = 1;
nodes = (
"778 -4 LINE SMOOTH",
"810 -4 OFFCURVE",
"832 9 OFFCURVE",
"850 29 CURVE SMOOTH",
"866 47 OFFCURVE",
"874 75 OFFCURVE",
"874 106 CURVE SMOOTH",
"874 129 OFFCURVE",
"869 151 OFFCURVE",
"861 170 CURVE SMOOTH",
"846 204 OFFCURVE",
"817 222 OFFCURVE",
"778 222 CURVE SMOOTH",
"749 222 LINE",
"749 393 LINE SMOOTH",
"749 487 OFFCURVE",
"708 526 OFFCURVE",
"656 526 CURVE SMOOTH",
"505 526 LINE",
"505 682 LINE",
"622 682 LINE",
"622 727 LINE",
"380 727 LINE",
"380 682 LINE",
"465 682 LINE",
"465 527 LINE",
"322 527 LINE",
"321 447 LINE",
"570 448 LINE SMOOTH",
"646 448 OFFCURVE",
"663 442 OFFCURVE",
"663 315 CURVE SMOOTH",
"663 215 OFFCURVE",
"660 48 OFFCURVE",
"660 -4 CURVE"
);
},
{
closed = 1;
nodes = (
"498 79 LINE",
"249 78 LINE SMOOTH",
"173 78 OFFCURVE",
"156 85 OFFCURVE",
"156 212 CURVE SMOOTH",
"156 312 OFFCURVE",
"159 478 OFFCURVE",
"159 531 CURVE",
"70 531 LINE",
"70 134 LINE SMOOTH",
"70 54 OFFCURVE",
"111 0 OFFCURVE",
"163 0 CURVE SMOOTH",
"497 -1 LINE"
);
},
{
closed = 1;
nodes = (
"749 197 LINE",
"752 197 LINE SMOOTH",
"762 197 OFFCURVE",
"770 196 OFFCURVE",
"776 193 CURVE SMOOTH",
"789 187 OFFCURVE",
"800 183 OFFCURVE",
"806 169 CURVE",
"811 159 OFFCURVE",
"815 149 OFFCURVE",
"819 134 CURVE SMOOTH",
"821 126 OFFCURVE",
"822 117 OFFCURVE",
"822 110 CURVE SMOOTH",
"822 83 OFFCURVE",
"816 59 OFFCURVE",
"806 44 CURVE SMOOTH",
"796 28 OFFCURVE",
"775 22 OFFCURVE",
"751 22 CURVE SMOOTH",
"749 22 LINE"
);
}
);
width = 944;
},
{
layerId = "CBA2E3C4-6E62-469B-BD2C-D62FAD87CF88";
paths = (
{
closed = 1;
nodes = (
"545 -4 LINE SMOOTH",
"566 -4 OFFCURVE",
"582 8 OFFCURVE",
"595 29 CURVE SMOOTH",
"606 47 OFFCURVE",
"612 74 OFFCURVE",
"612 106 CURVE SMOOTH",
"612 131 OFFCURVE",
"608 151 OFFCURVE",
"603 169 CURVE SMOOTH",
"592 204 OFFCURVE",
"573 222 OFFCURVE",
"545 222 CURVE SMOOTH",
"524 222 LINE",
"524 393 LINE SMOOTH",
"524 486 OFFCURVE",
"496 526 OFFCURVE",
"459 526 CURVE SMOOTH",
"354 526 LINE",
"354 682 LINE",
"435 682 LINE",
"435 727 LINE",
"266 727 LINE",
"266 682 LINE",
"326 682 LINE",
"326 527 LINE",
"225 527 LINE",
"225 447 LINE",
"399 448 LINE SMOOTH",
"452 448 OFFCURVE",
"464 442 OFFCURVE",
"464 315 CURVE SMOOTH",
"464 215 OFFCURVE",
"462 48 OFFCURVE",
"462 -4 CURVE"
);
},
{
closed = 1;
nodes = (
"349 79 LINE",
"174 78 LINE SMOOTH",
"125 78 OFFCURVE",
"109 78 OFFCURVE",
"109 212 CURVE SMOOTH",
"109 312 OFFCURVE",
"111 478 OFFCURVE",
"111 531 CURVE",
"49 531 LINE",
"49 134 LINE SMOOTH",
"49 53 OFFCURVE",
"78 0 OFFCURVE",
"114 0 CURVE SMOOTH",
"348 -1 LINE"
);
},
{
closed = 1;
nodes = (
"524 197 LINE",
"526 197 LINE SMOOTH",
"534 197 OFFCURVE",
"538 196 OFFCURVE",
"543 193 CURVE SMOOTH",
"552 187 OFFCURVE",
"560 184 OFFCURVE",
"564 169 CURVE",
"567 161 OFFCURVE",
"571 146 OFFCURVE",
"573 135 CURVE SMOOTH",
"575 125 OFFCURVE",
"575 118 OFFCURVE",
"575 110 CURVE SMOOTH",
"575 80 OFFCURVE",
"571 59 OFFCURVE",
"564 44 CURVE SMOOTH",
"557 28 OFFCURVE",
"543 22 OFFCURVE",
"526 22 CURVE SMOOTH",
"524 22 LINE"
);
}
);
width = 661;
}
);
},
{
glyphname = "ra_gge-ethiopic.liga";
lastChange = "2019-03-11 07:10:32 +0000";
layers = (
{
layerId = "994FE389-9D54-4FAA-B055-C46A67020E78";
paths = (
{
closed = 1;
nodes = (
"754 0 LINE",
"754 397 LINE SMOOTH",
"754 492 OFFCURVE",
"713 531 OFFCURVE",
"661 531 CURVE SMOOTH",
"582 531 LINE",
"582 682 LINE",
"696 682 LINE",
"696 727 LINE",
"380 727 LINE",
"380 682 LINE",
"532 682 LINE",
"532 531 LINE",
"326 532 LINE",
"325 452 LINE",
"326 452 LINE",
"326 420 LINE SMOOTH",
"326 388 OFFCURVE",
"340 366 OFFCURVE",
"360 348 CURVE SMOOTH",
"378 332 OFFCURVE",
"405 325 OFFCURVE",
"436 325 CURVE SMOOTH",
"460 325 OFFCURVE",
"482 329 OFFCURVE",
"501 337 CURVE SMOOTH",
"535 352 OFFCURVE",
"553 381 OFFCURVE",
"553 420 CURVE SMOOTH",
"553 453 LINE",
"575 453 LINE SMOOTH",
"651 453 OFFCURVE",
"667 446 OFFCURVE",
"667 319 CURVE SMOOTH",
"667 219 OFFCURVE",
"665 53 OFFCURVE",
"665 0 CURVE"
);
},
{
closed = 1;
nodes = (
"498 79 LINE",
"249 78 LINE SMOOTH",
"173 78 OFFCURVE",
"156 85 OFFCURVE",
"156 212 CURVE SMOOTH",
"156 312 OFFCURVE",
"159 478 OFFCURVE",
"159 531 CURVE",
"70 531 LINE",
"70 134 LINE SMOOTH",
"70 54 OFFCURVE",
"111 0 OFFCURVE",
"163 0 CURVE SMOOTH",
"497 -1 LINE"
);
},
{
closed = 1;
nodes = (
"414 376 OFFCURVE",
"390 382 OFFCURVE",
"375 392 CURVE SMOOTH",
"359 402 OFFCURVE",
"353 423 OFFCURVE",
"353 447 CURVE SMOOTH",
"353 452 LINE",
"528 453 LINE",
"528 446 LINE SMOOTH",
"528 436 OFFCURVE",
"526 428 OFFCURVE",
"524 422 CURVE",
"518 409 OFFCURVE",
"514 398 OFFCURVE",
"500 392 CURVE",
"490 387 OFFCURVE",
"480 383 OFFCURVE",
"465 379 CURVE",
"456 377 OFFCURVE",
"448 376 OFFCURVE",
"441 376 CURVE SMOOTH"
);
}
);
width = 824;
},
{
layerId = "CBA2E3C4-6E62-469B-BD2C-D62FAD87CF88";
paths = (
{
closed = 1;
nodes = (
"528 0 LINE",
"528 397 LINE SMOOTH",
"528 492 OFFCURVE",
"499 531 OFFCURVE",
"463 531 CURVE SMOOTH",
"407 531 LINE",
"407 682 LINE",
"487 682 LINE",
"487 727 LINE",
"266 727 LINE",
"266 682 LINE",
"372 682 LINE",
"372 531 LINE",
"228 532 LINE",
"227 452 LINE",
"228 452 LINE",
"228 420 LINE SMOOTH",
"228 388 OFFCURVE",
"238 366 OFFCURVE",
"252 348 CURVE SMOOTH",
"265 332 OFFCURVE",
"283 325 OFFCURVE",
"305 325 CURVE SMOOTH",
"322 325 OFFCURVE",
"340 330 OFFCURVE",
"351 337 CURVE SMOOTH",
"375 352 OFFCURVE",
"387 383 OFFCURVE",
"387 420 CURVE SMOOTH",
"387 453 LINE",
"403 453 LINE SMOOTH",
"452 453 OFFCURVE",
"467 452 OFFCURVE",
"467 319 CURVE SMOOTH",
"467 219 OFFCURVE",
"466 53 OFFCURVE",
"466 0 CURVE"
);
},
{
closed = 1;
nodes = (
"349 79 LINE",
"174 78 LINE SMOOTH",
"125 78 OFFCURVE",
"109 78 OFFCURVE",
"109 212 CURVE SMOOTH",
"109 312 OFFCURVE",
"111 478 OFFCURVE",
"111 531 CURVE",
"49 531 LINE",
"49 134 LINE SMOOTH",
"49 53 OFFCURVE",
"78 0 OFFCURVE",
"114 0 CURVE SMOOTH",
"348 -1 LINE"
);
},
{
closed = 1;
nodes = (
"289 376 OFFCURVE",
"273 382 OFFCURVE",
"263 392 CURVE SMOOTH",
"249 405 OFFCURVE",
"247 428 OFFCURVE",
"247 447 CURVE SMOOTH",
"247 452 LINE",
"370 453 LINE",
"370 446 LINE SMOOTH",
"370 436 OFFCURVE",
"368 428 OFFCURVE",
"367 422 CURVE",
"363 410 OFFCURVE",
"360 398 OFFCURVE",
"350 392 CURVE",
"339 384 OFFCURVE",
"337 384 OFFCURVE",
"326 379 CURVE",
"319 377 OFFCURVE",
"313 376 OFFCURVE",
"309 376 CURVE SMOOTH"
);
}
);
width = 577;
}
);
},
{
glyphname = "ra_ggo-ethiopic.liga";
lastChange = "2019-03-11 07:10:32 +0000";
layers = (
{
layerId = "994FE389-9D54-4FAA-B055-C46A67020E78";
paths = (
{
closed = 1;
nodes = (
"754 0 LINE",
"754 397 LINE SMOOTH",
"754 492 OFFCURVE",
"713 531 OFFCURVE",
"661 531 CURVE SMOOTH",
"616 531 LINE",
"616 606 LINE SMOOTH",
"616 638 OFFCURVE",
"607 663 OFFCURVE",
"589 679 CURVE",
"717 679 LINE",
"717 727 LINE",
"383 727 LINE",
"383 679 LINE",
"465 679 LINE",
"463 677 LINE",
"447 659 OFFCURVE",
"436 637 OFFCURVE",
"436 606 CURVE SMOOTH",
"436 532 LINE",
"326 532 LINE",
"325 452 LINE",
"574 453 LINE SMOOTH",
"651 453 OFFCURVE",
"667 446 OFFCURVE",
"667 319 CURVE SMOOTH",
"667 219 OFFCURVE",
"664 53 OFFCURVE",
"664 0 CURVE"
);
},
{
closed = 1;
nodes = (
"498 79 LINE",
"249 78 LINE SMOOTH",
"173 78 OFFCURVE",
"156 85 OFFCURVE",
"156 212 CURVE SMOOTH",
"156 312 OFFCURVE",
"159 478 OFFCURVE",
"159 531 CURVE",
"70 531 LINE",
"70 134 LINE SMOOTH",
"70 54 OFFCURVE",
"111 0 OFFCURVE",
"163 0 CURVE SMOOTH",
"497 -1 LINE"
);
},
{
closed = 1;
nodes = (
"457 532 LINE",
"457 578 LINE SMOOTH",
"457 603 OFFCURVE",
"462 624 OFFCURVE",
"474 634 CURVE SMOOTH",
"486 644 OFFCURVE",
"505 649 OFFCURVE",
"527 649 CURVE SMOOTH",
"533 649 OFFCURVE",
"540 648 OFFCURVE",
"546 646 CURVE",
"558 643 OFFCURVE",
"566 638 OFFCURVE",
"574 634 CURVE",
"585 627 OFFCURVE",
"590 616 OFFCURVE",
"594 604 CURVE",
"595 597 OFFCURVE",
"596 589 OFFCURVE",
"596 579 CURVE SMOOTH",
"596 531 LINE"
);
}
);
width = 824;
},
{
layerId = "CBA2E3C4-6E62-469B-BD2C-D62FAD87CF88";
paths = (
{
closed = 1;
nodes = (
"528 0 LINE",
"528 397 LINE SMOOTH",
"528 492 OFFCURVE",
"499 531 OFFCURVE",
"463 531 CURVE SMOOTH",
"431 531 LINE",
"431 606 LINE SMOOTH",
"431 637 OFFCURVE",
"425 663 OFFCURVE",
"412 679 CURVE",
"502 679 LINE",
"502 727 LINE",
"268 727 LINE",
"268 679 LINE",
"326 679 LINE",
"324 677 LINE",
"310 654 OFFCURVE",
"305 631 OFFCURVE",
"305 606 CURVE SMOOTH",
"305 532 LINE",
"228 532 LINE",
"227 452 LINE",
"402 453 LINE SMOOTH",
"452 453 OFFCURVE",
"467 453 OFFCURVE",
"467 319 CURVE SMOOTH",
"467 219 OFFCURVE",
"465 53 OFFCURVE",
"465 0 CURVE"
);
},
{
closed = 1;
nodes = (
"349 79 LINE",
"174 78 LINE SMOOTH",
"125 78 OFFCURVE",
"109 78 OFFCURVE",
"109 212 CURVE SMOOTH",
"109 312 OFFCURVE",
"111 478 OFFCURVE",
"111 531 CURVE",
"49 531 LINE",
"49 134 LINE SMOOTH",
"49 53 OFFCURVE",
"78 0 OFFCURVE",
"114 0 CURVE SMOOTH",
"348 -1 LINE"
);
},
{
closed = 1;
nodes = (
"320 532 LINE",
"320 578 LINE SMOOTH",
"320 600 OFFCURVE",
"323 624 OFFCURVE",
"331 633 CURVE SMOOTH",
"340 644 OFFCURVE",
"353 649 OFFCURVE",
"369 649 CURVE SMOOTH",
"373 649 OFFCURVE",
"378 648 OFFCURVE",
"382 646 CURVE",
"390 643 OFFCURVE",
"395 639 OFFCURVE",
"402 634 CURVE",
"409 628 OFFCURVE",
"413 615 OFFCURVE",
"416 604 CURVE",
"416 597 OFFCURVE",
"417 589 OFFCURVE",
"417 579 CURVE SMOOTH",
"417 531 LINE"
);
}
);
width = 577;
}
);
},
{
glyphname = "ra_ggwaa-ethiopic.liga";
lastChange = "2019-03-11 07:10:32 +0000";
layers = (
{
layerId = "994FE389-9D54-4FAA-B055-C46A67020E78";
paths = (
{
closed = 1;
nodes = (
"983 -182 LINE",
"983 -7 LINE",
"982 -7 LINE",
"982 6 LINE",
"913 6 LINE",
"913 397 LINE SMOOTH",
"913 492 OFFCURVE",
"872 531 OFFCURVE",
"820 531 CURVE SMOOTH",
"674 531 LINE",
"674 682 LINE",
"772 682 LINE",
"772 727 LINE",
"534 727 LINE",
"534 682 LINE",
"630 682 LINE",
"630 532 LINE",
"485 532 LINE",
"485 452 LINE",
"734 453 LINE SMOOTH",
"810 453 OFFCURVE",
"826 446 OFFCURVE",
"826 319 CURVE SMOOTH",
"826 223 OFFCURVE",
"824 65 OFFCURVE",
"824 6 CURVE",
"652 6 LINE",
"652 -18 LINE",
"902 -18 LINE",
"902 -182 LINE"
);
},
{
closed = 1;
nodes = (
"498 79 LINE",
"249 78 LINE SMOOTH",
"173 78 OFFCURVE",
"156 85 OFFCURVE",
"156 212 CURVE SMOOTH",
"156 312 OFFCURVE",
"159 478 OFFCURVE",
"159 531 CURVE",
"70 531 LINE",
"70 134 LINE SMOOTH",
"70 54 OFFCURVE",
"111 0 OFFCURVE",
"163 0 CURVE SMOOTH",
"497 -1 LINE"
);
}
);
width = 1053;
},
{
layerId = "CBA2E3C4-6E62-469B-BD2C-D62FAD87CF88";
paths = (
{
closed = 1;
nodes = (
"688 -182 LINE",
"688 -7 LINE",
"687 -7 LINE",
"687 6 LINE",
"639 6 LINE",
"639 397 LINE SMOOTH",
"639 492 OFFCURVE",
"610 531 OFFCURVE",
"574 531 CURVE SMOOTH",
"472 531 LINE",
"472 682 LINE",
"540 682 LINE",
"540 727 LINE",
"374 727 LINE",
"374 682 LINE",
"441 682 LINE",
"441 532 LINE",
"340 532 LINE",
"340 452 LINE",
"514 453 LINE SMOOTH",
"567 453 OFFCURVE",
"578 446 OFFCURVE",
"578 319 CURVE SMOOTH",
"578 223 OFFCURVE",
"577 65 OFFCURVE",
"577 6 CURVE",
"456 6 LINE",
"456 -18 LINE",
"631 -18 LINE",
"631 -182 LINE"
);
},
{
closed = 1;
nodes = (
"349 79 LINE",
"174 78 LINE SMOOTH",
"125 78 OFFCURVE",
"109 78 OFFCURVE",
"109 212 CURVE SMOOTH",
"109 312 OFFCURVE",
"111 478 OFFCURVE",
"111 531 CURVE",
"49 531 LINE",
"49 134 LINE SMOOTH",
"49 53 OFFCURVE",
"78 0 OFFCURVE",
"114 0 CURVE SMOOTH",
"348 -1 LINE"
);
}
);
width = 737;
}
);
},
{
glyphname = "ru_xa-ethiopic.liga";
lastChange = "2019-03-11 07:10:32 +0000";
layers = (
{
layerId = "994FE389-9D54-4FAA-B055-C46A67020E78";
paths = (
{
closed = 1;
nodes = (
"792 0 LINE",
"792 439 LINE SMOOTH",
"792 531 OFFCURVE",
"792 531 OFFCURVE",
"688 531 CURVE SMOOTH",
"459 531 LINE",
"459 727 LINE",
"368 727 LINE",
"368 654 LINE",
"237 654 LINE",
"237 571 LINE",
"368 571 LINE",
"368 505 LINE SMOOTH",
"368 477 OFFCURVE",
"386 458 OFFCURVE",
"415 458 CURVE SMOOTH",
"643 458 LINE SMOOTH",
"701 458 OFFCURVE",
"701 458 OFFCURVE",
"701 278 CURVE SMOOTH",
"701 0 LINE"
);
},
{
closed = 1;
nodes = (
"400 -175 LINE",
"400 -1 LINE",
"497 -1 LINE",
"498 79 LINE",
"249 78 LINE SMOOTH",
"173 78 OFFCURVE",
"156 85 OFFCURVE",
"156 212 CURVE SMOOTH",
"156 312 OFFCURVE",
"159 478 OFFCURVE",
"159 531 CURVE",
"70 531 LINE",
"70 134 LINE SMOOTH",
"70 39 OFFCURVE",
"111 0 OFFCURVE",
"163 0 CURVE SMOOTH",
"321 0 LINE",
"321 -175 LINE"
);
}
);
width = 862;
},
{
layerId = "CBA2E3C4-6E62-469B-BD2C-D62FAD87CF88";
paths = (
{
closed = 1;
nodes = (
"554 0 LINE",
"554 439 LINE SMOOTH",
"554 531 OFFCURVE",
"554 531 OFFCURVE",
"482 531 CURVE SMOOTH",
"321 531 LINE",
"321 727 LINE",
"258 727 LINE",
"258 654 LINE",
"166 654 LINE",
"166 571 LINE",
"258 571 LINE",
"258 505 LINE SMOOTH",
"258 478 OFFCURVE",
"270 458 OFFCURVE",
"291 458 CURVE SMOOTH",
"450 458 LINE SMOOTH",
"491 458 OFFCURVE",
"491 458 OFFCURVE",
"491 278 CURVE SMOOTH",
"491 0 LINE"
);
},
{
closed = 1;
nodes = (
"280 -175 LINE",
"280 -1 LINE",
"348 -1 LINE",
"349 79 LINE",
"174 78 LINE SMOOTH",
"125 78 OFFCURVE",
"109 78 OFFCURVE",
"109 212 CURVE SMOOTH",
"109 312 OFFCURVE",
"111 478 OFFCURVE",
"111 531 CURVE",
"49 531 LINE",
"49 134 LINE SMOOTH",
"49 39 OFFCURVE",
"78 0 OFFCURVE",
"114 0 CURVE SMOOTH",
"225 0 LINE",
"225 -175 LINE"
);
}
);
width = 603;
}
);
note = uni1280;
},
{
glyphname = "ru_xu-ethiopic.liga";
lastChange = "2019-03-11 07:10:32 +0000";
layers = (
{
layerId = "994FE389-9D54-4FAA-B055-C46A67020E78";
paths = (
{
closed = 1;
nodes = (
"747 0 LINE",
"747 246 LINE",
"846 246 LINE",
"846 346 LINE",
"747 346 LINE",
"747 439 LINE SMOOTH",
"747 531 OFFCURVE",
"747 531 OFFCURVE",
"643 531 CURVE SMOOTH",
"414 531 LINE",
"414 727 LINE",
"323 727 LINE",
"323 654 LINE",
"192 654 LINE",
"192 571 LINE",
"323 571 LINE",
"323 505 LINE SMOOTH",
"323 477 OFFCURVE",
"340 458 OFFCURVE",
"369 458 CURVE SMOOTH",
"598 458 LINE SMOOTH",
"656 458 OFFCURVE",
"656 458 OFFCURVE",
"656 278 CURVE SMOOTH",
"656 0 LINE"
);
},
{
closed = 1;
nodes = (
"400 -175 LINE",
"400 -1 LINE",
"498 -1 LINE",
"498 79 LINE",
"249 78 LINE SMOOTH",
"173 78 OFFCURVE",
"157 85 OFFCURVE",
"157 212 CURVE SMOOTH",
"157 312 OFFCURVE",
"159 478 OFFCURVE",
"159 531 CURVE",
"70 531 LINE",
"70 134 LINE SMOOTH",
"70 39 OFFCURVE",
"111 0 OFFCURVE",
"163 0 CURVE SMOOTH",
"321 0 LINE",
"321 -175 LINE"
);
}
);
width = 916;
},
{
layerId = "CBA2E3C4-6E62-469B-BD2C-D62FAD87CF88";
paths = (
{
closed = 1;
nodes = (
"523 0 LINE",
"523 246 LINE",
"592 246 LINE",
"592 346 LINE",
"523 346 LINE",
"523 439 LINE SMOOTH",
"523 531 OFFCURVE",
"523 531 OFFCURVE",
"450 531 CURVE SMOOTH",
"290 531 LINE",
"290 727 LINE",
"226 727 LINE",
"226 654 LINE",
"134 654 LINE",
"134 571 LINE",
"226 571 LINE",
"226 505 LINE SMOOTH",
"226 477 OFFCURVE",
"238 458 OFFCURVE",
"258 458 CURVE SMOOTH",
"419 458 LINE SMOOTH",
"459 458 OFFCURVE",
"459 458 OFFCURVE",
"459 278 CURVE SMOOTH",
"459 0 LINE"
);
},
{
closed = 1;
nodes = (
"280 -175 LINE",
"280 -1 LINE",
"349 -1 LINE",
"349 79 LINE",
"174 78 LINE SMOOTH",
"121 78 OFFCURVE",
"110 85 OFFCURVE",
"110 212 CURVE SMOOTH",
"110 312 OFFCURVE",
"111 478 OFFCURVE",
"111 531 CURVE",
"49 531 LINE",
"49 134 LINE SMOOTH",
"49 39 OFFCURVE",
"78 0 OFFCURVE",
"114 0 CURVE SMOOTH",
"225 0 LINE",
"225 -175 LINE"
);
}
);
width = 641;
}
);
note = uni1281;
},
{
glyphname = "ru_xi-ethiopic.liga";
lastChange = "2019-03-11 07:10:32 +0000";
layers = (
{
layerId = "994FE389-9D54-4FAA-B055-C46A67020E78";
paths = (
{
closed = 1;
nodes = (
"865 0 LINE",
"865 100 LINE",
"765 100 LINE",
"765 439 LINE SMOOTH",
"765 531 OFFCURVE",
"765 531 OFFCURVE",
"661 531 CURVE SMOOTH",
"432 531 LINE",
"432 727 LINE",
"341 727 LINE",
"341 654 LINE",
"210 654 LINE",
"210 571 LINE",
"341 571 LINE",
"341 505 LINE SMOOTH",
"341 477 OFFCURVE",
"358 458 OFFCURVE",
"387 458 CURVE SMOOTH",
"616 458 LINE SMOOTH",
"674 458 OFFCURVE",
"674 458 OFFCURVE",
"674 278 CURVE SMOOTH",
"674 0 LINE"
);
},
{
closed = 1;
nodes = (
"400 -175 LINE",
"400 -1 LINE",
"497 -1 LINE",
"498 79 LINE",
"249 78 LINE SMOOTH",
"173 78 OFFCURVE",
"156 85 OFFCURVE",
"156 212 CURVE SMOOTH",
"156 312 OFFCURVE",
"159 478 OFFCURVE",
"159 531 CURVE",
"70 531 LINE",
"70 134 LINE SMOOTH",
"70 39 OFFCURVE",
"111 0 OFFCURVE",
"163 0 CURVE SMOOTH",
"321 0 LINE",
"321 -175 LINE"
);
}
);
width = 935;
},
{
layerId = "CBA2E3C4-6E62-469B-BD2C-D62FAD87CF88";
paths = (
{
closed = 1;
nodes = (
"606 0 LINE",
"606 100 LINE",
"536 100 LINE",
"536 439 LINE SMOOTH",
"536 531 OFFCURVE",
"536 531 OFFCURVE",
"463 531 CURVE SMOOTH",
"302 531 LINE",
"302 727 LINE",
"239 727 LINE",
"239 654 LINE",
"147 654 LINE",
"147 571 LINE",
"239 571 LINE",
"239 505 LINE SMOOTH",
"239 477 OFFCURVE",
"251 458 OFFCURVE",
"271 458 CURVE SMOOTH",
"431 458 LINE SMOOTH",
"472 458 OFFCURVE",
"472 458 OFFCURVE",
"472 278 CURVE SMOOTH",
"472 0 LINE"
);
},
{
closed = 1;
nodes = (
"280 -175 LINE",
"280 -1 LINE",
"348 -1 LINE",
"349 79 LINE",
"174 78 LINE SMOOTH",
"125 78 OFFCURVE",
"109 78 OFFCURVE",
"109 212 CURVE SMOOTH",
"109 312 OFFCURVE",
"111 478 OFFCURVE",
"111 531 CURVE",
"49 531 LINE",
"49 134 LINE SMOOTH",
"49 39 OFFCURVE",
"78 0 OFFCURVE",
"114 0 CURVE SMOOTH",
"225 0 LINE",
"225 -175 LINE"
);
}
);
width = 655;
}
);
note = uni1282;
},
{
glyphname = "ru_xee-ethiopic.liga";
lastChange = "2019-03-11 07:10:32 +0000";
layers = (
{
layerId = "994FE389-9D54-4FAA-B055-C46A67020E78";
paths = (
{
closed = 1;
nodes = (
"838 0 LINE SMOOTH",
"883 0 OFFCURVE",
"915 16 OFFCURVE",
"933 46 CURVE SMOOTH",
"943 63 OFFCURVE",
"949 82 OFFCURVE",
"949 103 CURVE SMOOTH",
"949 131 OFFCURVE",
"941 155 OFFCURVE",
"922 170 CURVE SMOOTH",
"900 188 OFFCURVE",
"875 200 OFFCURVE",
"839 200 CURVE SMOOTH",
"828 200 LINE",
"828 439 LINE SMOOTH",
"828 531 OFFCURVE",
"828 531 OFFCURVE",
"724 531 CURVE SMOOTH",
"495 531 LINE",
"495 727 LINE",
"404 727 LINE",
"404 654 LINE",
"273 654 LINE",
"273 571 LINE",
"404 571 LINE",
"404 505 LINE SMOOTH",
"404 477 OFFCURVE",
"422 458 OFFCURVE",
"451 458 CURVE SMOOTH",
"679 458 LINE SMOOTH",
"737 458 OFFCURVE",
"737 458 OFFCURVE",
"737 278 CURVE SMOOTH",
"737 0 LINE"
);
},
{
closed = 1;
nodes = (
"400 -175 LINE",
"400 -1 LINE",
"497 -1 LINE",
"498 79 LINE",
"249 78 LINE SMOOTH",
"173 78 OFFCURVE",
"156 85 OFFCURVE",
"156 212 CURVE SMOOTH",
"156 312 OFFCURVE",
"159 478 OFFCURVE",
"159 531 CURVE",
"70 531 LINE",
"70 134 LINE SMOOTH",
"70 39 OFFCURVE",
"111 0 OFFCURVE",
"163 0 CURVE SMOOTH",
"321 0 LINE",
"321 -175 LINE"
);
},
{
closed = 1;
nodes = (
"828 175 LINE",
"846 173 OFFCURVE",
"861 166 OFFCURVE",
"870 157 CURVE SMOOTH",
"883 144 OFFCURVE",
"888 124 OFFCURVE",
"888 99 CURVE SMOOTH",
"888 92 OFFCURVE",
"887 86 OFFCURVE",
"885 78 CURVE SMOOTH",
"882 65 OFFCURVE",
"877 55 OFFCURVE",
"871 46 CURVE",
"863 36 OFFCURVE",
"851 29 OFFCURVE",
"836 26 CURVE",
"828 24 LINE"
);
}
);
width = 1019;
},
{
layerId = "CBA2E3C4-6E62-469B-BD2C-D62FAD87CF88";
paths = (
{
closed = 1;
nodes = (
"587 0 LINE SMOOTH",
"619 0 OFFCURVE",
"641 17 OFFCURVE",
"653 46 CURVE SMOOTH",
"660 63 OFFCURVE",
"664 81 OFFCURVE",
"664 103 CURVE SMOOTH",
"664 130 OFFCURVE",
"660 153 OFFCURVE",
"645 170 CURVE SMOOTH",
"628 189 OFFCURVE",
"613 200 OFFCURVE",
"587 200 CURVE SMOOTH",
"580 200 LINE",
"580 439 LINE SMOOTH",
"580 531 OFFCURVE",
"580 531 OFFCURVE",
"507 531 CURVE SMOOTH",
"347 531 LINE",
"347 727 LINE",
"283 727 LINE",
"283 654 LINE",
"191 654 LINE",
"191 571 LINE",
"283 571 LINE",
"283 505 LINE SMOOTH",
"283 477 OFFCURVE",
"296 458 OFFCURVE",
"316 458 CURVE SMOOTH",
"475 458 LINE SMOOTH",
"516 458 OFFCURVE",
"516 458 OFFCURVE",
"516 278 CURVE SMOOTH",
"516 0 LINE"
);
},
{
closed = 1;
nodes = (
"280 -175 LINE",
"280 -1 LINE",
"348 -1 LINE",
"349 79 LINE",
"174 78 LINE SMOOTH",
"125 78 OFFCURVE",
"109 78 OFFCURVE",
"109 212 CURVE SMOOTH",
"109 312 OFFCURVE",
"111 478 OFFCURVE",
"111 531 CURVE",
"49 531 LINE",
"49 134 LINE SMOOTH",
"49 39 OFFCURVE",
"78 0 OFFCURVE",
"114 0 CURVE SMOOTH",
"225 0 LINE",
"225 -175 LINE"
);
},
{
closed = 1;
nodes = (
"580 175 LINE",
"592 173 OFFCURVE",
"603 166 OFFCURVE",
"609 157 CURVE SMOOTH",
"618 144 OFFCURVE",
"622 125 OFFCURVE",
"622 99 CURVE SMOOTH",
"622 94 OFFCURVE",
"621 83 OFFCURVE",
"620 78 CURVE SMOOTH",
"618 69 OFFCURVE",
"614 55 OFFCURVE",
"610 46 CURVE",
"604 36 OFFCURVE",
"597 30 OFFCURVE",
"585 26 CURVE",
"580 24 LINE"
);
}
);
width = 713;
}
);
note = uni1284;
},
{
glyphname = "ru_xe-ethiopic.liga";
lastChange = "2019-03-11 07:10:32 +0000";
layers = (
{
layerId = "994FE389-9D54-4FAA-B055-C46A67020E78";
paths = (
{
closed = 1;
nodes = (
"814 0 LINE",
"814 439 LINE SMOOTH",
"814 531 OFFCURVE",
"814 531 OFFCURVE",
"710 531 CURVE SMOOTH",
"481 531 LINE",
"481 727 LINE",
"390 727 LINE",
"390 638 LINE",
"264 638 LINE",
"264 635 LINE",
"260 635 LINE",
"260 482 LINE",
"326 482 LINE",
"326 568 LINE SMOOTH",
"326 581 OFFCURVE",
"337 591 OFFCURVE",
"349 591 CURVE SMOOTH",
"390 591 LINE",
"390 458 LINE",
"665 458 LINE SMOOTH",
"723 458 OFFCURVE",
"723 458 OFFCURVE",
"723 278 CURVE SMOOTH",
"723 0 LINE"
);
},
{
closed = 1;
nodes = (
"400 -175 LINE",
"400 -1 LINE",
"497 -1 LINE",
"498 79 LINE",
"249 78 LINE SMOOTH",
"173 78 OFFCURVE",
"157 85 OFFCURVE",
"157 212 CURVE SMOOTH",
"157 312 OFFCURVE",
"159 478 OFFCURVE",
"159 531 CURVE",
"70 531 LINE",
"70 134 LINE SMOOTH",
"70 39 OFFCURVE",
"111 0 OFFCURVE",
"163 0 CURVE SMOOTH",
"321 0 LINE",
"321 -175 LINE"
);
}
);
width = 884;
},
{
layerId = "CBA2E3C4-6E62-469B-BD2C-D62FAD87CF88";
paths = (
{
closed = 1;
nodes = (
"570 0 LINE",
"570 439 LINE SMOOTH",
"570 531 OFFCURVE",
"570 531 OFFCURVE",
"497 531 CURVE SMOOTH",
"337 531 LINE",
"337 727 LINE",
"273 727 LINE",
"273 638 LINE",
"185 638 LINE",
"185 635 LINE",
"182 635 LINE",
"182 482 LINE",
"228 482 LINE",
"228 568 LINE SMOOTH",
"228 581 OFFCURVE",
"236 591 OFFCURVE",
"244 591 CURVE SMOOTH",
"273 591 LINE",
"273 458 LINE",
"466 458 LINE SMOOTH",
"506 458 OFFCURVE",
"506 458 OFFCURVE",
"506 278 CURVE SMOOTH",
"506 0 LINE"
);
},
{
closed = 1;
nodes = (
"280 -175 LINE",
"280 -1 LINE",
"348 -1 LINE",
"349 79 LINE",
"174 78 LINE SMOOTH",
"121 78 OFFCURVE",
"110 85 OFFCURVE",
"110 212 CURVE SMOOTH",
"110 312 OFFCURVE",
"111 478 OFFCURVE",
"111 531 CURVE",
"49 531 LINE",
"49 134 LINE SMOOTH",
"49 39 OFFCURVE",
"78 0 OFFCURVE",
"114 0 CURVE SMOOTH",
"225 0 LINE",
"225 -175 LINE"
);
}
);
width = 619;
}
);
note = uni1285;
},
{
glyphname = "ru_xwa-ethiopic.liga";
lastChange = "2019-03-11 07:10:32 +0000";
layers = (
{
layerId = "994FE389-9D54-4FAA-B055-C46A67020E78";
paths = (
{
closed = 1;
nodes = (
"731 0 LINE",
"731 215 LINE",
"749 215 LINE SMOOTH",
"794 215 OFFCURVE",
"826 228 OFFCURVE",
"844 253 CURVE SMOOTH",
"854 266 OFFCURVE",
"860 283 OFFCURVE",
"860 300 CURVE SMOOTH",
"860 323 OFFCURVE",
"851 343 OFFCURVE",
"832 356 CURVE SMOOTH",
"810 371 OFFCURVE",
"786 380 OFFCURVE",
"750 380 CURVE SMOOTH",
"731 380 LINE",
"731 439 LINE SMOOTH",
"731 531 OFFCURVE",
"731 531 OFFCURVE",
"628 531 CURVE SMOOTH",
"517 531 LINE",
"517 727 LINE",
"426 727 LINE",
"426 605 LINE",
"344 605 LINE",
"344 531 LINE",
"426 531 LINE",
"426 458 LINE",
"582 458 LINE SMOOTH",
"640 458 OFFCURVE",
"640 458 OFFCURVE",
"640 278 CURVE SMOOTH",
"640 0 LINE"
);
},
{
closed = 1;
nodes = (
"400 -175 LINE",
"400 -1 LINE",
"497 -1 LINE",
"498 79 LINE",
"249 78 LINE SMOOTH",
"172 78 OFFCURVE",
"156 85 OFFCURVE",
"156 212 CURVE SMOOTH",
"156 312 OFFCURVE",
"159 478 OFFCURVE",
"159 531 CURVE",
"70 531 LINE",
"70 134 LINE SMOOTH",
"70 39 OFFCURVE",
"110 0 OFFCURVE",
"162 0 CURVE SMOOTH",
"320 0 LINE",
"320 -175 LINE"
);
},
{
closed = 1;
nodes = (
"731 361 LINE",
"753 360 OFFCURVE",
"770 354 OFFCURVE",
"780 345 CURVE SMOOTH",
"793 334 OFFCURVE",
"799 316 OFFCURVE",
"799 296 CURVE SMOOTH",
"799 291 OFFCURVE",
"798 286 OFFCURVE",
"796 279 CURVE",
"792 268 OFFCURVE",
"788 260 OFFCURVE",
"781 253 CURVE",
"773 244 OFFCURVE",
"761 239 OFFCURVE",
"747 236 CURVE SMOOTH",
"742 235 OFFCURVE",
"737 234 OFFCURVE",
"731 234 CURVE"
);
}
);
width = 930;
},
{
layerId = "CBA2E3C4-6E62-469B-BD2C-D62FAD87CF88";
paths = (
{
closed = 1;
nodes = (
"512 0 LINE",
"512 215 LINE",
"524 215 LINE SMOOTH",
"556 215 OFFCURVE",
"578 228 OFFCURVE",
"591 253 CURVE SMOOTH",
"598 266 OFFCURVE",
"602 285 OFFCURVE",
"602 300 CURVE SMOOTH",
"602 322 OFFCURVE",
"595 344 OFFCURVE",
"583 356 CURVE SMOOTH",
"567 371 OFFCURVE",
"549 380 OFFCURVE",
"525 380 CURVE SMOOTH",
"512 380 LINE",
"512 439 LINE SMOOTH",
"512 531 OFFCURVE",
"512 531 OFFCURVE",
"440 531 CURVE SMOOTH",
"362 531 LINE",
"362 727 LINE",
"298 727 LINE",
"298 605 LINE",
"241 605 LINE",
"241 531 LINE",
"298 531 LINE",
"298 458 LINE",
"407 458 LINE SMOOTH",
"448 458 OFFCURVE",
"448 458 OFFCURVE",
"448 278 CURVE SMOOTH",
"448 0 LINE"
);
},
{
closed = 1;
nodes = (
"280 -175 LINE",
"280 -1 LINE",
"348 -1 LINE",
"349 79 LINE",
"174 78 LINE SMOOTH",
"125 78 OFFCURVE",
"109 77 OFFCURVE",
"109 212 CURVE SMOOTH",
"109 312 OFFCURVE",
"111 478 OFFCURVE",
"111 531 CURVE",
"49 531 LINE",
"49 134 LINE SMOOTH",
"49 39 OFFCURVE",
"77 0 OFFCURVE",
"113 0 CURVE SMOOTH",
"224 0 LINE",
"224 -175 LINE"
);
},
{
closed = 1;
nodes = (
"512 361 LINE",
"527 360 OFFCURVE",
"539 355 OFFCURVE",
"546 345 CURVE SMOOTH",
"555 334 OFFCURVE",
"559 317 OFFCURVE",
"559 296 CURVE SMOOTH",
"559 291 OFFCURVE",
"559 286 OFFCURVE",
"557 279 CURVE",
"554 264 OFFCURVE",
"552 262 OFFCURVE",
"547 253 CURVE",
"542 245 OFFCURVE",
"533 239 OFFCURVE",
"523 236 CURVE SMOOTH",
"519 235 OFFCURVE",
"515 234 OFFCURVE",
"512 234 CURVE"
);
}
);
width = 651;
}
);
},
{
glyphname = "ru_xwi-ethiopic.liga";
lastChange = "2019-03-11 07:10:32 +0000";
layers = (
{
layerId = "994FE389-9D54-4FAA-B055-C46A67020E78";
paths = (
{
closed = 1;
nodes = (
"721 0 LINE",
"721 273 LINE",
"763 273 LINE",
"763 229 LINE",
"924 229 LINE",
"924 276 LINE",
"811 276 LINE",
"811 391 LINE",
"769 391 LINE",
"769 323 LINE",
"721 323 LINE",
"721 439 LINE SMOOTH",
"721 531 OFFCURVE",
"721 531 OFFCURVE",
"617 531 CURVE SMOOTH",
"506 531 LINE",
"506 727 LINE",
"416 727 LINE",
"416 605 LINE",
"334 605 LINE",
"334 531 LINE",
"416 531 LINE",
"416 458 LINE",
"572 458 LINE SMOOTH",
"630 458 OFFCURVE",
"630 458 OFFCURVE",
"630 278 CURVE SMOOTH",
"630 0 LINE"
);
},
{
closed = 1;
nodes = (
"400 -175 LINE",
"400 -1 LINE",
"497 -1 LINE",
"498 79 LINE",
"249 78 LINE SMOOTH",
"173 78 OFFCURVE",
"156 85 OFFCURVE",
"156 212 CURVE SMOOTH",
"156 312 OFFCURVE",
"159 478 OFFCURVE",
"159 531 CURVE",
"70 531 LINE",
"70 134 LINE SMOOTH",
"70 39 OFFCURVE",
"111 0 OFFCURVE",
"163 0 CURVE SMOOTH",
"321 0 LINE",
"321 -175 LINE"
);
}
);
width = 994;
},
{
layerId = "CBA2E3C4-6E62-469B-BD2C-D62FAD87CF88";
paths = (
{
closed = 1;
nodes = (
"505 0 LINE",
"505 273 LINE",
"534 273 LINE",
"534 229 LINE",
"647 229 LINE",
"647 276 LINE",
"568 276 LINE",
"568 391 LINE",
"538 391 LINE",
"538 323 LINE",
"505 323 LINE",
"505 439 LINE SMOOTH",
"505 531 OFFCURVE",
"505 531 OFFCURVE",
"432 531 CURVE SMOOTH",
"354 531 LINE",
"354 727 LINE",
"291 727 LINE",
"291 605 LINE",
"234 605 LINE",
"234 531 LINE",
"291 531 LINE",
"291 458 LINE",
"400 458 LINE SMOOTH",
"441 458 OFFCURVE",
"441 458 OFFCURVE",
"441 278 CURVE SMOOTH",
"441 0 LINE"
);
},
{
closed = 1;
nodes = (
"280 -175 LINE",
"280 -1 LINE",
"348 -1 LINE",
"349 79 LINE",
"174 78 LINE SMOOTH",
"125 78 OFFCURVE",
"109 78 OFFCURVE",
"109 212 CURVE SMOOTH",
"109 312 OFFCURVE",
"111 478 OFFCURVE",
"111 531 CURVE",
"49 531 LINE",
"49 134 LINE SMOOTH",
"49 39 OFFCURVE",
"78 0 OFFCURVE",
"114 0 CURVE SMOOTH",
"225 0 LINE",
"225 -175 LINE"
);
}
);
width = 696;
}
);
},
{
glyphname = "ru_xwaa-ethiopic.liga";
lastChange = "2019-03-11 07:10:32 +0000";
layers = (
{
layerId = "994FE389-9D54-4FAA-B055-C46A67020E78";
paths = (
{
closed = 1;
nodes = (
"988 -182 LINE",
"988 0 LINE",
"843 0 LINE",
"843 439 LINE SMOOTH",
"843 531 OFFCURVE",
"843 531 OFFCURVE",
"739 531 CURVE SMOOTH",
"510 531 LINE",
"510 727 LINE",
"419 727 LINE",
"419 649 LINE",
"302 649 LINE",
"302 555 LINE",
"419 555 LINE",
"419 505 LINE SMOOTH",
"419 477 OFFCURVE",
"437 458 OFFCURVE",
"466 458 CURVE SMOOTH",
"694 458 LINE SMOOTH",
"752 458 OFFCURVE",
"752 458 OFFCURVE",
"752 278 CURVE SMOOTH",
"752 0 LINE",
"631 0 LINE",
"631 -56 LINE",
"891 -56 LINE",
"891 -182 LINE"
);
},
{
closed = 1;
nodes = (
"400 -175 LINE",
"400 -1 LINE",
"498 -1 LINE",
"498 79 LINE",
"249 78 LINE SMOOTH",
"173 78 OFFCURVE",
"157 85 OFFCURVE",
"157 212 CURVE SMOOTH",
"157 312 OFFCURVE",
"159 478 OFFCURVE",
"159 531 CURVE",
"70 531 LINE",
"70 134 LINE SMOOTH",
"70 39 OFFCURVE",
"111 0 OFFCURVE",
"163 0 CURVE SMOOTH",
"321 0 LINE",
"321 -175 LINE"
);
}
);
width = 1058;
},
{
layerId = "CBA2E3C4-6E62-469B-BD2C-D62FAD87CF88";
paths = (
{
closed = 1;
nodes = (
"692 -182 LINE",
"692 0 LINE",
"590 0 LINE",
"590 439 LINE SMOOTH",
"590 531 OFFCURVE",
"590 531 OFFCURVE",
"517 531 CURVE SMOOTH",
"357 531 LINE",
"357 727 LINE",
"293 727 LINE",
"293 649 LINE",
"211 649 LINE",
"211 555 LINE",
"293 555 LINE",
"293 505 LINE SMOOTH",
"293 477 OFFCURVE",
"306 458 OFFCURVE",
"326 458 CURVE SMOOTH",
"486 458 LINE SMOOTH",
"526 458 OFFCURVE",
"526 458 OFFCURVE",
"526 278 CURVE SMOOTH",
"526 0 LINE",
"442 0 LINE",
"442 -56 LINE",
"624 -56 LINE",
"624 -182 LINE"
);
},
{
closed = 1;
nodes = (
"280 -175 LINE",
"280 -1 LINE",
"349 -1 LINE",
"349 79 LINE",
"174 78 LINE SMOOTH",
"121 78 OFFCURVE",
"110 85 OFFCURVE",
"110 212 CURVE SMOOTH",
"110 312 OFFCURVE",
"111 478 OFFCURVE",
"111 531 CURVE",
"49 531 LINE",
"49 134 LINE SMOOTH",
"49 39 OFFCURVE",
"78 0 OFFCURVE",
"114 0 CURVE SMOOTH",
"225 0 LINE",
"225 -175 LINE"
);
}
);
width = 741;
}
);
},
{
glyphname = "ru_xwee-ethiopic.liga";
lastChange = "2019-03-11 07:10:32 +0000";
layers = (
{
layerId = "994FE389-9D54-4FAA-B055-C46A67020E78";
paths = (
{
closed = 1;
nodes = (
"928 -1 LINE",
"928 6 LINE",
"936 3 OFFCURVE",
"944 0 OFFCURVE",
"953 0 CURVE SMOOTH",
"1008 0 OFFCURVE",
"1050 45 OFFCURVE",
"1050 96 CURVE SMOOTH",
"1050 151 OFFCURVE",
"1009 196 OFFCURVE",
"953 196 CURVE SMOOTH",
"944 196 OFFCURVE",
"936 195 OFFCURVE",
"928 192 CURVE",
"928 439 LINE SMOOTH",
"928 531 OFFCURVE",
"928 531 OFFCURVE",
"824 531 CURVE SMOOTH",
"595 531 LINE",
"595 727 LINE",
"504 727 LINE",
"504 649 LINE",
"387 649 LINE",
"387 555 LINE",
"504 555 LINE",
"504 505 LINE SMOOTH",
"504 477 OFFCURVE",
"521 458 OFFCURVE",
"550 458 CURVE SMOOTH",
"779 458 LINE SMOOTH",
"837 458 OFFCURVE",
"837 458 OFFCURVE",
"837 278 CURVE SMOOTH",
"837 56 LINE",
"685 56 LINE",
"685 -1 LINE"
);
},
{
closed = 1;
nodes = (
"400 -175 LINE",
"400 -1 LINE",
"497 -1 LINE",
"498 79 LINE",
"249 78 LINE SMOOTH",
"172 78 OFFCURVE",
"156 85 OFFCURVE",
"156 212 CURVE SMOOTH",
"156 312 OFFCURVE",
"159 478 OFFCURVE",
"159 531 CURVE",
"70 531 LINE",
"70 134 LINE SMOOTH",
"70 39 OFFCURVE",
"110 0 OFFCURVE",
"162 0 CURVE SMOOTH",
"320 0 LINE",
"320 -175 LINE"
);
},
{
closed = 1;
nodes = (
"943 54 OFFCURVE",
"935 56 OFFCURVE",
"928 62 CURVE",
"928 134 LINE",
"935 139 OFFCURVE",
"943 142 OFFCURVE",
"953 142 CURVE SMOOTH",
"978 142 OFFCURVE",
"998 122 OFFCURVE",
"998 99 CURVE SMOOTH",
"998 73 OFFCURVE",
"978 54 OFFCURVE",
"953 54 CURVE SMOOTH"
);
}
);
width = 1120;
},
{
layerId = "CBA2E3C4-6E62-469B-BD2C-D62FAD87CF88";
paths = (
{
closed = 1;
nodes = (
"650 -1 LINE",
"650 6 LINE",
"655 3 OFFCURVE",
"661 0 OFFCURVE",
"667 0 CURVE SMOOTH",
"705 0 OFFCURVE",
"735 45 OFFCURVE",
"735 96 CURVE SMOOTH",
"735 151 OFFCURVE",
"706 196 OFFCURVE",
"667 196 CURVE SMOOTH",
"661 196 OFFCURVE",
"655 195 OFFCURVE",
"650 192 CURVE",
"650 439 LINE SMOOTH",
"650 531 OFFCURVE",
"650 531 OFFCURVE",
"577 531 CURVE SMOOTH",
"416 531 LINE",
"416 727 LINE",
"353 727 LINE",
"353 649 LINE",
"271 649 LINE",
"271 555 LINE",
"353 555 LINE",
"353 505 LINE SMOOTH",
"353 477 OFFCURVE",
"365 458 OFFCURVE",
"385 458 CURVE SMOOTH",
"545 458 LINE SMOOTH",
"586 458 OFFCURVE",
"586 458 OFFCURVE",
"586 278 CURVE SMOOTH",
"586 56 LINE",
"480 56 LINE",
"480 -1 LINE"
);
},
{
closed = 1;
nodes = (
"280 -175 LINE",
"280 -1 LINE",
"348 -1 LINE",
"349 79 LINE",
"174 78 LINE SMOOTH",
"125 78 OFFCURVE",
"109 77 OFFCURVE",
"109 212 CURVE SMOOTH",
"109 312 OFFCURVE",
"111 478 OFFCURVE",
"111 531 CURVE",
"49 531 LINE",
"49 134 LINE SMOOTH",
"49 39 OFFCURVE",
"77 0 OFFCURVE",
"113 0 CURVE SMOOTH",
"224 0 LINE",
"224 -175 LINE"
);
},
{
closed = 1;
nodes = (
"662 54 OFFCURVE",
"655 55 OFFCURVE",
"650 62 CURVE",
"650 134 LINE",
"654 139 OFFCURVE",
"661 142 OFFCURVE",
"667 142 CURVE SMOOTH",
"684 142 OFFCURVE",
"699 122 OFFCURVE",
"699 99 CURVE SMOOTH",
"699 73 OFFCURVE",
"684 54 OFFCURVE",
"667 54 CURVE SMOOTH"
);
}
);
width = 784;
}
);
},
{
glyphname = "ru_xwe-ethiopic.liga";
lastChange = "2019-03-11 07:10:32 +0000";
layers = (
{
layerId = "994FE389-9D54-4FAA-B055-C46A67020E78";
paths = (
{
closed = 1;
nodes = (
"1028 -182 LINE",
"1028 0 LINE",
"883 0 LINE",
"883 273 LINE",
"960 273 LINE",
"960 229 LINE",
"1121 229 LINE",
"1121 276 LINE",
"1008 276 LINE",
"1008 391 LINE",
"966 391 LINE",
"966 323 LINE",
"883 323 LINE",
"883 439 LINE SMOOTH",
"883 531 OFFCURVE",
"883 531 OFFCURVE",
"779 531 CURVE SMOOTH",
"550 531 LINE",
"550 727 LINE",
"459 727 LINE",
"459 649 LINE",
"342 649 LINE",
"342 555 LINE",
"459 555 LINE",
"459 505 LINE SMOOTH",
"459 477 OFFCURVE",
"476 458 OFFCURVE",
"505 458 CURVE SMOOTH",
"734 458 LINE SMOOTH",
"792 458 OFFCURVE",
"792 458 OFFCURVE",
"792 278 CURVE SMOOTH",
"792 0 LINE",
"671 0 LINE",
"671 -56 LINE",
"931 -56 LINE",
"931 -182 LINE"
);
},
{
closed = 1;
nodes = (
"400 -175 LINE",
"400 -1 LINE",
"497 -1 LINE",
"498 79 LINE",
"249 78 LINE SMOOTH",
"173 78 OFFCURVE",
"156 85 OFFCURVE",
"156 212 CURVE SMOOTH",
"156 312 OFFCURVE",
"159 478 OFFCURVE",
"159 531 CURVE",
"70 531 LINE",
"70 134 LINE SMOOTH",
"70 39 OFFCURVE",
"111 0 OFFCURVE",
"163 0 CURVE SMOOTH",
"321 0 LINE",
"321 -175 LINE"
);
}
);
width = 1191;
},
{
layerId = "CBA2E3C4-6E62-469B-BD2C-D62FAD87CF88";
paths = (
{
closed = 1;
nodes = (
"720 -182 LINE",
"720 0 LINE",
"618 0 LINE",
"618 273 LINE",
"672 273 LINE",
"672 229 LINE",
"785 229 LINE",
"785 276 LINE",
"706 276 LINE",
"706 391 LINE",
"676 391 LINE",
"676 323 LINE",
"618 323 LINE",
"618 439 LINE SMOOTH",
"618 531 OFFCURVE",
"618 531 OFFCURVE",
"545 531 CURVE SMOOTH",
"385 531 LINE",
"385 727 LINE",
"321 727 LINE",
"321 649 LINE",
"239 649 LINE",
"239 555 LINE",
"321 555 LINE",
"321 505 LINE SMOOTH",
"321 478 OFFCURVE",
"333 458 OFFCURVE",
"354 458 CURVE SMOOTH",
"514 458 LINE SMOOTH",
"554 458 OFFCURVE",
"554 458 OFFCURVE",
"554 278 CURVE SMOOTH",
"554 0 LINE",
"470 0 LINE",
"470 -56 LINE",
"652 -56 LINE",
"652 -182 LINE"
);
},
{
closed = 1;
nodes = (
"280 -175 LINE",
"280 -1 LINE",
"348 -1 LINE",
"349 79 LINE",
"174 78 LINE SMOOTH",
"125 78 OFFCURVE",
"109 78 OFFCURVE",
"109 212 CURVE SMOOTH",
"109 312 OFFCURVE",
"111 478 OFFCURVE",
"111 531 CURVE",
"49 531 LINE",
"49 134 LINE SMOOTH",
"49 39 OFFCURVE",
"78 0 OFFCURVE",
"114 0 CURVE SMOOTH",
"225 0 LINE",
"225 -175 LINE"
);
}
);
width = 834;
}
);
},
{
glyphname = "ru_na-ethiopic.liga";
lastChange = "2019-03-11 07:10:32 +0000";
layers = (
{
layerId = "994FE389-9D54-4FAA-B055-C46A67020E78";
paths = (
{
closed = 1;
nodes = (
"720 0 LINE",
"720 439 LINE SMOOTH",
"720 531 OFFCURVE",
"720 531 OFFCURVE",
"617 531 CURVE SMOOTH",
"388 531 LINE",
"388 727 LINE",
"297 727 LINE",
"297 505 LINE SMOOTH",
"297 477 OFFCURVE",
"314 458 OFFCURVE",
"343 458 CURVE SMOOTH",
"571 458 LINE SMOOTH",
"630 458 OFFCURVE",
"630 458 OFFCURVE",
"630 278 CURVE SMOOTH",
"630 0 LINE"
);
},
{
closed = 1;
nodes = (
"400 -175 LINE",
"400 -1 LINE",
"497 -1 LINE",
"498 79 LINE",
"249 78 LINE SMOOTH",
"172 78 OFFCURVE",
"156 85 OFFCURVE",
"156 212 CURVE SMOOTH",
"156 312 OFFCURVE",
"159 478 OFFCURVE",
"159 531 CURVE",
"70 531 LINE",
"70 134 LINE SMOOTH",
"70 39 OFFCURVE",
"110 0 OFFCURVE",
"162 0 CURVE SMOOTH",
"320 0 LINE",
"320 -175 LINE"
);
}
);
width = 790;
},
{
layerId = "CBA2E3C4-6E62-469B-BD2C-D62FAD87CF88";
paths = (
{
closed = 1;
nodes = (
"504 0 LINE",
"504 439 LINE SMOOTH",
"504 531 OFFCURVE",
"504 531 OFFCURVE",
"432 531 CURVE SMOOTH",
"272 531 LINE",
"272 727 LINE",
"208 727 LINE",
"208 505 LINE SMOOTH",
"208 477 OFFCURVE",
"220 458 OFFCURVE",
"240 458 CURVE SMOOTH",
"400 458 LINE SMOOTH",
"441 458 OFFCURVE",
"441 458 OFFCURVE",
"441 278 CURVE SMOOTH",
"441 0 LINE"
);
},
{
closed = 1;
nodes = (
"280 -175 LINE",
"280 -1 LINE",
"348 -1 LINE",
"349 79 LINE",
"174 78 LINE SMOOTH",
"125 78 OFFCURVE",
"109 77 OFFCURVE",
"109 212 CURVE SMOOTH",
"109 312 OFFCURVE",
"111 478 OFFCURVE",
"111 531 CURVE",
"49 531 LINE",
"49 134 LINE SMOOTH",
"49 39 OFFCURVE",
"77 0 OFFCURVE",
"113 0 CURVE SMOOTH",
"224 0 LINE",
"224 -175 LINE"
);
}
);
width = 553;
}
);
},
